<?xml version="1.0" encoding="UTF-8"?><svg id="Layer_1" xmlns="http://www.w3.org/2000/svg" width="128.25mm" height="87.28mm" viewBox="0 0 363.56 247.4"><defs><style>.cls-1{fill:#e6eda7;stroke-width:0px;}</style></defs><path class="cls-1" d="M195.68,83.1c5.76-5.5,8.4-13.1,11.77-20.11,3.53-7.36,8.76-13.87,11.6-21.57.79-2.14,1.28-4.31,1.61-6.56.26-1.77.46-4.08,2.06-5.2l-1.51-.2c2.29,2.37-1.33,7.04-2.52,9.13-2.13,3.75-4.26,7.5-6.4,11.25-4.26,7.5-8.53,15-12.79,22.5-.8,1.4,1.36,2.66,2.16,1.26,4.67-8.22,9.35-16.44,14.02-24.66,2.3-4.04,4.63-8.06,6.89-12.12,1.54-2.76,2.94-6.51.41-9.13-.36-.37-1.07-.5-1.51-.2-3.11,2.16-2.93,6-3.66,9.33-.9,4.14-2.8,7.94-4.91,11.58s-4.39,7.11-6.34,10.81-3.42,7.36-5.17,11.02c-1.94,4.05-4.19,7.95-7.46,11.08-1.17,1.11.6,2.88,1.77,1.77h0Z"/><path class="cls-1" d="M195.26,83.98c.23-1.69-.47-3.45-1.83-4.47-.65-.49-1.48-.74-2.29-.76-.4-.01-.82.04-1.2.16-.49.16-.87.39-1.27.71-.23.18-.37.6-.37.88,0,.31.14.67.37.88s.55.38.88.37c.35-.02.61-.15.88-.37-.02.02-.24.17-.1.08.04-.03.09-.06.13-.08.04-.02.07-.04.11-.06.1-.05.22-.05-.1.04.18-.05.36-.11.55-.14l-.33.04c.25-.03.51-.03.76,0l-.33-.04c.16.02.32.06.47.11.07.02.14.06.21.08-.37-.11-.11-.05,0,.01.06.03.11.06.17.1.04.02.07.05.11.07.1.08.07.05-.1-.08.1.12.23.21.33.32.03.03.06.07.09.1-.12-.16-.15-.2-.09-.12.04.06.09.13.13.19.08.13.14.28.22.41-.08-.2-.1-.23-.05-.11.02.04.03.08.05.13.02.06.04.13.06.19.05.17.08.35.11.53l-.04-.33c.05.38.05.77,0,1.15-.04.29.17.69.37.88.22.22.57.38.88.37s.66-.12.88-.37c.24-.26.32-.54.37-.88h0Z"/><path class="cls-1" d="M188.51,80.33c-1.38,4.13-5.73,7.09-5.35,11.83.08,1.04.44,2.07,1.31,2.7.94.68,2.15.65,3.21.28,2.02-.71,4.18-2.2,4.26-4.55.04-1.22-.64-2.49-1.88-2.8-.65-.16-1.34-.05-2,0-.7.05-1.4.1-2.1.15s-1.25.54-1.25,1.25c0,.64.57,1.3,1.25,1.25.58-.04,1.16-.08,1.73-.12.49-.03,1.17.04,1.64-.1.15-.05.12.05.05-.06.07.11.07.32.06.44-.02.34-.22.67-.44.92-.57.65-1.55,1.15-2.38,1.35-.68.17-.89-.12-.96-.79-.2-2,1.02-3.92,2.09-5.5,1.21-1.79,2.49-3.5,3.18-5.57.51-1.53-1.9-2.19-2.41-.66h0Z"/><path class="cls-1" d="M192.8,89.63c.28-.62.56-1.25.92-1.84.15-.25.34-.53.49-.69.2-.22.42-.44.57-.54.13-.09.27-.17.41-.24.19-.1.11-.07.26-.11.13-.03.26-.08.39-.1-.18.03.04,0,.06,0,.09,0,.18,0,.26,0-.18,0,.2.05.26.07.07.02.15.05.29.14.25.15.41.29.64.53.77.81,1.14,1.9,1.06,3.03,0,.03-.05.23,0,.06-.01.06-.03.13-.04.19s-.03.13-.06.19c.02-.05.09-.16-.03.05,0,0-.09.18-.05.08.04-.08-.06.05-.07.06.15-.11,0,.01-.04.03-.07.04-.14.08-.21.12.19-.08-.17.04-.23.05-.06.01-.42.07-.23.05-.31.03-.62.04-.94.04-1.83.03-3.65-.02-5.47-.13-.67-.04-1.25.61-1.25,1.25,0,.71.57,1.21,1.25,1.25,1.94.12,3.89.19,5.83.12.84-.03,1.72-.13,2.46-.57.82-.48,1.35-1.33,1.51-2.26.57-3.41-2.44-8.09-6.31-6.59-2.02.78-3.05,2.6-3.89,4.48-.28.62-.18,1.34.45,1.71.53.31,1.43.17,1.71-.45h0Z"/><path class="cls-1" d="M188.95,93.83c-2.03,4.07-2.26,8.23-1.65,12.67s1.22,8.88,2.91,12.99c1.47,3.59,3.77,6.82,6.75,9.33,1.24,1.04,3.04,2.78,4.81,2.48s2.98-2.6,3.77-3.96c4.46-7.61,3.25-16.99,1.14-25.13-.85-3.27-2.27-6.97-5.41-8.69-2.81-1.54-6.68-.64-6.94,2.96-.36,4.93,1.49,10.07,2.75,14.76,1.36,5.04,2.47,10.32,1.04,15.47-.43,1.55,1.98,2.21,2.41.66,2.08-7.48-.65-14.87-2.46-22.09-.47-1.88-.89-3.79-1.1-5.72-.13-1.21-.77-3.88.89-4.25,2.86-.63,4.84,2.91,5.64,5.07,1.27,3.43,1.98,7.26,2.36,10.88s.29,7.27-.75,10.77c-.48,1.61-1.16,3.15-2.06,4.56-.33.52-.96,1.79-1.54,2.03-.7.29-1.58-.63-2.1-1.02-2.72-2.07-4.92-4.81-6.4-7.89-1.77-3.69-2.4-7.83-3.01-11.84-.68-4.44-.98-8.66,1.09-12.79.72-1.43-1.44-2.7-2.16-1.26h0Z"/><path class="cls-1" d="M248.75,52.29c-3.76,1.35-7.25,3.25-10.39,5.71-1.64,1.29-3.13,2.75-4.68,4.15-1.63,1.48-3.41,2.72-5.15,4.05-3.2,2.46-5.24,5.89-7.92,8.84s-5.92,5.77-8.79,8.75c-3.39,3.52-6.06,7.53-8.65,11.65-.86,1.37,1.3,2.62,2.16,1.26,2.24-3.56,4.5-7.09,7.36-10.2,2.66-2.88,5.61-5.47,8.34-8.28,1.36-1.4,2.64-2.86,3.83-4.4s2.38-3.19,3.84-4.54,3.15-2.39,4.69-3.61,3.04-2.69,4.54-4.05c3.36-3.03,7.21-5.4,11.47-6.93,1.5-.54.86-2.96-.66-2.41h0Z"/><path class="cls-1" d="M209.74,103.6c2.13-5.65,6.43-10.06,10.63-14.24,4.8-4.79,9.68-9.51,14.63-14.16s9.61-9.38,14.92-13.37,11.04-5.94,17.02-7.97c6.95-2.37,13.5-5.31,20.04-8.63,1.43-.73.17-2.89-1.26-2.16-6.07,3.09-12.16,5.89-18.61,8.1-5.99,2.05-12.11,4.05-17.34,7.71s-10.26,8.69-15.12,13.24-10.08,9.57-15.01,14.46-9.83,9.82-12.3,16.37c-.57,1.51,1.85,2.16,2.41.66h0Z"/><path class="cls-1" d="M250.63,54.41c13.98-8.64,28.59-16.38,43.74-22.75,4.36-1.83,8.77-3.51,13.26-4.99,1.52-.5.87-2.91-.66-2.41-15.76,5.18-30.87,12.64-45.31,20.75-4.15,2.33-8.24,4.75-12.29,7.25-1.37.84-.11,3.01,1.26,2.16h0Z"/><path class="cls-1" d="M287.96,44.82c4.91-3.46,9.92-6.82,15.25-9.61,2.69-1.41,5.46-2.67,8.32-3.7.83-.3,3.07-1.31,3.9-.64.08.07-.44.9-.63,1.19-.39.59-.85,1.14-1.29,1.7-1.33,1.67-2.76,3.57-2.58,5.84.24,3,3.3,3.14,5.67,2.86,1.54-.19,3.05-.58,4.6-.78,1.21-.15,2.86-.49,4.04-.11.81.26.2.93-.12,1.46-.38.63-.78,1.24-1.2,1.84-.8,1.14-1.78,2.18-2.51,3.36-1.3,2.12-1.09,4.57.81,6.24.78.69,1.71,1.18,2.68,1.53.73.26,3.7.58,3.53,1.79-.12.84-2.07,1.09-2.69,1.26-1.66.45-3.33.9-4.99,1.35-3.09.84-6.18,1.67-9.28,2.51-1.59.43-3.17.86-4.76,1.29-1.22.33-2.85.49-3.78,1.43-.75.75-.8,1.96.03,2.67.93.8,2.49.89,3.66.82,1.45-.09,2.88-.42,4.32-.6,1.67-.21,3.35-.33,5.03-.38,3.25-.1,6.51.08,9.73.59.71.11,1.46.17,2.15.4,1.1.36.86.73-.04,1.07-1.55.59-3.21.98-4.82,1.37-3.25.8-6.54,1.43-9.77,2.31-1.6.44-3.21.93-4.75,1.56-1.09.45-1.77,1.51-1.08,2.65s2.54,1.75,3.74,2.26c1.59.67,3.22,1.17,4.9,1.53,1.57.34,2.24-2.07.66-2.41-1.43-.31-2.83-.71-4.19-1.24-.71-.28-1.41-.6-2.09-.96.04.02-.74-.43-.77-.42-.32.8-.21,1.02.35.67.28-.11.57-.21.86-.31,2.88-.99,5.85-1.65,8.81-2.32s5.97-1.27,8.83-2.29c.98-.35,1.99-.81,2.49-1.78.62-1.19.11-2.56-.88-3.36-.91-.73-2.12-.89-3.24-1.07-1.69-.28-3.39-.49-5.1-.62-3.19-.24-6.41-.2-9.6.12-1.52.15-3.02.41-4.53.62-.83.12-1.55.07-2.37.07l-.42-.1.18.78c.17.12,1.42-.39,1.66-.45,3.25-.88,6.5-1.76,9.75-2.64s6.34-1.72,9.51-2.57c2.04-.55,5.13-1.23,4.99-3.96-.15-2.94-3.23-3.22-5.35-4.03-.99-.38-2.25-1.09-2.5-2.22-.29-1.34,1.03-2.62,1.78-3.57.88-1.12,1.7-2.29,2.43-3.51.67-1.12,1.26-2.36.64-3.63-1.12-2.3-4.7-1.73-6.72-1.48-1.42.17-2.81.49-4.23.72-.82.13-1.65.22-2.48.16-.95-.07-1.18-.4-1.03-1.29.38-2.27,2.64-3.96,3.78-5.87.66-1.11,1.21-2.53.22-3.63-.91-1.01-2.53-1.08-3.77-.91-3.19.42-6.45,2.13-9.33,3.51-6.23,3-12.01,6.84-17.65,10.82-1.31.92-.06,3.09,1.26,2.16h0Z"/><path class="cls-1" d="M208.21,105.25c3.38-.05,6.78,1.1,10.08,1.73s6.74,1.2,10.12,1.76c6.67,1.1,13.34,2.23,19.87,4.01,1.55.42,2.22-1.99.66-2.41-6.68-1.83-13.52-2.96-20.34-4.09-3.38-.56-6.76-1.12-10.12-1.77s-6.81-1.78-10.28-1.73c-1.61.02-1.61,2.52,0,2.5h0Z"/><path class="cls-1" d="M209.01,111.09c2.15-.53,4.29-.5,6.44,0s4.27,1.3,6.47,1.7,4.2.4,6.31.57c2.27.19,4.35.86,6.48,1.62,4.12,1.47,8.23,1.79,12.56,2.09,4.65.32,9.3.58,13.96.78,2.47.1,4.92.19,7.33-.44s4.67-1.81,7.1-1.42c1.57.25,2.25-2.16.66-2.41-2.05-.33-3.95.05-5.91.66-2.19.68-4.23,1.22-6.55,1.2-4.79-.03-9.61-.41-14.39-.72s-9.12-.4-13.46-1.92c-2.08-.73-4.11-1.48-6.3-1.78s-4.62-.22-6.9-.61c-2.43-.41-4.73-1.33-7.14-1.84s-4.89-.5-7.32.11c-1.56.39-.9,2.8.66,2.41h0Z"/><path class="cls-1" d="M248.86,113.27c5.08.64,10.16,1.31,15.25,1.93s9.87.95,14.79.06c1.58-.29.91-2.7-.66-2.41-4.84.88-9.77.38-14.61-.21s-9.85-1.24-14.77-1.87c-1.59-.2-1.58,2.3,0,2.5h0Z"/><path class="cls-1" d="M207.39,111.47c1.27,1.79,2.94,3.09,4.7,4.35,1.98,1.42,3.89,2.91,5.72,4.52,3.71,3.27,7.12,6.86,10.53,10.44,1.11,1.17,2.88-.6,1.77-1.77-3.32-3.49-6.64-6.99-10.24-10.19-1.73-1.54-3.54-3.01-5.41-4.38-1.74-1.27-3.64-2.46-4.91-4.24-.92-1.3-3.09-.05-2.16,1.26h0Z"/><path class="cls-1" d="M208.08,113.66c1.75,3.22,3.07,6.63,3.94,10.19.42,1.72.73,3.46.92,5.22s.3,3.67,1.02,5.38c.26.63.82,1.06,1.54.87.59-.16,1.13-.92.87-1.54-.73-1.75-.79-3.61-1.02-5.47s-.55-3.69-1.01-5.5c-.91-3.63-2.31-7.13-4.1-10.42-.77-1.41-2.93-.15-2.16,1.26h0Z"/><path class="cls-1" d="M210.56,115.57c1.77,2.37,2.63,5.16,3.48,7.96,1,3.3,2,6.59,3,9.89.47,1.54,2.88.88,2.41-.66-1.03-3.4-2.06-6.81-3.1-10.21-.87-2.88-1.81-5.8-3.64-8.23-.41-.54-1.08-.81-1.71-.45-.54.31-.85,1.17-.45,1.71h0Z"/><path class="cls-1" d="M238.63,86.76c-5.25,3.14-10.49,6.32-15.77,9.43-2.31,1.36-4.67,2.37-7.19,3.27-2.37.84-4.64,1.78-6.61,3.37-1.25,1.01.53,2.77,1.77,1.77,1.94-1.56,4.35-2.31,6.66-3.14,2.47-.88,4.76-2,7.01-3.34,5.14-3.05,10.26-6.14,15.39-9.2,1.38-.83.12-2.99-1.26-2.16h0Z"/><path class="cls-1" d="M240.57,88.41c2.95-1.09,5.34-3,7.82-4.88,2.6-1.98,5.35-3.75,8.18-5.39,5.8-3.37,11.86-6.7,18.28-8.72,3.1-.97,6.26-1.7,9.44-2.38s6.3-1.57,9.44-.57c2.51.8,4.68,2.71,5.32,5.33s-.25,5.59-2.71,6.77c-3.37,1.61-6.17-2.2-6.07-5.25.11-3.28,3.03-5.59,6.2-5.45,1.61.07,1.61-2.43,0-2.5-3.14-.14-6.31,1.56-7.78,4.38s-1.14,6.39.8,8.91c2.18,2.82,6.01,3.69,8.97,1.53,2.56-1.86,3.6-5.11,3.15-8.18s-2.6-5.79-5.41-7.2c-3.33-1.67-6.77-1.4-10.31-.66-4,.84-8.02,1.69-11.92,2.94s-7.57,2.98-11.19,4.85c-4.07,2.1-8.11,4.28-11.94,6.81-3.58,2.37-6.85,5.76-10.93,7.26-1.5.55-.85,2.97.66,2.41h0Z"/><path class="cls-1" d="M292.63,79.55c-3.84,1.97-8.47,2.46-12.65,3.34-4.73.99-9.53,2.13-14.39,1.73-2.29-.19-4.53-.75-6.83-.84s-4.37.3-6.48.82c-3.77.94-7.83,1.94-9.78,5.65-1.84,3.5-1.3,7.73.88,10.96,2.28,3.39,5.88,5.38,9.84,6.12,4.55.86,9.18.48,13.75.03s8.85-.86,13.14-2.01c2.42-.65,4.67-1.67,7-2.56,2.47-.94,4.92-1.27,7.56-1.29,5.12-.03,10.25.21,15.25-1.13,1.55-.42.89-2.83-.66-2.41-4.15,1.12-8.44,1.07-12.7,1.05-2.07-.01-4.14-.02-6.2.29s-3.89,1.06-5.76,1.83c-3.9,1.61-7.89,2.58-12.07,3.12s-8.52,1.05-12.78,1.1-8.59-.36-11.89-2.95c-2.93-2.3-4.85-6.28-3.58-9.98,1.36-3.94,5.75-4.75,9.35-5.57,2.1-.48,4.18-.7,6.33-.48s4.23.69,6.38.8c4.83.25,9.63-.88,14.33-1.87,4.43-.93,9.18-1.5,13.24-3.59,1.43-.74.17-2.89-1.26-2.16h0Z"/><path class="cls-1" d="M315.96,80.87c.07.17.78,1.95.79,1.95l.07-.59c-.16.06-.31.12-.47.18-.26.1-.52.2-.79.3-1.12.43-2.28.81-3.37,1.31-2.02.92-3.19,3.46-1.13,5.05.8.62,2.02.66,2.68,1.41.61.69,1.19,1.91.89,2.82-.33.99-1.33,1.78-2.13,2.38-.97.74-2.03,1.36-3.08,1.99-1.38.82-.13,2.98,1.26,2.16,2.08-1.24,4.45-2.57,5.79-4.66s.62-4.97-1.14-6.64c-.45-.43-.95-.69-1.53-.91-.22-.08-1.26-.32-1.33-.63-.15-.68,2.2-1.28,2.65-1.45.63-.24,1.26-.48,1.89-.72.57-.22,1.24-.39,1.69-.82,1.12-1.08.15-2.64-.33-3.79-.26-.63-.83-1.06-1.54-.87-.59.16-1.13.91-.87,1.54h0Z"/><path class="cls-1" d="M307.55,26.82c2.98-.83,5.96-1.63,8.96-2.36,2.85-.69,5.89-1.39,8.82-.75,2.53.55,4.68,2.03,5.54,4.55.91,2.67.18,5.16-.26,7.83-.22,1.35-.13,2.6.03,3.95.18,1.54.19,3.07.19,4.62,0,2.94.23,5.86.76,8.75s1.54,5.71,2.17,8.61c.59,2.73.53,5.45-.08,8.16-1.33,5.86-4.42,11.15-5.72,17.02-.35,1.57,2.06,2.24,2.41.66,1.25-5.61,4.11-10.67,5.53-16.22.71-2.77,1-5.62.6-8.46-.45-3.16-1.6-6.16-2.26-9.28s-.9-6.43-.9-9.71c0-1.55-.07-3.07-.25-4.6-.21-1.71,0-3.17.36-4.84,1.12-5.3-.37-10.83-5.79-12.94-3.1-1.21-6.51-.89-9.7-.23-3.73.77-7.41,1.81-11.07,2.84-1.55.43-.89,2.85.66,2.41h0Z"/><path class="cls-1" d="M327.68,88.67c-1.16,3.87-3.27,7.3-5.39,10.7s-4.49,6.44-7.94,8.77c-3.25,2.18-6.72,4.5-10.7,4.86-4.25.38-8.52.55-12.77.82-4.83.3-9.72.69-14.53-.1-1.57-.26-2.25,2.15-.66,2.41,4.56.74,9.14.56,13.73.28s9.2-.52,13.79-.87c2.1-.16,4.08-.55,6-1.46s3.73-2.06,5.5-3.19c3.55-2.26,6.36-4.98,8.65-8.52,2.65-4.1,5.32-8.32,6.73-13.03.46-1.54-1.95-2.2-2.41-.66h0Z"/><path class="cls-1" d="M279.62,115.1c7.29-2.04,14.91-1.07,22.12.81,3.32.86,6.68,1.73,9.26,4.11,2.32,2.15,3.95,4.9,5.54,7.6.82,1.38,2.98.13,2.16-1.26-1.7-2.87-3.46-5.82-5.93-8.1-2.8-2.59-6.29-3.67-9.91-4.64-7.78-2.07-16.03-3.13-23.9-.93-1.55.43-.89,2.85.66,2.41h0Z"/><path class="cls-1" d="M287.41,116.65c-2.41.52-3.05,3.37-2.76,5.48.16,1.18.67,2.14,1.51,2.99.8.8,1.7,1.49,2.76,1.9,2.01.79,4.34,0,5.22-2.01.79-1.8.6-3.98-.25-5.72-.55-1.12-1.49-1.88-2.63-2.34s-2.57-.91-3.82-.45c-.63.23-1.06.85-.87,1.54.17.61.9,1.11,1.54.87.09-.03.18-.06.27-.09.29-.08.13-.02.08-.02.09,0,.19,0,.28,0,.27.01.15.02.1,0,.42.07.84.21,1.24.35.36.13.46.17.82.38.19.11.13.08.07.03.06.05.12.1.18.16s.11.12.17.17c.19.18-.03-.08.1.12.09.14.17.27.25.42.04.07.07.15.11.22-.08-.18,0,.01.01.04.12.35.21.71.29,1.08,0,.04.04.25,0,.03,0,.07.02.15.02.22.01.15.02.3.02.46s0,.31-.01.46c0,.08-.01.15-.02.23.03-.27-.02.09-.02.12-.03.15-.07.29-.11.44-.02.07-.05.14-.07.21.02-.05.11-.2,0,0-.07.13-.14.25-.22.38-.12.2-.04.04,0,0-.07.08-.15.15-.22.23-.04.04-.18.12,0,0-.06.04-.12.08-.19.12-.02.01-.21.1-.05.04-.08.03-.16.05-.25.08-.03,0-.24.06-.05.02-.08.01-.18.02-.26.02-.09,0-.17,0-.26,0-.35-.01.16.06-.19-.02-.17-.04-.34-.08-.5-.14s-.1-.04-.32-.16c-.33-.18-.61-.38-.81-.55-.3-.25-.58-.51-.84-.8-.18-.19-.39-.46-.49-.73-.22-.57-.22-1.56-.09-2.17.02-.09.04-.18.07-.27,0-.03.09-.29.04-.16.03-.08.08-.16.12-.23.02-.04.21-.29.07-.13.05-.06.11-.11.16-.17.17-.19-.11.03.11-.09.07-.04.13-.08.2-.11-.2.09.08,0,.14-.02.66-.14,1.04-.91.87-1.54-.19-.68-.88-1.02-1.54-.87h0Z"/><path class="cls-1" d="M309.48,176.63c3.11-3.61,5.92-7.48,8.35-11.57s4.55-8.11,5.71-12.55c1.24-4.74.64-9.42-.34-14.15-.51-2.47-1.1-4.93-1.77-7.37-.49-1.8-.83-4.16-2.63-5.13-1.42-.76-2.68,1.4-1.26,2.16.76.4.88,1.51,1.1,2.27.31,1.06.6,2.13.87,3.2.55,2.14,1.05,4.3,1.47,6.46.89,4.48,1.17,8.77-.22,13.18-1.27,4.03-3.36,7.84-5.55,11.43s-4.72,7.07-7.5,10.3c-1.04,1.21.72,2.99,1.77,1.77h0Z"/><path class="cls-1" d="M260.19,199.96c9.39.02,17.92-3.34,25.98-7.91s15.57-10.18,23-15.76c1.27-.95.03-3.13-1.26-2.16-7.19,5.39-14.4,10.8-22.2,15.3s-16.25,8.05-25.53,8.03c-1.61,0-1.61,2.5,0,2.5h0Z"/><path class="cls-1" d="M214.16,135.19c.49,3.72,2.06,7.03,3.32,10.53.65,1.81,1.05,3.7,1.69,5.52s1.55,3.31,2.39,4.94,1.41,3.51,2,5.32c.61,1.91,1.36,3.76,2.17,5.59,1.5,3.38,3.07,6.75,4.8,10.01,1.91,3.6,4.14,7.04,6.98,9.99,1.12,1.16,2.88-.61,1.77-1.77-3.09-3.21-5.37-7.04-7.37-11-2.14-4.23-4.31-8.56-5.8-13.06-.69-2.08-1.29-4.18-2.28-6.14-1.15-2.26-2.23-4.33-2.92-6.79-1.23-4.4-3.64-8.58-4.24-13.13-.21-1.57-2.71-1.59-2.5,0h0Z"/><path class="cls-1" d="M237.72,188.13c2.73,3,6.48,4.57,10.15,6.1,4.24,1.77,8.47,3.82,12.9,5.05,1.55.43,2.22-1.98.66-2.41-4.16-1.16-8.13-3.06-12.11-4.72-3.53-1.47-7.21-2.9-9.84-5.79-1.09-1.19-2.85.58-1.77,1.77h0Z"/><path class="cls-1" d="M253.86,170.11c-2.46-3.05-4.85-6.18-7.4-9.15-.87-1.02-2.05-2.01-3.47-2.04s-2.56,1.04-2.42,2.5,1.47,2.86,2.34,4c1.16,1.51,2.17,3.06,2.93,4.81,1.4,3.23,2.46,6.5,4.15,9.61.8,1.46,1.62,2.92,2.26,4.47.36.88.66,1.79.94,2.7.14.46.28.91.41,1.37.09.31.18.61.26.92.04.48.24.37.6-.32-.02-.17-1.5-.99-1.67-1.11-.69-.5-1.37-1.07-1.91-1.74-1.12-1.4-1.66-3.2-2.65-4.7-1.87-2.84-4.38-5.16-6.05-8.14-.8-1.42-1.5-2.91-2.37-4.29-.95-1.51-2.09-2.9-3.24-4.27s-2.4-2.83-3.4-4.39c-1.09-1.71-1.76-3.64-2.81-5.37-1-1.63-2.45-2.86-3.58-4.39-1.2-1.63-1.92-3.58-2.1-5.6-.14-1.59-2.65-1.6-2.5,0,.33,3.64,1.92,6.43,4.33,9.1s3.36,6.06,5.45,8.9,4.62,5.34,6.36,8.43c.8,1.42,1.5,2.91,2.37,4.29.95,1.52,2.13,2.89,3.28,4.26s2.14,2.64,2.94,4.16,1.49,3.12,2.76,4.38c1,1,2.28,1.99,3.53,2.64s2.99.33,3.19-1.32c.18-1.51-.74-3.43-1.23-4.83-.59-1.68-1.33-3.28-2.16-4.85s-1.72-3.08-2.45-4.7c-.79-1.75-1.37-3.59-2.09-5.37s-1.51-3.35-2.6-4.86c-.6-.83-1.25-1.62-1.85-2.45-.24-.34-.45-.78-.73-1.09-.08-.43-.18-.52-.3-.25.25.06.48.16.69.31.8.52,1.4,1.47,1.99,2.2l2.14,2.65,4.28,5.29c1.01,1.25,2.77-.53,1.77-1.77h0Z"/><path class="cls-1" d="M252.06,171.42c3.45,5.26,7.7,10.2,12.73,14,2.05,1.55,5.1,3.64,7.83,2.94,2.87-.73,3.4-4.46,3.34-6.96-.04-1.57-.33-3.15-.72-4.67-.35-1.37-1.27-3.08-1.17-4.53s2.09-.34,2.91-.05c1.57.54,3.25.64,4.89.67,2.67.04,5.43-.33,6.22-3.32s-.16-6.56-.59-9.55c-.54-3.72-1.12-7.45-2.08-11.09-.47-1.81-1.29-3.66-1.4-5.54-.09-1.59.69-3.6,2.59-3.38,1.6.18,1.58-2.32,0-2.5-2.48-.28-4.54,1.87-4.98,4.18-.6,3.09,1.02,6.33,1.72,9.28.76,3.2,1.27,6.46,1.74,9.72.23,1.6.48,3.21.63,4.82.11,1.23.5,3.46-.57,4.4-.93.82-2.8.51-3.94.48-1.66-.06-3.08-.44-4.64-.97-2.37-.81-4.98-.01-5.01,2.86-.01,1.25.47,2.44.82,3.61.5,1.67.95,3.38,1.05,5.13.08,1.33.09,3.25-.72,4.41-.94,1.36-3.02.18-4.11-.41-2.96-1.62-5.49-4.08-7.81-6.5-2.45-2.56-4.65-5.33-6.59-8.29-.88-1.34-3.05-.09-2.16,1.26h0Z"/><path class="cls-1" d="M287.17,139.89c5.16-2.12,10.86-2.33,16.22-.86,2.57.7,5.31,1.71,7.33,3.5s3.1,4.13,3.79,6.63l.32-1.22c-.58.62-1.49.58-2.28.62-1.25.06-2.51.07-3.76.03-2.39-.06-4.78-.27-7.15-.65-4.44-.72-9.08-1.87-13.1-3.93-1.92-.99-3.53-2.38-5.3-3.59s-3.81-1.9-5.85-2.63c-3.51-1.25-6.91-3.02-9.83-5.34-3.32-2.64-6.04-6.01-7.47-10.03l-1.21,1.58c5.41-.38,8.89,4.75,11.61,8.67,1.43,2.06,2.77,4.24,3.53,6.64.35,1.1.89,2.6.35,3.71-.51,1.04-1.88,1.95-2.8,2.62-1.87,1.37-4,2.43-6.29,2.86-2.66.5-5.17-.18-7.6-1.24-4.89-2.13-9.65-4.62-14.26-7.31-2.62-1.53-5.19-3.13-7.71-4.82-2.14-1.43-4.53-3.02-5.52-5.51-.59-1.48-3.01-.83-2.41.66,1,2.52,2.85,4.29,5.01,5.86,2.55,1.85,5.25,3.51,7.96,5.13,5.37,3.21,10.97,6.24,16.77,8.61,2.72,1.11,5.51,1.58,8.42,1.02,2.76-.53,5.33-1.9,7.54-3.61s3.95-3.42,3.49-6.4-1.81-5.62-3.38-8.06c-3.26-5.1-7.85-11.82-14.72-11.34-.75.05-1.5.76-1.21,1.58,2.11,5.95,6.58,10.58,11.93,13.79,2.85,1.71,5.88,2.85,9,3.97,3.53,1.27,6.09,4.13,9.48,5.71,6.95,3.24,14.97,4.63,22.6,4.56,1.53-.01,3.35.11,4.77-.56.57-.27,1.3-.74,1.48-1.39.19-.73-.29-1.71-.54-2.38-1.17-3.15-3.13-5.84-6.03-7.59-6.95-4.19-16.38-4.77-23.84-1.71-1.47.6-.83,3.02.66,2.41h0Z"/><path class="cls-1" d="M217.33,134.23c1.82,3.58,3.46,7.24,4.91,10.99.24.63.84,1.06,1.54.87.6-.17,1.12-.9.87-1.54-1.52-3.95-3.24-7.82-5.16-11.59-.31-.6-1.15-.78-1.71-.45-.61.36-.76,1.11-.45,1.71h0Z"/><path class="cls-1" d="M197.99,129.24c-.14,3.85.45,7.53,1.44,11.24.5,1.88.86,3.71.97,5.65.1,1.78.23,3.54.61,5.29.77,3.52,2.22,6.85,2.87,10.39s.79,7.13,2.14,10.55c.84,2.12,2.59,6.92,5.57,6.34,1.3-.25,2.08-1.65,2.73-2.67.9-1.41,1.6-2.93,2.21-4.48,1.34-3.37,2.46-6.82,1.98-10.48s-1.32-7.68-2.41-11.36c-2.3-7.83-6-15.37-10.29-22.29-.85-1.36-3.01-.11-2.16,1.26,3.44,5.54,6.37,11.39,8.64,17.51,1.19,3.2,2.08,6.47,2.76,9.82s1.58,6.81.62,10.28c-.81,2.93-1.87,5.9-3.52,8.48-.21.34-.75,1.41-1.19,1.36-.38-.04-1.01-1.38-1.17-1.65-.81-1.39-1.46-2.86-1.94-4.4-.95-3.06-1.03-6.26-1.65-9.39s-1.81-6.02-2.58-9.07c-.9-3.59-.63-7.3-1.55-10.89-.98-3.84-1.74-7.49-1.59-11.49.06-1.61-2.44-1.61-2.5,0h0Z"/><path class="cls-1" d="M194.11,127.08c-1.51,3.76-2.9,7.58-2.74,11.7s.99,8.01,2.16,11.74c.59,1.88,1.46,3.62,2.13,5.46.71,1.96.72,3.87.51,5.92-.41,4.09-.72,8.28-1.46,12.32s-3.59,7.86-2.63,12.08c.36,1.57,2.77.9,2.41-.66-.42-1.83.25-3.6.91-5.29.71-1.8,1.36-3.55,1.71-5.46.68-3.75.95-7.59,1.37-11.38.21-1.9.45-3.79.2-5.7s-1.11-3.63-1.84-5.41c-1.45-3.51-2.22-7.32-2.74-11.07-.34-2.4-.36-4.79.2-7.17.52-2.21,1.37-4.33,2.21-6.43.6-1.49-1.82-2.14-2.41-.66h0Z"/><path class="cls-1" d="M191.65,124.73c-2.69,2.18-3.04,6.18-3.43,9.37-.49,4.04-.93,8.15-.94,12.23s.85,8.14,1.37,12.24.62,8.09.98,12.12c.42,4.65.97,9.28,1.63,13.9.23,1.59,2.64.91,2.41-.66-.72-5.04-1.29-10.1-1.71-15.18-.39-4.8-.65-9.56-1.43-14.32-.82-5.01-.83-9.86-.36-14.91.22-2.38.41-4.78.8-7.14.35-2.1.7-4.46,2.45-5.88,1.25-1.01-.53-2.77-1.77-1.77h0Z"/><path class="cls-1" d="M192.3,122.98c-3.76-.78-7.68-.61-11.32.64-1.81.62-3.54,1.47-5.11,2.56s-3.05,2.28-4.83,3.06-3.51,1.68-5.12,2.9-3,2.5-4.55,3.7c-3.25,2.49-6.65,4.57-9.32,7.74-2.82,3.34-4.94,7.16-7.02,10.98-.77,1.41,1.39,2.68,2.16,1.26,1.73-3.18,3.48-6.37,5.67-9.27,2.36-3.12,5.32-5.33,8.47-7.59,2.92-2.09,5.47-4.8,8.65-6.5,1.64-.88,3.37-1.45,4.92-2.51s2.93-2.17,4.57-3c3.74-1.88,8.09-2.41,12.18-1.56,1.57.33,2.24-2.08.66-2.41h0Z"/><path class="cls-1" d="M186.4,124.3c-1.35,3.45-3.06,6.75-5.07,9.85-2.14,3.29-4.68,6.19-7.31,9.09-5.36,5.92-9.79,12.6-14.9,18.72-1.49,1.78-3.38,3.07-5.24,4.44-1.99,1.47-3.98,2.94-5.98,4.41-1.28.95-.03,3.12,1.26,2.16,1.79-1.32,3.59-2.65,5.38-3.97,1.69-1.24,3.5-2.42,5.03-3.86,1.41-1.32,2.51-2.94,3.67-4.47,1.32-1.73,2.66-3.44,4-5.14,2.6-3.3,5.12-6.68,7.91-9.82s5.35-5.9,7.61-9.22c2.46-3.6,4.45-7.47,6.04-11.53.59-1.5-1.83-2.15-2.41-.66h0Z"/><path class="cls-1" d="M180.01,140.84c1.44.77,1.57,3.43,1.83,4.84.41,2.15.69,4.32.91,6.49.43,4.32.71,8.66.95,13s.37,8.82.09,13.22-.9,8.68-1.4,13.02c-.57,4.96-.97,9.94-.55,14.93.13,1.59,2.63,1.61,2.5,0-.77-9.22,1.28-18.3,1.92-27.46.33-4.73.19-9.47-.09-14.19s-.55-9.15-1.05-13.69c-.28-2.47-.63-4.94-1.15-7.37-.4-1.88-.86-3.95-2.7-4.93-1.42-.76-2.68,1.4-1.26,2.16h0Z"/><path class="cls-1" d="M176.92,141.83c.8,4.07.03,8.4-.36,12.48-.41,4.39-.85,8.78-1.38,13.16-1.05,8.65-2.2,17.23-2.77,25.93-.33,5-.82,9.94-1.96,14.83-.37,1.56,2.04,2.23,2.41.66,2.04-8.71,1.96-17.65,2.93-26.5s2.31-17.88,3.16-26.86c.45-4.73,1.3-9.65.38-14.37-.31-1.58-2.72-.91-2.41.66h0Z"/><path class="cls-1" d="M191.11,184.88c.98,5.79-.6,11.61-2.1,17.16-.42,1.56,1.99,2.22,2.41.66,1.62-6.04,3.16-12.21,2.1-18.49-.27-1.58-2.68-.91-2.41.66h0Z"/><path class="cls-1" d="M193.76,181.12c-.09,1.43-.41,2.82-.76,4.2-.37,1.49-.74,2.98-1.12,4.47-.16.65.21,1.36.87,1.54s1.37-.22,1.54-.87c.76-3.06,1.76-6.17,1.96-9.33.04-.67-.6-1.25-1.25-1.25-.71,0-1.21.57-1.25,1.25h0Z"/><path class="cls-1" d="M189.52,201.87c-2.61,2.82-3.4,6.71-5.81,9.65-1.33,1.61-3,2.91-4.66,4.16s-3.24,2.46-5.05,3.39-3.95,1.54-5.94,2.21c-2.2.74-4.41,1.6-6.68,2.09-2.14.47-4.35.51-6.5.94-2.32.46-4.66,1.36-7.06,1.01-1.57-.23-2.25,2.17-.66,2.41,2.42.36,4.67-.15,7.02-.7s4.62-.67,6.94-1.07c2.46-.42,4.81-1.33,7.17-2.12,2.07-.7,4.19-1.33,6.18-2.23s3.76-2.21,5.51-3.52,3.49-2.59,4.96-4.18c2.79-3.02,3.59-7.27,6.35-10.26,1.09-1.18-.67-2.95-1.77-1.77h0Z"/><path class="cls-1" d="M165.23,160.44c1.15,3.98.59,8.37.47,12.45-.06,2.11-.1,4.22-.33,6.31s-.62,4.16-.95,6.24c-1.3,8.41-1.37,17.02-1.8,25.51-.22,4.25-.7,8.67,1.26,12.61.71,1.44,2.87.18,2.16-1.26-1.71-3.46-1.11-7.63-.92-11.34.22-4.25.43-8.49.65-12.74s.47-8.41,1.13-12.58,1.15-8.1,1.27-12.25c.13-4.47.71-9.25-.55-13.61-.44-1.54-2.86-.89-2.41.66h0Z"/><path class="cls-1" d="M170.55,209.1c-.21,2.24-1.32,4.29-2.47,6.18-1.26,2.07-2.59,4.06-3.49,6.32-.25.63.27,1.37.87,1.54.71.2,1.29-.24,1.54-.87.9-2.25,2.37-4.23,3.59-6.31s2.23-4.38,2.46-6.86c.06-.67-.62-1.25-1.25-1.25-.73,0-1.19.57-1.25,1.25h0Z"/><path class="cls-1" d="M181.61,206.67c.16,1.78.45,3.56.87,5.3.15.64.91,1.08,1.54.87.66-.21,1.04-.86.87-1.54-.2-.8-.36-1.61-.5-2.42-.03-.21-.07-.41-.1-.62-.01-.1-.03-.19-.04-.29-.04-.27.03.24,0-.05-.05-.42-.1-.83-.14-1.25-.03-.34-.12-.64-.37-.88-.22-.22-.57-.38-.88-.37-.63.03-1.31.55-1.25,1.25h0Z"/><path class="cls-1" d="M165.37,159.19c-2.44,2.42-3.48,5.67-4.61,8.82-1.34,3.75-3.08,7.33-4.96,10.83-3.9,7.26-8.14,14.35-12.31,21.46-1.71,2.91-3.35,6.18-5.94,8.43-.59.51-1.26.96-1.98,1.28-.32.14-.71.31-1.06.35-.68.07-.82-.34-1.05-.88-.75-1.71-.99-3.61-.91-5.47.16-3.79,1.77-7.33,3.59-10.59s3.97-6.22,4.34-9.89c.16-1.61-.02-3.57-1.32-4.7-1.39-1.2-3.21-.69-4.55.3-3.55,2.61-6.73,5.95-9.79,9.1-1.12,1.15.64,2.92,1.77,1.77,2.79-2.87,5.69-5.64,8.73-8.23.46-.4,1.51-1.47,2.2-1.07.59.34.53,1.67.51,2.21-.07,1.89-.89,3.67-1.78,5.31-3.43,6.33-7.77,12.94-5.7,20.5.38,1.37.97,3.27,2.37,3.94s3.13-.04,4.39-.72c2.8-1.52,4.68-4.31,6.3-6.96,4.31-7.03,8.37-14.22,12.42-21.4,2.15-3.81,4.2-7.67,5.89-11.71,1.52-3.64,2.32-8.04,5.21-10.9,1.14-1.13-.62-2.9-1.77-1.77h0Z"/><path class="cls-1" d="M144.96,154.41c-.74,1.95-.99,4.05-1.29,6.11-.33,2.28-.62,4.58-.51,6.88.08,1.81.25,3.96,1.6,5.32,1.17,1.18,3.36,1.39,4.49.03,1.02-1.23-.74-3.01-1.77-1.77-.73.89-1.42-.8-1.55-1.33-.37-1.59-.33-3.31-.23-4.94s.36-3.36.62-5.03c.24-1.56.5-3.12,1.06-4.6s-1.84-2.16-2.41-.66h0Z"/><path class="cls-1" d="M99.36,177.59c-1.17,2.38-2.35,4.8-2.98,7.39s-.5,5.39-.01,8.12,1.14,5.68,1.71,8.51c.49,2.4.67,4.58,2.87,6,2.38,1.53,4.89,3.04,7.4,4.35,2.37,1.24,5.06,1.31,7.29,2.84,4.6,3.15,8.7,7.13,13.53,9.94,5.32,3.1,11.49,2.83,17.41,2.37,1.59-.12,1.61-2.63,0-2.5-4.81.38-10.06.84-14.59-1.21-2.24-1.01-4.19-2.56-6.14-4.04-2.15-1.62-4.3-3.25-6.45-4.87-1.87-1.41-3.69-2.92-6.01-3.5-1.16-.29-2.3-.47-3.39-1-1.25-.61-2.43-1.37-3.62-2.08s-2.29-1.35-3.43-2.03c-1.02-.6-1.63-1.03-1.91-2.23-.6-2.62-1.07-5.27-1.6-7.91-.58-2.88-1.34-5.84-.91-8.79s1.72-5.53,2.99-8.1c.71-1.44-1.45-2.71-2.16-1.26h0Z"/><path class="cls-1" d="M144.27,152.59c-9.76,7.6-19.65,15.3-27.45,25-3.69,4.59-6.93,9.59-8.95,15.15-.9,2.48-2.1,5.71-1.59,8.39.49,2.53,2.99,3.71,5.38,3.27,3.11-.56,5.34-3.72,7.39-5.85,2.72-2.83,5.46-5.63,8.27-8.37,1.15-1.13-.62-2.89-1.77-1.77-2.22,2.17-4.4,4.38-6.57,6.61-1.92,1.98-3.74,4.33-5.94,6.01-.87.66-1.94,1.18-3.06.9-1.37-.35-1.41-1.68-1.24-2.87.37-2.63,1.29-5.29,2.35-7.71,4.39-9.99,12.36-18.16,20.45-25.26,4.67-4.1,9.58-7.92,14.48-11.73,1.27-.99-.51-2.74-1.77-1.77h0Z"/><path class="cls-1" d="M188.69,109.86c-3.7.14-7.16,1.29-10.53,2.76s-6.95,3.27-10.39,4.95c-6.96,3.4-13.86,6.97-20.39,11.15-12.75,8.16-23.56,18.82-33.97,29.72-5.33,5.58-11.56,11.24-13.8,18.88-.45,1.55,1.96,2.21,2.41.66,1.95-6.65,7.28-11.6,11.92-16.47,5.03-5.28,10.1-10.52,15.45-15.48s10.91-9.57,16.92-13.63c6.17-4.16,12.73-7.7,19.39-11.03,3.73-1.87,7.49-3.68,11.27-5.47s7.57-3.39,11.74-3.55c1.6-.06,1.61-2.56,0-2.5h0Z"/><path class="cls-1" d="M186.91,109.65c-3.93.8-7.95.32-11.93.46-3.41.12-6.81.6-10.13,1.38-6.7,1.57-13.11,4.39-19,7.94-6.49,3.91-12.18,8.89-18.23,13.41-2.8,2.09-5.92,3.89-8.45,6.32s-4.67,5.63-6.75,8.57c-4.5,6.36-10.26,13.54-10.27,21.72,0,1.61,2.5,1.61,2.5,0,.01-7.09,4.96-13.34,8.83-18.89,2.05-2.95,4.08-6.02,6.52-8.67s5.35-4.3,8.12-6.33c5.87-4.31,11.34-9.16,17.51-13.06,5.64-3.57,11.74-6.45,18.21-8.18,3.64-.97,7.36-1.58,11.13-1.71,4.22-.15,8.42.31,12.59-.55,1.58-.32.91-2.73-.66-2.41h0Z"/><path class="cls-1" d="M41.49,109.69c2.32,5.77,5.1,11.33,8.39,16.61s7.43,9.96,10.1,15.61c1.19,2.53,2.78,4.54,4.96,6.29s4.39,3.14,6.3,5.07c2.1,2.13,3.85,4.58,6.22,6.44s5.09,3.05,7.74,4.41c3.17,1.63,6.13,3.57,9.01,5.66,2.58,1.87,5.49,3.62,8.8,2.8,1.56-.39.9-2.8-.66-2.41-2.82.7-5.41-1.48-7.54-3.04-2.46-1.79-5.03-3.42-7.72-4.84-2.48-1.31-5.11-2.4-7.42-4.03s-4.11-4.03-6.07-6.14c-3.54-3.8-8.68-5.91-11.09-10.71-1.33-2.65-2.59-5.17-4.35-7.58s-3.45-4.67-5.04-7.1c-3.64-5.58-6.74-11.52-9.22-17.7-.59-1.47-3.01-.83-2.41.66h0Z"/><path class="cls-1" d="M90.39,135.64c-.11,4.18.08,8.88,3.29,12,2.66,2.59,7.31,3.09,9.84.02,1.18-1.44,2.13-3.71,1.6-5.57-.45-1.56-1.99-2.43-3.48-2.76-2.93-.65-7.27-.26-8.81,2.73-2,3.88,2.01,7.3,5.63,7.42,4.35.14,8.11-3.04,11.43-5.45,3.8-2.77,7.52-5.67,11.14-8.67s7.05-6.29,10.7-9.28c4.24-3.48,9.04-6.32,13.63-9.32,2.16-1.41,4.31-2.54,6.81-3.21s4.99-1.1,7.38-2.04c1.48-.58.84-3-.66-2.41-3.41,1.34-7.11,1.66-10.48,3.09s-6.34,3.75-9.36,5.74c-3.22,2.12-6.46,4.21-9.44,6.68s-5.55,4.93-8.38,7.33c-3.01,2.56-6.08,5.04-9.22,7.43-2.86,2.17-5.74,4.51-8.88,6.26-1.47.82-3.15,1.5-4.87,1.36-1.57-.13-3.45-1.12-3.41-2.93.06-2.84,5.08-2.84,6.91-2.07s.74,3.13-.25,4.23c-1.27,1.38-3.37,1.38-4.94.52-3.81-2.09-3.76-7.34-3.67-11.07.04-1.61-2.46-1.61-2.5,0h0Z"/><path class="cls-1" d="M95.55,113.05c.81.53,1.55,1.19,2.1,2,.33.49.33.69.09,1.22-.19.43-.45.85-.7,1.24-.99,1.58-2.3,2.98-3.84,4.04-2.48,1.71-8,4.94-10.19,1.21-.88-1.49-.32-3.31,1.1-4.2.71-.44,1.5-.77,2.23-1.16.94-.5,1.86-1.05,2.86-1.42,3.32-1.21,7.08.96,7.23,4.62.09,2.38-.93,4.76-1.96,6.85-1.09,2.2-2.31,4.35-3.48,6.51-.77,1.41,1.39,2.68,2.16,1.26,1.4-2.59,2.91-5.15,4.1-7.84,1.12-2.52,2.06-5.33,1.54-8.12-.9-4.81-6.23-7.29-10.61-5.56-1.26.5-2.41,1.19-3.61,1.8-1.07.54-2.19,1.02-3.02,1.92-1.55,1.66-1.86,4.29-.84,6.3s3.43,3.37,5.73,3.24c2.65-.14,5.53-1.64,7.71-3.06,2.32-1.52,4.28-3.62,5.59-6.08.72-1.36,1.02-2.51.18-3.91-.76-1.25-1.89-2.26-3.1-3.05-1.35-.88-2.6,1.28-1.26,2.16h0Z"/><path class="cls-1" d="M187.2,109.03c-4.68-1.58-9.67-2.25-14.6-1.86s-9.91,1.86-14.87,2.75c-1.58.28-.91,2.69.66,2.41,4.74-.85,9.39-2.29,14.21-2.66s9.44.26,13.94,1.77c1.53.52,2.18-1.9.66-2.41h0Z"/><path class="cls-1" d="M188.37,104.51c-3.93-2.2-8.14-3.8-12.37-5.31-4.5-1.6-9-3.19-13.52-4.72-8.88-2.99-17.87-5.65-27.08-7.41-5.21-.99-10.46-1.73-15.74-2.22-1.6-.15-1.59,2.35,0,2.5,9.08.85,18.06,2.48,26.86,4.84s17.81,5.52,26.6,8.63c4.77,1.69,9.56,3.36,13.99,5.84,1.41.79,2.67-1.37,1.26-2.16h0Z"/><path class="cls-1" d="M97.9,93.45c5.54-1.55,11.18-1.33,16.66.35,2.7.83,5.24,1.22,8.07,1.25s5.82.18,8.72.48c11.52,1.21,22.89,4.16,34.2,6.56,6.59,1.39,13.19,2.79,19.78,4.18,1.57.33,2.24-2.08.66-2.41-11.7-2.48-23.41-4.95-35.11-7.43-5.76-1.22-11.52-2.41-17.36-3.15-2.98-.38-5.97-.63-8.97-.71s-5.64-.07-8.46-.92c-6.26-1.89-12.48-2.4-18.85-.62-1.55.43-.89,2.84.66,2.41h0Z"/><path class="cls-1" d="M43.78,108.98c-1.03-3.04-1.92-6.13-2.61-9.26-.31-1.38-.53-2.47.61-3.48,1.06-.94,2.35-1.7,3.57-2.4,5.04-2.88,10.83-4.72,16.38-6.35,6.03-1.78,12.43-1.84,18.66-2.31s12.76-.98,19.16-1.11c7-.13,13.68.51,20.26,3.05,1.5.58,2.15-1.84.66-2.41-12.59-4.86-26.46-3.07-39.59-2.07-6.6.5-13.42.56-19.81,2.44-5.95,1.75-12.19,3.74-17.54,6.93-2.61,1.56-5.51,3.3-5.08,6.74.46,3.68,1.73,7.39,2.92,10.89.51,1.52,2.93.86,2.41-.66h0Z"/><path class="cls-1" d="M97.45,110.9c-2.94-3.14-7.52-2.81-11.42-2.28-5.27.72-10.44,1.94-15.61,3.17s-10.41,2.49-15.72,3.2c-1.31.17-2.63.31-3.95.41-.19.01-1.54.1-1.52.14-.06-.16.63-.87.85-1.06.91-.78,2.07-1.31,3.12-1.88,1.18-.64,2.38-1.27,3.58-1.87,3.43-1.72,10.32-3.64,9.42-8.78-.34-1.93-2.01-3.33-3.86-3.77-2.48-.59-4.97.39-7.3,1.14-1.25.4-2.51.81-3.76,1.21s-2.65.96-4.02,1.09c-2.13.19-4.66-1.7-2.3-3.51,1.85-1.43,4.63-1.85,6.87-2.25,2.74-.48,5.52-.71,8.29-.92,12.67-.94,25.38-1.51,38.06-2.25,1.6-.09,1.61-2.59,0-2.5-11.78.69-23.56,1.33-35.33,2.07-5.51.35-11.41.55-16.65,2.45-1.83.66-3.89,1.78-4.54,3.76s.45,4.03,2.25,5c2.34,1.27,5.01.44,7.37-.31,2.58-.83,5.17-1.84,7.81-2.44,1.17-.27,2.48-.37,3.55.27,1.16.69,1.38,1.88.7,3.02-1.24,2.09-4.49,2.93-6.56,3.94-2.46,1.2-5.01,2.4-7.31,3.9-1.52.99-3.46,2.9-2.46,4.91.46.92,1.39,1.23,2.36,1.24,1.45.02,2.95-.2,4.39-.37,2.66-.32,5.31-.76,7.93-1.29,6.13-1.23,12.17-2.88,18.29-4.13,2.93-.6,5.91-1.19,8.9-1.38,2.41-.15,5.03,0,6.78,1.86,1.1,1.18,2.87-.6,1.77-1.77h0Z"/><path class="cls-1" d="M183.49,83.73c-9.36-3.68-18.46-7.97-27.25-12.86-4.34-2.41-8.6-4.97-12.77-7.66-2.04-1.32-4.32-2.57-6.16-4.17-.75-.65-1.25-1.53-.33-2.29.64-.53,1.29-.37,1.8.23,1.81,2.13,1.33,6.41,4.86,6.89,1.57.21,2.25-2.19.66-2.41-1.41-.19-1.72-1.94-2.12-3.08-.51-1.45-1.12-3.03-2.48-3.89-1.7-1.09-3.86-.5-5.02,1.09-1.46,2.01-.46,4.21,1.31,5.59,4.34,3.39,9.28,6.22,14.02,9.01,5,2.95,10.12,5.71,15.33,8.26,5.72,2.81,11.56,5.37,17.49,7.7,1.5.59,2.15-1.83.66-2.41h0Z"/></svg>