<?xml version="1.0" encoding="UTF-8"?><svg id="Layer_1" xmlns="http://www.w3.org/2000/svg" width="168.75mm" height="126.02mm" viewBox="0 0 478.36 357.22"><defs><style>.cls-1{fill:#e6eda7;stroke-width:0px;}</style></defs><path class="cls-1" d="M162.84,83.61c5.76-5.5,8.4-13.1,11.77-20.11,3.53-7.36,8.76-13.87,11.6-21.57.79-2.14,1.28-4.31,1.61-6.56.26-1.77.46-4.08,2.06-5.2l-1.51-.2c2.29,2.37-1.33,7.04-2.52,9.13-2.13,3.75-4.26,7.5-6.4,11.25-4.26,7.5-8.53,15-12.79,22.5-.8,1.4,1.36,2.66,2.16,1.26,4.67-8.22,9.35-16.44,14.02-24.66,2.3-4.04,4.63-8.06,6.89-12.12,1.54-2.76,2.94-6.51.41-9.13-.36-.37-1.07-.5-1.51-.2-3.11,2.16-2.93,6-3.66,9.33-.9,4.14-2.8,7.94-4.91,11.58s-4.39,7.11-6.34,10.81-3.42,7.36-5.17,11.02c-1.94,4.05-4.19,7.95-7.46,11.08-1.17,1.11.6,2.88,1.77,1.77h0Z"/><path class="cls-1" d="M162.42,84.48c.23-1.69-.47-3.45-1.83-4.47-.65-.49-1.48-.74-2.29-.76-.4-.01-.82.04-1.2.16-.49.16-.87.39-1.27.71-.23.18-.37.6-.37.88,0,.31.14.67.37.88s.55.38.88.37c.35-.02.61-.15.88-.37-.02.02-.24.17-.1.08.04-.03.09-.06.13-.08.04-.02.07-.04.11-.06.1-.05.22-.05-.1.04.18-.05.36-.11.55-.14l-.33.04c.25-.03.51-.03.76,0l-.33-.04c.16.02.32.06.47.11.07.02.14.06.21.08-.37-.11-.11-.05,0,.01.06.03.11.06.17.1.04.02.07.05.11.07.1.08.07.05-.1-.08.1.12.23.21.33.32.03.03.06.07.09.1-.12-.16-.15-.2-.09-.12.04.06.09.13.13.19.08.13.14.28.22.41-.08-.2-.1-.23-.05-.11.02.04.03.08.05.13.02.06.04.13.06.19.05.17.08.35.11.53l-.04-.33c.05.38.05.77,0,1.15-.04.29.17.69.37.88.22.22.57.38.88.37s.66-.12.88-.37c.24-.26.32-.54.37-.88h0Z"/><path class="cls-1" d="M155.67,80.84c-1.38,4.13-5.73,7.09-5.35,11.83.08,1.04.44,2.07,1.31,2.7.94.68,2.15.65,3.21.28,2.02-.71,4.18-2.2,4.26-4.55.04-1.22-.64-2.49-1.88-2.8-.65-.16-1.34-.05-2,0-.7.05-1.4.1-2.1.15s-1.25.54-1.25,1.25c0,.64.57,1.3,1.25,1.25.58-.04,1.16-.08,1.73-.12.49-.03,1.17.04,1.64-.1.15-.05.12.05.05-.06.07.11.07.32.06.44-.02.34-.22.67-.44.92-.57.65-1.55,1.15-2.38,1.35-.68.17-.89-.12-.96-.79-.2-2,1.02-3.92,2.09-5.5,1.21-1.79,2.49-3.5,3.18-5.57.51-1.53-1.9-2.19-2.41-.66h0Z"/><path class="cls-1" d="M159.96,90.14c.28-.62.56-1.25.92-1.84.15-.25.34-.53.49-.69.2-.22.42-.44.57-.54.13-.09.27-.17.41-.24.19-.1.11-.07.26-.11.13-.03.26-.08.39-.1-.18.03.04,0,.06,0,.09,0,.18,0,.26,0-.18,0,.2.05.26.07.07.02.15.05.29.14.25.15.41.29.64.53.77.81,1.14,1.9,1.06,3.03,0,.03-.05.23,0,.06-.01.06-.03.13-.04.19s-.03.13-.06.19c.02-.05.09-.16-.03.05,0,0-.09.18-.05.08.04-.08-.06.05-.07.06.15-.11,0,.01-.04.03-.07.04-.14.08-.21.12.19-.08-.17.04-.23.05-.06.01-.42.07-.23.05-.31.03-.62.04-.94.04-1.83.03-3.65-.02-5.47-.13-.67-.04-1.25.61-1.25,1.25,0,.71.57,1.21,1.25,1.25,1.94.12,3.89.19,5.83.12.84-.03,1.72-.13,2.46-.57.82-.48,1.35-1.33,1.51-2.26.57-3.41-2.44-8.09-6.31-6.59-2.02.78-3.05,2.6-3.89,4.48-.28.62-.18,1.34.45,1.71.53.31,1.43.17,1.71-.45h0Z"/><path class="cls-1" d="M156.12,94.34c-2.03,4.07-2.26,8.23-1.65,12.67s1.22,8.88,2.91,12.99c1.47,3.59,3.77,6.82,6.75,9.33,1.24,1.04,3.04,2.78,4.81,2.48s2.98-2.6,3.77-3.96c4.46-7.61,3.25-16.99,1.14-25.13-.85-3.27-2.27-6.97-5.41-8.69-2.81-1.54-6.68-.64-6.94,2.96-.36,4.93,1.49,10.07,2.75,14.76,1.36,5.04,2.47,10.32,1.04,15.47-.43,1.55,1.98,2.21,2.41.66,2.08-7.48-.65-14.87-2.46-22.09-.47-1.88-.89-3.79-1.1-5.72-.13-1.21-.77-3.88.89-4.25,2.86-.63,4.84,2.91,5.64,5.07,1.27,3.43,1.98,7.26,2.36,10.88s.29,7.27-.75,10.77c-.48,1.61-1.16,3.15-2.06,4.56-.33.52-.96,1.79-1.54,2.03-.7.29-1.58-.63-2.1-1.02-2.72-2.07-4.92-4.81-6.4-7.89-1.77-3.69-2.4-7.83-3.01-11.84-.68-4.44-.98-8.66,1.09-12.79.72-1.43-1.44-2.7-2.16-1.26h0Z"/><path class="cls-1" d="M215.91,52.79c-3.76,1.35-7.25,3.25-10.39,5.71-1.64,1.29-3.13,2.75-4.68,4.15-1.63,1.48-3.41,2.72-5.15,4.05-3.2,2.46-5.24,5.89-7.92,8.84s-5.92,5.77-8.79,8.75c-3.39,3.52-6.06,7.53-8.65,11.65-.86,1.37,1.3,2.62,2.16,1.26,2.24-3.56,4.5-7.09,7.36-10.2,2.66-2.88,5.61-5.47,8.34-8.28,1.36-1.4,2.64-2.86,3.83-4.4s2.38-3.19,3.84-4.54,3.15-2.39,4.69-3.61,3.04-2.69,4.54-4.05c3.36-3.03,7.21-5.4,11.47-6.93,1.5-.54.86-2.96-.66-2.41h0Z"/><path class="cls-1" d="M176.9,104.11c2.13-5.65,6.43-10.06,10.63-14.24,4.8-4.79,9.68-9.51,14.63-14.16s9.61-9.38,14.92-13.37,11.04-5.94,17.02-7.97c6.95-2.37,13.5-5.31,20.04-8.63,1.43-.73.17-2.89-1.26-2.16-6.07,3.09-12.16,5.89-18.61,8.1-5.99,2.05-12.11,4.05-17.34,7.71s-10.26,8.69-15.12,13.24-10.08,9.57-15.01,14.46-9.83,9.82-12.3,16.37c-.57,1.51,1.85,2.16,2.41.66h0Z"/><path class="cls-1" d="M217.79,54.91c13.98-8.64,28.59-16.38,43.74-22.75,4.36-1.83,8.77-3.51,13.26-4.99,1.52-.5.87-2.91-.66-2.41-15.76,5.18-30.87,12.64-45.31,20.75-4.15,2.33-8.24,4.75-12.29,7.25-1.37.84-.11,3.01,1.26,2.16h0Z"/><path class="cls-1" d="M255.12,45.32c4.91-3.46,9.92-6.82,15.25-9.61,2.69-1.41,5.46-2.67,8.32-3.7.83-.3,3.07-1.31,3.9-.64.08.07-.44.9-.63,1.19-.39.59-.85,1.14-1.29,1.7-1.33,1.67-2.76,3.57-2.58,5.84.24,3,3.3,3.14,5.67,2.86,1.54-.19,3.05-.58,4.6-.78,1.21-.15,2.86-.49,4.04-.11.81.26.2.93-.12,1.46-.38.63-.78,1.24-1.2,1.84-.8,1.14-1.78,2.18-2.51,3.36-1.3,2.12-1.09,4.57.81,6.24.78.69,1.71,1.18,2.68,1.53.73.26,3.7.58,3.53,1.79-.12.84-2.07,1.09-2.69,1.26-1.66.45-3.33.9-4.99,1.35-3.09.84-6.18,1.67-9.28,2.51-1.59.43-3.17.86-4.76,1.29-1.22.33-2.85.49-3.78,1.43-.75.75-.8,1.96.03,2.67.93.8,2.49.89,3.66.82,1.45-.09,2.88-.42,4.32-.6,1.67-.21,3.35-.33,5.03-.38,3.25-.1,6.51.08,9.73.59.71.11,1.46.17,2.15.4,1.1.36.86.73-.04,1.07-1.55.59-3.21.98-4.82,1.37-3.25.8-6.54,1.43-9.77,2.31-1.6.44-3.21.93-4.75,1.56-1.09.45-1.77,1.51-1.08,2.65s2.54,1.75,3.74,2.26c1.59.67,3.22,1.17,4.9,1.53,1.57.34,2.24-2.07.66-2.41-1.43-.31-2.83-.71-4.19-1.24-.71-.28-1.41-.6-2.09-.96.04.02-.74-.43-.77-.42-.32.8-.21,1.02.35.67.28-.11.57-.21.86-.31,2.88-.99,5.85-1.65,8.81-2.32s5.97-1.27,8.83-2.29c.98-.35,1.99-.81,2.49-1.78.62-1.19.11-2.56-.88-3.36-.91-.73-2.12-.89-3.24-1.07-1.69-.28-3.39-.49-5.1-.62-3.19-.24-6.41-.2-9.6.12-1.52.15-3.02.41-4.53.62-.83.12-1.55.07-2.37.07l-.42-.1.18.78c.17.12,1.42-.39,1.66-.45,3.25-.88,6.5-1.76,9.75-2.64s6.34-1.72,9.51-2.57c2.04-.55,5.13-1.23,4.99-3.96-.15-2.94-3.23-3.22-5.35-4.03-.99-.38-2.25-1.09-2.5-2.22-.29-1.34,1.03-2.62,1.78-3.57.88-1.12,1.7-2.29,2.43-3.51.67-1.12,1.26-2.36.64-3.63-1.12-2.3-4.7-1.73-6.72-1.48-1.42.17-2.81.49-4.23.72-.82.13-1.65.22-2.48.16-.95-.07-1.18-.4-1.03-1.29.38-2.27,2.64-3.96,3.78-5.87.66-1.11,1.21-2.53.22-3.63-.91-1.01-2.53-1.08-3.77-.91-3.19.42-6.45,2.13-9.33,3.51-6.23,3-12.01,6.84-17.65,10.82-1.31.92-.06,3.09,1.26,2.16h0Z"/><path class="cls-1" d="M175.37,105.76c3.38-.05,6.78,1.1,10.08,1.73s6.74,1.2,10.12,1.76c6.67,1.1,13.34,2.23,19.87,4.01,1.55.42,2.22-1.99.66-2.41-6.68-1.83-13.52-2.96-20.34-4.09-3.38-.56-6.76-1.12-10.12-1.77s-6.81-1.78-10.28-1.73c-1.61.02-1.61,2.52,0,2.5h0Z"/><path class="cls-1" d="M176.18,111.59c2.15-.53,4.29-.5,6.44,0s4.27,1.3,6.47,1.7,4.2.4,6.31.57c2.27.19,4.35.86,6.48,1.62,4.12,1.47,8.23,1.79,12.56,2.09,4.65.32,9.3.58,13.96.78,2.47.1,4.92.19,7.33-.44s4.67-1.81,7.1-1.42c1.57.25,2.25-2.16.66-2.41-2.05-.33-3.95.05-5.91.66-2.19.68-4.23,1.22-6.55,1.2-4.79-.03-9.61-.41-14.39-.72s-9.12-.4-13.46-1.92c-2.08-.73-4.11-1.48-6.3-1.78s-4.62-.22-6.9-.61c-2.43-.41-4.73-1.33-7.14-1.84s-4.89-.5-7.32.11c-1.56.39-.9,2.8.66,2.41h0Z"/><path class="cls-1" d="M216.02,113.77c5.08.64,10.16,1.31,15.25,1.93s9.87.95,14.79.06c1.58-.29.91-2.7-.66-2.41-4.84.88-9.77.38-14.61-.21s-9.85-1.24-14.77-1.87c-1.59-.2-1.58,2.3,0,2.5h0Z"/><path class="cls-1" d="M174.55,111.97c1.27,1.79,2.94,3.09,4.7,4.35,1.98,1.42,3.89,2.91,5.72,4.52,3.71,3.27,7.12,6.86,10.53,10.44,1.11,1.17,2.88-.6,1.77-1.77-3.32-3.49-6.64-6.99-10.24-10.19-1.73-1.54-3.54-3.01-5.41-4.38-1.74-1.27-3.64-2.46-4.91-4.24-.92-1.3-3.09-.05-2.16,1.26h0Z"/><path class="cls-1" d="M175.24,114.17c1.75,3.22,3.07,6.63,3.94,10.19.42,1.72.73,3.46.92,5.22s.3,3.67,1.02,5.38c.26.63.82,1.06,1.54.87.59-.16,1.13-.92.87-1.54-.73-1.75-.79-3.61-1.02-5.47s-.55-3.69-1.01-5.5c-.91-3.63-2.31-7.13-4.1-10.42-.77-1.41-2.93-.15-2.16,1.26h0Z"/><path class="cls-1" d="M177.72,116.08c1.77,2.37,2.63,5.16,3.48,7.96,1,3.3,2,6.59,3,9.89.47,1.54,2.88.88,2.41-.66-1.03-3.4-2.06-6.81-3.1-10.21-.87-2.88-1.81-5.8-3.64-8.23-.41-.54-1.08-.81-1.71-.45-.54.31-.85,1.17-.45,1.71h0Z"/><path class="cls-1" d="M205.79,87.26c-5.25,3.14-10.49,6.32-15.77,9.43-2.31,1.36-4.67,2.37-7.19,3.27-2.37.84-4.64,1.78-6.61,3.37-1.25,1.01.53,2.77,1.77,1.77,1.94-1.56,4.35-2.31,6.66-3.14,2.47-.88,4.76-2,7.01-3.34,5.14-3.05,10.26-6.14,15.39-9.2,1.38-.83.12-2.99-1.26-2.16h0Z"/><path class="cls-1" d="M207.74,88.92c2.95-1.09,5.34-3,7.82-4.88,2.6-1.98,5.35-3.75,8.18-5.39,5.8-3.37,11.86-6.7,18.28-8.72,3.1-.97,6.26-1.7,9.44-2.38s6.3-1.57,9.44-.57c2.51.8,4.68,2.71,5.32,5.33s-.25,5.59-2.71,6.77c-3.37,1.61-6.17-2.2-6.07-5.25.11-3.28,3.03-5.59,6.2-5.45,1.61.07,1.61-2.43,0-2.5-3.14-.14-6.31,1.56-7.78,4.38s-1.14,6.39.8,8.91c2.18,2.82,6.01,3.69,8.97,1.53,2.56-1.86,3.6-5.11,3.15-8.18s-2.6-5.79-5.41-7.2c-3.33-1.67-6.77-1.4-10.31-.66-4,.84-8.02,1.69-11.92,2.94s-7.57,2.98-11.19,4.85c-4.07,2.1-8.11,4.28-11.94,6.81-3.58,2.37-6.85,5.76-10.93,7.26-1.5.55-.85,2.97.66,2.41h0Z"/><path class="cls-1" d="M259.79,80.05c-3.84,1.97-8.47,2.46-12.65,3.34-4.73.99-9.53,2.13-14.39,1.73-2.29-.19-4.53-.75-6.83-.84s-4.37.3-6.48.82c-3.77.94-7.83,1.94-9.78,5.65-1.84,3.5-1.3,7.73.88,10.96,2.28,3.39,5.88,5.38,9.84,6.12,4.55.86,9.18.48,13.75.03s8.85-.86,13.14-2.01c2.42-.65,4.67-1.67,7-2.56,2.47-.94,4.92-1.27,7.56-1.29,5.12-.03,10.25.21,15.25-1.13,1.55-.42.89-2.83-.66-2.41-4.15,1.12-8.44,1.07-12.7,1.05-2.07-.01-4.14-.02-6.2.29s-3.89,1.06-5.76,1.83c-3.9,1.61-7.89,2.58-12.07,3.12s-8.52,1.05-12.78,1.1-8.59-.36-11.89-2.95c-2.93-2.3-4.85-6.28-3.58-9.98,1.36-3.94,5.75-4.75,9.35-5.57,2.1-.48,4.18-.7,6.33-.48s4.23.69,6.38.8c4.83.25,9.63-.88,14.33-1.87,4.43-.93,9.18-1.5,13.24-3.59,1.43-.74.17-2.89-1.26-2.16h0Z"/><path class="cls-1" d="M283.13,81.38c.07.17.78,1.95.79,1.95l.07-.59c-.16.06-.31.12-.47.18-.26.1-.52.2-.79.3-1.12.43-2.28.81-3.37,1.31-2.02.92-3.19,3.46-1.13,5.05.8.62,2.02.66,2.68,1.41.61.69,1.19,1.91.89,2.82-.33.99-1.33,1.78-2.13,2.38-.97.74-2.03,1.36-3.08,1.99-1.38.82-.13,2.98,1.26,2.16,2.08-1.24,4.45-2.57,5.79-4.66s.62-4.97-1.14-6.64c-.45-.43-.95-.69-1.53-.91-.22-.08-1.26-.32-1.33-.63-.15-.68,2.2-1.28,2.65-1.45.63-.24,1.26-.48,1.89-.72.57-.22,1.24-.39,1.69-.82,1.12-1.08.15-2.64-.33-3.79-.26-.63-.83-1.06-1.54-.87-.59.16-1.13.91-.87,1.54h0Z"/><path class="cls-1" d="M274.71,27.32c2.98-.83,5.96-1.63,8.96-2.36,2.85-.69,5.89-1.39,8.82-.75,2.53.55,4.68,2.03,5.54,4.55.91,2.67.18,5.16-.26,7.83-.22,1.35-.13,2.6.03,3.95.18,1.54.19,3.07.19,4.62,0,2.94.23,5.86.76,8.75s1.54,5.71,2.17,8.61c.59,2.73.53,5.45-.08,8.16-1.33,5.86-4.42,11.15-5.72,17.02-.35,1.57,2.06,2.24,2.41.66,1.25-5.61,4.11-10.67,5.53-16.22.71-2.77,1-5.62.6-8.46-.45-3.16-1.6-6.16-2.26-9.28s-.9-6.43-.9-9.71c0-1.55-.07-3.07-.25-4.6-.21-1.71,0-3.17.36-4.84,1.12-5.3-.37-10.83-5.79-12.94-3.1-1.21-6.51-.89-9.7-.23-3.73.77-7.41,1.81-11.07,2.84-1.55.43-.89,2.85.66,2.41h0Z"/><path class="cls-1" d="M294.84,89.18c-1.16,3.87-3.27,7.3-5.39,10.7s-4.49,6.44-7.94,8.77c-3.25,2.18-6.72,4.5-10.7,4.86-4.25.38-8.52.55-12.77.82-4.83.3-9.72.69-14.53-.1-1.57-.26-2.25,2.15-.66,2.41,4.56.74,9.14.56,13.73.28s9.2-.52,13.79-.87c2.1-.16,4.08-.55,6-1.46s3.73-2.06,5.5-3.19c3.55-2.26,6.36-4.98,8.65-8.52,2.65-4.1,5.32-8.32,6.73-13.03.46-1.54-1.95-2.2-2.41-.66h0Z"/><path class="cls-1" d="M246.79,115.61c7.29-2.04,14.91-1.07,22.12.81,3.32.86,6.68,1.73,9.26,4.11,2.32,2.15,3.95,4.9,5.54,7.6.82,1.38,2.98.13,2.16-1.26-1.7-2.87-3.46-5.82-5.93-8.1-2.8-2.59-6.29-3.67-9.91-4.64-7.78-2.07-16.03-3.13-23.9-.93-1.55.43-.89,2.85.66,2.41h0Z"/><path class="cls-1" d="M254.58,117.16c-2.41.52-3.05,3.37-2.76,5.48.16,1.18.67,2.14,1.51,2.99.8.8,1.7,1.49,2.76,1.9,2.01.79,4.34,0,5.22-2.01.79-1.8.6-3.98-.25-5.72-.55-1.12-1.49-1.88-2.63-2.34s-2.57-.91-3.82-.45c-.63.23-1.06.85-.87,1.54.17.61.9,1.11,1.54.87.09-.03.18-.06.27-.09.29-.08.13-.02.08-.02.09,0,.19,0,.28,0,.27.01.15.02.1,0,.42.07.84.21,1.24.35.36.13.46.17.82.38.19.11.13.08.07.03.06.05.12.1.18.16s.11.12.17.17c.19.18-.03-.08.1.12.09.14.17.27.25.42.04.07.07.15.11.22-.08-.18,0,.01.01.04.12.35.21.71.29,1.08,0,.04.04.25,0,.03,0,.07.02.15.02.22.01.15.02.3.02.46s0,.31-.01.46c0,.08-.01.15-.02.23.03-.27-.02.09-.02.12-.03.15-.07.29-.11.44-.02.07-.05.14-.07.21.02-.05.11-.2,0,0-.07.13-.14.25-.22.38-.12.2-.04.04,0,0-.07.08-.15.15-.22.23-.04.04-.18.12,0,0-.06.04-.12.08-.19.12-.02.01-.21.1-.05.04-.08.03-.16.05-.25.08-.03,0-.24.06-.05.02-.08.01-.18.02-.26.02-.09,0-.17,0-.26,0-.35-.01.16.06-.19-.02-.17-.04-.34-.08-.5-.14s-.1-.04-.32-.16c-.33-.18-.61-.38-.81-.55-.3-.25-.58-.51-.84-.8-.18-.19-.39-.46-.49-.73-.22-.57-.22-1.56-.09-2.17.02-.09.04-.18.07-.27,0-.03.09-.29.04-.16.03-.08.08-.16.12-.23.02-.04.21-.29.07-.13.05-.06.11-.11.16-.17.17-.19-.11.03.11-.09.07-.04.13-.08.2-.11-.2.09.08,0,.14-.02.66-.14,1.04-.91.87-1.54-.19-.68-.88-1.02-1.54-.87h0Z"/><path class="cls-1" d="M276.64,177.13c3.11-3.61,5.92-7.48,8.35-11.57s4.55-8.11,5.71-12.55c1.24-4.74.64-9.42-.34-14.15-.51-2.47-1.1-4.93-1.77-7.37-.49-1.8-.83-4.16-2.63-5.13-1.42-.76-2.68,1.4-1.26,2.16.76.4.88,1.51,1.1,2.27.31,1.06.6,2.13.87,3.2.55,2.14,1.05,4.3,1.47,6.46.89,4.48,1.17,8.77-.22,13.18-1.27,4.03-3.36,7.84-5.55,11.43s-4.72,7.07-7.5,10.3c-1.04,1.21.72,2.99,1.77,1.77h0Z"/><path class="cls-1" d="M227.36,200.46c9.39.02,17.92-3.34,25.98-7.91s15.57-10.18,23-15.76c1.27-.95.03-3.13-1.26-2.16-7.19,5.39-14.4,10.8-22.2,15.3s-16.25,8.05-25.53,8.03c-1.61,0-1.61,2.5,0,2.5h0Z"/><path class="cls-1" d="M181.32,135.7c.49,3.72,2.06,7.03,3.32,10.53.65,1.81,1.05,3.7,1.69,5.52s1.55,3.31,2.39,4.94,1.41,3.51,2,5.32c.61,1.91,1.36,3.76,2.17,5.59,1.5,3.38,3.07,6.75,4.8,10.01,1.91,3.6,4.14,7.04,6.98,9.99,1.12,1.16,2.88-.61,1.77-1.77-3.09-3.21-5.37-7.04-7.37-11-2.14-4.23-4.31-8.56-5.8-13.06-.69-2.08-1.29-4.18-2.28-6.14-1.15-2.26-2.23-4.33-2.92-6.79-1.23-4.4-3.64-8.58-4.24-13.13-.21-1.57-2.71-1.59-2.5,0h0Z"/><path class="cls-1" d="M204.89,188.63c2.73,3,6.48,4.57,10.15,6.1,4.24,1.77,8.47,3.82,12.9,5.05,1.55.43,2.22-1.98.66-2.41-4.16-1.16-8.13-3.06-12.11-4.72-3.53-1.47-7.21-2.9-9.84-5.79-1.09-1.19-2.85.58-1.77,1.77h0Z"/><path class="cls-1" d="M221.02,170.62c-2.46-3.05-4.85-6.18-7.4-9.15-.87-1.02-2.05-2.01-3.47-2.04s-2.56,1.04-2.42,2.5,1.47,2.86,2.34,4c1.16,1.51,2.17,3.06,2.93,4.81,1.4,3.23,2.46,6.5,4.15,9.61.8,1.46,1.62,2.92,2.26,4.47.36.88.66,1.79.94,2.7.14.46.28.91.41,1.37.09.31.18.61.26.92.04.48.24.37.6-.32-.02-.17-1.5-.99-1.67-1.11-.69-.5-1.37-1.07-1.91-1.74-1.12-1.4-1.66-3.2-2.65-4.7-1.87-2.84-4.38-5.16-6.05-8.14-.8-1.42-1.5-2.91-2.37-4.29-.95-1.51-2.09-2.9-3.24-4.27s-2.4-2.83-3.4-4.39c-1.09-1.71-1.76-3.64-2.81-5.37-1-1.63-2.45-2.86-3.58-4.39-1.2-1.63-1.92-3.58-2.1-5.6-.14-1.59-2.65-1.6-2.5,0,.33,3.64,1.92,6.43,4.33,9.1s3.36,6.06,5.45,8.9,4.62,5.34,6.36,8.43c.8,1.42,1.5,2.91,2.37,4.29.95,1.52,2.13,2.89,3.28,4.26s2.14,2.64,2.94,4.16,1.49,3.12,2.76,4.38c1,1,2.28,1.99,3.53,2.64s2.99.33,3.19-1.32c.18-1.51-.74-3.43-1.23-4.83-.59-1.68-1.33-3.28-2.16-4.85s-1.72-3.08-2.45-4.7c-.79-1.75-1.37-3.59-2.09-5.37s-1.51-3.35-2.6-4.86c-.6-.83-1.25-1.62-1.85-2.45-.24-.34-.45-.78-.73-1.09-.08-.43-.18-.52-.3-.25.25.06.48.16.69.31.8.52,1.4,1.47,1.99,2.2l2.14,2.65,4.28,5.29c1.01,1.25,2.77-.53,1.77-1.77h0Z"/><path class="cls-1" d="M219.22,171.92c3.45,5.26,7.7,10.2,12.73,14,2.05,1.55,5.1,3.64,7.83,2.94,2.87-.73,3.4-4.46,3.34-6.96-.04-1.57-.33-3.15-.72-4.67-.35-1.37-1.27-3.08-1.17-4.53s2.09-.34,2.91-.05c1.57.54,3.25.64,4.89.67,2.67.04,5.43-.33,6.22-3.32s-.16-6.56-.59-9.55c-.54-3.72-1.12-7.45-2.08-11.09-.47-1.81-1.29-3.66-1.4-5.54-.09-1.59.69-3.6,2.59-3.38,1.6.18,1.58-2.32,0-2.5-2.48-.28-4.54,1.87-4.98,4.18-.6,3.09,1.02,6.33,1.72,9.28.76,3.2,1.27,6.46,1.74,9.72.23,1.6.48,3.21.63,4.82.11,1.23.5,3.46-.57,4.4-.93.82-2.8.51-3.94.48-1.66-.06-3.08-.44-4.64-.97-2.37-.81-4.98-.01-5.01,2.86-.01,1.25.47,2.44.82,3.61.5,1.67.95,3.38,1.05,5.13.08,1.33.09,3.25-.72,4.41-.94,1.36-3.02.18-4.11-.41-2.96-1.62-5.49-4.08-7.81-6.5-2.45-2.56-4.65-5.33-6.59-8.29-.88-1.34-3.05-.09-2.16,1.26h0Z"/><path class="cls-1" d="M254.33,140.39c5.16-2.12,10.86-2.33,16.22-.86,2.57.7,5.31,1.71,7.33,3.5s3.1,4.13,3.79,6.63l.32-1.22c-.58.62-1.49.58-2.28.62-1.25.06-2.51.07-3.76.03-2.39-.06-4.78-.27-7.15-.65-4.44-.72-9.08-1.87-13.1-3.93-1.92-.99-3.53-2.38-5.3-3.59s-3.81-1.9-5.85-2.63c-3.51-1.25-6.91-3.02-9.83-5.34-3.32-2.64-6.04-6.01-7.47-10.03l-1.21,1.58c5.41-.38,8.89,4.75,11.61,8.67,1.43,2.06,2.77,4.24,3.53,6.64.35,1.1.89,2.6.35,3.71-.51,1.04-1.88,1.95-2.8,2.62-1.87,1.37-4,2.43-6.29,2.86-2.66.5-5.17-.18-7.6-1.24-4.89-2.13-9.65-4.62-14.26-7.31-2.62-1.53-5.19-3.13-7.71-4.82-2.14-1.43-4.53-3.02-5.52-5.51-.59-1.48-3.01-.83-2.41.66,1,2.52,2.85,4.29,5.01,5.86,2.55,1.85,5.25,3.51,7.96,5.13,5.37,3.21,10.97,6.24,16.77,8.61,2.72,1.11,5.51,1.58,8.42,1.02,2.76-.53,5.33-1.9,7.54-3.61s3.95-3.42,3.49-6.4-1.81-5.62-3.38-8.06c-3.26-5.1-7.85-11.82-14.72-11.34-.75.05-1.5.76-1.21,1.58,2.11,5.95,6.58,10.58,11.93,13.79,2.85,1.71,5.88,2.85,9,3.97,3.53,1.27,6.09,4.13,9.48,5.71,6.95,3.24,14.97,4.63,22.6,4.56,1.53-.01,3.35.11,4.77-.56.57-.27,1.3-.74,1.48-1.39.19-.73-.29-1.71-.54-2.38-1.17-3.15-3.13-5.84-6.03-7.59-6.95-4.19-16.38-4.77-23.84-1.71-1.47.6-.83,3.02.66,2.41h0Z"/><path class="cls-1" d="M184.5,134.74c1.82,3.58,3.46,7.24,4.91,10.99.24.63.84,1.06,1.54.87.6-.17,1.12-.9.87-1.54-1.52-3.95-3.24-7.82-5.16-11.59-.31-.6-1.15-.78-1.71-.45-.61.36-.76,1.11-.45,1.71h0Z"/><path class="cls-1" d="M165.15,129.75c-.14,3.85.45,7.53,1.44,11.24.5,1.88.86,3.71.97,5.65.1,1.78.23,3.54.61,5.29.77,3.52,2.22,6.85,2.87,10.39s.79,7.13,2.14,10.55c.84,2.12,2.59,6.92,5.57,6.34,1.3-.25,2.08-1.65,2.73-2.67.9-1.41,1.6-2.93,2.21-4.48,1.34-3.37,2.46-6.82,1.98-10.48s-1.32-7.68-2.41-11.36c-2.3-7.83-6-15.37-10.29-22.29-.85-1.36-3.01-.11-2.16,1.26,3.44,5.54,6.37,11.39,8.64,17.51,1.19,3.2,2.08,6.47,2.76,9.82s1.58,6.81.62,10.28c-.81,2.93-1.87,5.9-3.52,8.48-.21.34-.75,1.41-1.19,1.36-.38-.04-1.01-1.38-1.17-1.65-.81-1.39-1.46-2.86-1.94-4.4-.95-3.06-1.03-6.26-1.65-9.39s-1.81-6.02-2.58-9.07c-.9-3.59-.63-7.3-1.55-10.89-.98-3.84-1.74-7.49-1.59-11.49.06-1.61-2.44-1.61-2.5,0h0Z"/><path class="cls-1" d="M161.28,127.59c-1.51,3.76-2.9,7.58-2.74,11.7s.99,8.01,2.16,11.74c.59,1.88,1.46,3.62,2.13,5.46.71,1.96.72,3.87.51,5.92-.41,4.09-.72,8.28-1.46,12.32s-3.59,7.86-2.63,12.08c.36,1.57,2.77.9,2.41-.66-.42-1.83.25-3.6.91-5.29.71-1.8,1.36-3.55,1.71-5.46.68-3.75.95-7.59,1.37-11.38.21-1.9.45-3.79.2-5.7s-1.11-3.63-1.84-5.41c-1.45-3.51-2.22-7.32-2.74-11.07-.34-2.4-.36-4.79.2-7.17.52-2.21,1.37-4.33,2.21-6.43.6-1.49-1.82-2.14-2.41-.66h0Z"/><path class="cls-1" d="M158.81,125.24c-2.69,2.18-3.04,6.18-3.43,9.37-.49,4.04-.93,8.15-.94,12.23s.85,8.14,1.37,12.24.62,8.09.98,12.12c.42,4.65.97,9.28,1.63,13.9.23,1.59,2.64.91,2.41-.66-.72-5.04-1.29-10.1-1.71-15.18-.39-4.8-.65-9.56-1.43-14.32-.82-5.01-.83-9.86-.36-14.91.22-2.38.41-4.78.8-7.14.35-2.1.7-4.46,2.45-5.88,1.25-1.01-.53-2.77-1.77-1.77h0Z"/><path class="cls-1" d="M159.47,123.49c-3.76-.78-7.68-.61-11.32.64-1.81.62-3.54,1.47-5.11,2.56s-3.05,2.28-4.83,3.06-3.51,1.68-5.12,2.9-3,2.5-4.55,3.7c-3.25,2.49-6.65,4.57-9.32,7.74-2.82,3.34-4.94,7.16-7.02,10.98-.77,1.41,1.39,2.68,2.16,1.26,1.73-3.18,3.48-6.37,5.67-9.27,2.36-3.12,5.32-5.33,8.47-7.59,2.92-2.09,5.47-4.8,8.65-6.5,1.64-.88,3.37-1.45,4.92-2.51s2.93-2.17,4.57-3c3.74-1.88,8.09-2.41,12.18-1.56,1.57.33,2.24-2.08.66-2.41h0Z"/><path class="cls-1" d="M153.56,124.81c-1.35,3.45-3.06,6.75-5.07,9.85-2.14,3.29-4.68,6.19-7.31,9.09-5.36,5.92-9.79,12.6-14.9,18.72-1.49,1.78-3.38,3.07-5.24,4.44-1.99,1.47-3.98,2.94-5.98,4.41-1.28.95-.03,3.12,1.26,2.16,1.79-1.32,3.59-2.65,5.38-3.97,1.69-1.24,3.5-2.42,5.03-3.86,1.41-1.32,2.51-2.94,3.67-4.47,1.32-1.73,2.66-3.44,4-5.14,2.6-3.3,5.12-6.68,7.91-9.82s5.35-5.9,7.61-9.22c2.46-3.6,4.45-7.47,6.04-11.53.59-1.5-1.83-2.15-2.41-.66h0Z"/><path class="cls-1" d="M147.18,141.35c1.44.77,1.57,3.43,1.83,4.84.41,2.15.69,4.32.91,6.49.43,4.32.71,8.66.95,13s.37,8.82.09,13.22-.9,8.68-1.4,13.02c-.57,4.96-.97,9.94-.55,14.93.13,1.59,2.63,1.61,2.5,0-.77-9.22,1.28-18.3,1.92-27.46.33-4.73.19-9.47-.09-14.19s-.55-9.15-1.05-13.69c-.28-2.47-.63-4.94-1.15-7.37-.4-1.88-.86-3.95-2.7-4.93-1.42-.76-2.68,1.4-1.26,2.16h0Z"/><path class="cls-1" d="M144.08,142.33c.8,4.07.03,8.4-.36,12.48-.41,4.39-.85,8.78-1.38,13.16-1.05,8.65-2.2,17.23-2.77,25.93-.33,5-.82,9.94-1.96,14.83-.37,1.56,2.04,2.23,2.41.66,2.04-8.71,1.96-17.65,2.93-26.5s2.31-17.88,3.16-26.86c.45-4.73,1.3-9.65.38-14.37-.31-1.58-2.72-.91-2.41.66h0Z"/><path class="cls-1" d="M158.27,185.39c.98,5.79-.6,11.61-2.1,17.16-.42,1.56,1.99,2.22,2.41.66,1.62-6.04,3.16-12.21,2.1-18.49-.27-1.58-2.68-.91-2.41.66h0Z"/><path class="cls-1" d="M160.93,181.63c-.09,1.43-.41,2.82-.76,4.2-.37,1.49-.74,2.98-1.12,4.47-.16.65.21,1.36.87,1.54s1.37-.22,1.54-.87c.76-3.06,1.76-6.17,1.96-9.33.04-.67-.6-1.25-1.25-1.25-.71,0-1.21.57-1.25,1.25h0Z"/><path class="cls-1" d="M156.68,202.38c-2.61,2.82-3.4,6.71-5.81,9.65-1.33,1.61-3,2.91-4.66,4.16s-3.24,2.46-5.05,3.39-3.95,1.54-5.94,2.21c-2.2.74-4.41,1.6-6.68,2.09-2.14.47-4.35.51-6.5.94-2.32.46-4.66,1.36-7.06,1.01-1.57-.23-2.25,2.17-.66,2.41,2.42.36,4.67-.15,7.02-.7s4.62-.67,6.94-1.07c2.46-.42,4.81-1.33,7.17-2.12,2.07-.7,4.19-1.33,6.18-2.23s3.76-2.21,5.51-3.52,3.49-2.59,4.96-4.18c2.79-3.02,3.59-7.27,6.35-10.26,1.09-1.18-.67-2.95-1.77-1.77h0Z"/><path class="cls-1" d="M132.39,160.95c1.15,3.98.59,8.37.47,12.45-.06,2.11-.1,4.22-.33,6.31s-.62,4.16-.95,6.24c-1.3,8.41-1.37,17.02-1.8,25.51-.22,4.25-.7,8.67,1.26,12.61.71,1.44,2.87.18,2.16-1.26-1.71-3.46-1.11-7.63-.92-11.34.22-4.25.43-8.49.65-12.74s.47-8.41,1.13-12.58,1.15-8.1,1.27-12.25c.13-4.47.71-9.25-.55-13.61-.44-1.54-2.86-.89-2.41.66h0Z"/><path class="cls-1" d="M137.72,209.61c-.21,2.24-1.32,4.29-2.47,6.18-1.26,2.07-2.59,4.06-3.49,6.32-.25.63.27,1.37.87,1.54.71.2,1.29-.24,1.54-.87.9-2.25,2.37-4.23,3.59-6.31s2.23-4.38,2.46-6.86c.06-.67-.62-1.25-1.25-1.25-.73,0-1.19.57-1.25,1.25h0Z"/><path class="cls-1" d="M148.77,207.17c.16,1.78.45,3.56.87,5.3.15.64.91,1.08,1.54.87.66-.21,1.04-.86.87-1.54-.2-.8-.36-1.61-.5-2.42-.03-.21-.07-.41-.1-.62-.01-.1-.03-.19-.04-.29-.04-.27.03.24,0-.05-.05-.42-.1-.83-.14-1.25-.03-.34-.12-.64-.37-.88-.22-.22-.57-.38-.88-.37-.63.03-1.31.55-1.25,1.25h0Z"/><path class="cls-1" d="M132.53,159.69c-2.44,2.42-3.48,5.67-4.61,8.82-1.34,3.75-3.08,7.33-4.96,10.83-3.9,7.26-8.14,14.35-12.31,21.46-1.71,2.91-3.35,6.18-5.94,8.43-.59.51-1.26.96-1.98,1.28-.32.14-.71.31-1.06.35-.68.07-.82-.34-1.05-.88-.75-1.71-.99-3.61-.91-5.47.16-3.79,1.77-7.33,3.59-10.59s3.97-6.22,4.34-9.89c.16-1.61-.02-3.57-1.32-4.7-1.39-1.2-3.21-.69-4.55.3-3.55,2.61-6.73,5.95-9.79,9.1-1.12,1.15.64,2.92,1.77,1.77,2.79-2.87,5.69-5.64,8.73-8.23.46-.4,1.51-1.47,2.2-1.07.59.34.53,1.67.51,2.21-.07,1.89-.89,3.67-1.78,5.31-3.43,6.33-7.77,12.94-5.7,20.5.38,1.37.97,3.27,2.37,3.94s3.13-.04,4.39-.72c2.8-1.52,4.68-4.31,6.3-6.96,4.31-7.03,8.37-14.22,12.42-21.4,2.15-3.81,4.2-7.67,5.89-11.71,1.52-3.64,2.32-8.04,5.21-10.9,1.14-1.13-.62-2.9-1.77-1.77h0Z"/><path class="cls-1" d="M112.13,154.92c-.74,1.95-.99,4.05-1.29,6.11-.33,2.28-.62,4.58-.51,6.88.08,1.81.25,3.96,1.6,5.32,1.17,1.18,3.36,1.39,4.49.03,1.02-1.23-.74-3.01-1.77-1.77-.73.89-1.42-.8-1.55-1.33-.37-1.59-.33-3.31-.23-4.94s.36-3.36.62-5.03c.24-1.56.5-3.12,1.06-4.6s-1.84-2.16-2.41-.66h0Z"/><path class="cls-1" d="M66.53,178.09c-1.17,2.38-2.35,4.8-2.98,7.39s-.5,5.39-.01,8.12,1.14,5.68,1.71,8.51c.49,2.4.67,4.58,2.87,6,2.38,1.53,4.89,3.04,7.4,4.35,2.37,1.24,5.06,1.31,7.29,2.84,4.6,3.15,8.7,7.13,13.53,9.94,5.32,3.1,11.49,2.83,17.41,2.37,1.59-.12,1.61-2.63,0-2.5-4.81.38-10.06.84-14.59-1.21-2.24-1.01-4.19-2.56-6.14-4.04-2.15-1.62-4.3-3.25-6.45-4.87-1.87-1.41-3.69-2.92-6.01-3.5-1.16-.29-2.3-.47-3.39-1-1.25-.61-2.43-1.37-3.62-2.08s-2.29-1.35-3.43-2.03c-1.02-.6-1.63-1.03-1.91-2.23-.6-2.62-1.07-5.27-1.6-7.91-.58-2.88-1.34-5.84-.91-8.79s1.72-5.53,2.99-8.1c.71-1.44-1.45-2.71-2.16-1.26h0Z"/><path class="cls-1" d="M111.43,153.09c-9.76,7.6-19.65,15.3-27.45,25-3.69,4.59-6.93,9.59-8.95,15.15-.9,2.48-2.1,5.71-1.59,8.39.49,2.53,2.99,3.71,5.38,3.27,3.11-.56,5.34-3.72,7.39-5.85,2.72-2.83,5.46-5.63,8.27-8.37,1.15-1.13-.62-2.89-1.77-1.77-2.22,2.17-4.4,4.38-6.57,6.61-1.92,1.98-3.74,4.33-5.94,6.01-.87.66-1.94,1.18-3.06.9-1.37-.35-1.41-1.68-1.24-2.87.37-2.63,1.29-5.29,2.35-7.71,4.39-9.99,12.36-18.16,20.45-25.26,4.67-4.1,9.58-7.92,14.48-11.73,1.27-.99-.51-2.74-1.77-1.77h0Z"/><path class="cls-1" d="M155.85,110.37c-3.7.14-7.16,1.29-10.53,2.76s-6.95,3.27-10.39,4.95c-6.96,3.4-13.86,6.97-20.39,11.15-12.75,8.16-23.56,18.82-33.97,29.72-5.33,5.58-11.56,11.24-13.8,18.88-.45,1.55,1.96,2.21,2.41.66,1.95-6.65,7.28-11.6,11.92-16.47,5.03-5.28,10.1-10.52,15.45-15.48s10.91-9.57,16.92-13.63c6.17-4.16,12.73-7.7,19.39-11.03,3.73-1.87,7.49-3.68,11.27-5.47s7.57-3.39,11.74-3.55c1.6-.06,1.61-2.56,0-2.5h0Z"/><path class="cls-1" d="M154.07,110.15c-3.93.8-7.95.32-11.93.46-3.41.12-6.81.6-10.13,1.38-6.7,1.57-13.11,4.39-19,7.94-6.49,3.91-12.18,8.89-18.23,13.41-2.8,2.09-5.92,3.89-8.45,6.32s-4.67,5.63-6.75,8.57c-4.5,6.36-10.26,13.54-10.27,21.72,0,1.61,2.5,1.61,2.5,0,.01-7.09,4.96-13.34,8.83-18.89,2.05-2.95,4.08-6.02,6.52-8.67s5.35-4.3,8.12-6.33c5.87-4.31,11.34-9.16,17.51-13.06,5.64-3.57,11.74-6.45,18.21-8.18,3.64-.97,7.36-1.58,11.13-1.71,4.22-.15,8.42.31,12.59-.55,1.58-.32.91-2.73-.66-2.41h0Z"/><path class="cls-1" d="M8.66,110.19c2.32,5.77,5.1,11.33,8.39,16.61s7.43,9.96,10.1,15.61c1.19,2.53,2.78,4.54,4.96,6.29s4.39,3.14,6.3,5.07c2.1,2.13,3.85,4.58,6.22,6.44s5.09,3.05,7.74,4.41c3.17,1.63,6.13,3.57,9.01,5.66,2.58,1.87,5.49,3.62,8.8,2.8,1.56-.39.9-2.8-.66-2.41-2.82.7-5.41-1.48-7.54-3.04-2.46-1.79-5.03-3.42-7.72-4.84-2.48-1.31-5.11-2.4-7.42-4.03s-4.11-4.03-6.07-6.14c-3.54-3.8-8.68-5.91-11.09-10.71-1.33-2.65-2.59-5.17-4.35-7.58s-3.45-4.67-5.04-7.1c-3.64-5.58-6.74-11.52-9.22-17.7-.59-1.47-3.01-.83-2.41.66h0Z"/><path class="cls-1" d="M57.56,136.14c-.11,4.18.08,8.88,3.29,12,2.66,2.59,7.31,3.09,9.84.02,1.18-1.44,2.13-3.71,1.6-5.57-.45-1.56-1.99-2.43-3.48-2.76-2.93-.65-7.27-.26-8.81,2.73-2,3.88,2.01,7.3,5.63,7.42,4.35.14,8.11-3.04,11.43-5.45,3.8-2.77,7.52-5.67,11.14-8.67s7.05-6.29,10.7-9.28c4.24-3.48,9.04-6.32,13.63-9.32,2.16-1.41,4.31-2.54,6.81-3.21s4.99-1.1,7.38-2.04c1.48-.58.84-3-.66-2.41-3.41,1.34-7.11,1.66-10.48,3.09s-6.34,3.75-9.36,5.74c-3.22,2.12-6.46,4.21-9.44,6.68s-5.55,4.93-8.38,7.33c-3.01,2.56-6.08,5.04-9.22,7.43-2.86,2.17-5.74,4.51-8.88,6.26-1.47.82-3.15,1.5-4.87,1.36-1.57-.13-3.45-1.12-3.41-2.93.06-2.84,5.08-2.84,6.91-2.07s.74,3.13-.25,4.23c-1.27,1.38-3.37,1.38-4.94.52-3.81-2.09-3.76-7.34-3.67-11.07.04-1.61-2.46-1.61-2.5,0h0Z"/><path class="cls-1" d="M62.71,113.56c.81.53,1.55,1.19,2.1,2,.33.49.33.69.09,1.22-.19.43-.45.85-.7,1.24-.99,1.58-2.3,2.98-3.84,4.04-2.48,1.71-8,4.94-10.19,1.21-.88-1.49-.32-3.31,1.1-4.2.71-.44,1.5-.77,2.23-1.16.94-.5,1.86-1.05,2.86-1.42,3.32-1.21,7.08.96,7.23,4.62.09,2.38-.93,4.76-1.96,6.85-1.09,2.2-2.31,4.35-3.48,6.51-.77,1.41,1.39,2.68,2.16,1.26,1.4-2.59,2.91-5.15,4.1-7.84,1.12-2.52,2.06-5.33,1.54-8.12-.9-4.81-6.23-7.29-10.61-5.56-1.26.5-2.41,1.19-3.61,1.8-1.07.54-2.19,1.02-3.02,1.92-1.55,1.66-1.86,4.29-.84,6.3s3.43,3.37,5.73,3.24c2.65-.14,5.53-1.64,7.71-3.06,2.32-1.52,4.28-3.62,5.59-6.08.72-1.36,1.02-2.51.18-3.91-.76-1.25-1.89-2.26-3.1-3.05-1.35-.88-2.6,1.28-1.26,2.16h0Z"/><path class="cls-1" d="M154.36,109.54c-4.68-1.58-9.67-2.25-14.6-1.86s-9.91,1.86-14.87,2.75c-1.58.28-.91,2.69.66,2.41,4.74-.85,9.39-2.29,14.21-2.66s9.44.26,13.94,1.77c1.53.52,2.18-1.9.66-2.41h0Z"/><path class="cls-1" d="M155.53,105.01c-3.93-2.2-8.14-3.8-12.37-5.31-4.5-1.6-9-3.19-13.52-4.72-8.88-2.99-17.87-5.65-27.08-7.41-5.21-.99-10.46-1.73-15.74-2.22-1.6-.15-1.59,2.35,0,2.5,9.08.85,18.06,2.48,26.86,4.84s17.81,5.52,26.6,8.63c4.77,1.69,9.56,3.36,13.99,5.84,1.41.79,2.67-1.37,1.26-2.16h0Z"/><path class="cls-1" d="M65.07,93.96c5.54-1.55,11.18-1.33,16.66.35,2.7.83,5.24,1.22,8.07,1.25s5.82.18,8.72.48c11.52,1.21,22.89,4.16,34.2,6.56,6.59,1.39,13.19,2.79,19.78,4.18,1.57.33,2.24-2.08.66-2.41-11.7-2.48-23.41-4.95-35.11-7.43-5.76-1.22-11.52-2.41-17.36-3.15-2.98-.38-5.97-.63-8.97-.71s-5.64-.07-8.46-.92c-6.26-1.89-12.48-2.4-18.85-.62-1.55.43-.89,2.84.66,2.41h0Z"/><path class="cls-1" d="M10.94,109.49c-1.03-3.04-1.92-6.13-2.61-9.26-.31-1.38-.53-2.47.61-3.48,1.06-.94,2.35-1.7,3.57-2.4,5.04-2.88,10.83-4.72,16.38-6.35,6.03-1.78,12.43-1.84,18.66-2.31s12.76-.98,19.16-1.11c7-.13,13.68.51,20.26,3.05,1.5.58,2.15-1.84.66-2.41-12.59-4.86-26.46-3.07-39.59-2.07-6.6.5-13.42.56-19.81,2.44-5.95,1.75-12.19,3.74-17.54,6.93-2.61,1.56-5.51,3.3-5.08,6.74.46,3.68,1.73,7.39,2.92,10.89.51,1.52,2.93.86,2.41-.66h0Z"/><path class="cls-1" d="M64.61,111.4c-2.94-3.14-7.52-2.81-11.42-2.28-5.27.72-10.44,1.94-15.61,3.17s-10.41,2.49-15.72,3.2c-1.31.17-2.63.31-3.95.41-.19.01-1.54.1-1.52.14-.06-.16.63-.87.85-1.06.91-.78,2.07-1.31,3.12-1.88,1.18-.64,2.38-1.27,3.58-1.87,3.43-1.72,10.32-3.64,9.42-8.78-.34-1.93-2.01-3.33-3.86-3.77-2.48-.59-4.97.39-7.3,1.14-1.25.4-2.51.81-3.76,1.21s-2.65.96-4.02,1.09c-2.13.19-4.66-1.7-2.3-3.51,1.85-1.43,4.63-1.85,6.87-2.25,2.74-.48,5.52-.71,8.29-.92,12.67-.94,25.38-1.51,38.06-2.25,1.6-.09,1.61-2.59,0-2.5-11.78.69-23.56,1.33-35.33,2.07-5.51.35-11.41.55-16.65,2.45-1.83.66-3.89,1.78-4.54,3.76s.45,4.03,2.25,5c2.34,1.27,5.01.44,7.37-.31,2.58-.83,5.17-1.84,7.81-2.44,1.17-.27,2.48-.37,3.55.27,1.16.69,1.38,1.88.7,3.02-1.24,2.09-4.49,2.93-6.56,3.94-2.46,1.2-5.01,2.4-7.31,3.9-1.52.99-3.46,2.9-2.46,4.91.46.92,1.39,1.23,2.36,1.24,1.45.02,2.95-.2,4.39-.37,2.66-.32,5.31-.76,7.93-1.29,6.13-1.23,12.17-2.88,18.29-4.13,2.93-.6,5.91-1.19,8.9-1.38,2.41-.15,5.03,0,6.78,1.86,1.1,1.18,2.87-.6,1.77-1.77h0Z"/><path class="cls-1" d="M150.65,84.24c-9.36-3.68-18.46-7.97-27.25-12.86-4.34-2.41-8.6-4.97-12.77-7.66-2.04-1.32-4.32-2.57-6.16-4.17-.75-.65-1.25-1.53-.33-2.29.64-.53,1.29-.37,1.8.23,1.81,2.13,1.33,6.41,4.86,6.89,1.57.21,2.25-2.19.66-2.41-1.41-.19-1.72-1.94-2.12-3.08-.51-1.45-1.12-3.03-2.48-3.89-1.7-1.09-3.86-.5-5.02,1.09-1.46,2.01-.46,4.21,1.31,5.59,4.34,3.39,9.28,6.22,14.02,9.01,5,2.95,10.12,5.71,15.33,8.26,5.72,2.81,11.56,5.37,17.49,7.7,1.5.59,2.15-1.83.66-2.41h0Z"/><path class="cls-1" d="M273.56,260.35c6.21-1.71,10.8-6.69,16.22-9.91,2.63-1.56,5.33-3,7.75-4.88,1.23-.95,2.37-2,3.34-3.2.73-.9,1.63-2.71,2.92-2.88l-1.21-.92c.24,1.02-.96,1.83-1.68,2.32-1.05.71-2.16,1.34-3.24,2.01-2.09,1.29-4.18,2.58-6.27,3.88-4.32,2.67-8.64,5.34-12.96,8.01-1.37.84-.11,3.01,1.26,2.16,5.01-3.1,10.03-6.2,15.04-9.3,2.42-1.5,4.88-2.94,7.26-4.49,1.83-1.19,3.55-2.89,2.99-5.25-.11-.47-.68-.99-1.21-.92-3.03.41-4.24,3.4-6.26,5.32-2.34,2.22-5.22,3.78-7.99,5.39s-5.39,3.48-7.99,5.43-5.41,3.94-8.66,4.83c-1.55.43-.89,2.84.66,2.41h0Z"/><path class="cls-1" d="M273.36,260.5c.3-.42.52-.93.6-1.44.05-.31.08-.6.05-.91-.05-.43-.14-.76-.32-1.15-.24-.5-.68-.94-1.16-1.21-.25-.14-.52-.26-.8-.32-.43-.08-.73-.07-1.16,0-.29.05-.6.33-.75.57-.16.27-.22.66-.13.96s.29.59.57.75l.3.13c.22.06.44.06.66,0h.05c-.11,0-.22.02-.33.04.12-.02.24-.02.36,0l-.33-.04c.13.02.26.05.39.1l-.3-.13c.14.06.27.14.39.23l-.25-.2c.12.1.23.2.32.32l-.2-.25c.09.12.17.25.23.4l-.13-.3c.05.14.09.28.12.43l-.04-.33c.02.19.02.37,0,.55l.04-.33c-.03.22-.09.43-.17.64l.13-.3c-.08.19-.18.37-.3.53-.18.25-.2.68-.13.96s.3.6.57.75c.29.15.64.23.96.13s.54-.3.75-.57h0Z"/><path class="cls-1" d="M270.05,255.92c-.12.11-.24.22-.37.32-.16.13.24-.16-.05.03-.06.04-.12.08-.18.12-.27.18-.55.35-.84.5-.57.31-1.16.59-1.74.89-1.21.64-2.38,1.47-3.1,2.66-.43.71-.68,1.59-.42,2.41s.99,1.37,1.8,1.57c1.54.38,3.37.13,4.35-1.21.61-.84.61-2.09-.18-2.81-.33-.31-.75-.47-1.16-.65s-.78-.36-1.17-.54c-.59-.27-1.37-.19-1.71.45-.29.55-.19,1.42.45,1.71.54.25,1.07.49,1.61.74.1.05.2.1.31.15.05.02.12.11.02,0-.05-.05-.1-.09-.14-.15-.19-.31-.08-.45-.09-.23,0,0,.03-.23,0-.09-.04.16.12-.18.02-.04-.02.02-.13.2-.03.07.12-.15-.22.24.02,0-.08.08-.19.12-.28.17-.11.07.05-.03.06-.03-.07.01-.15.05-.22.06-.06.01-.11.02-.17.03-.14.03.17,0-.06,0-.26,0-.51,0-.77-.01-.24-.01.22.05-.02,0-.12-.02-.23-.05-.35-.09-.25-.07.07.02.06.03,0,0-.1-.06-.11-.06-.14-.1.18.15.06.04-.1-.09.06.09.07.09-.06-.07-.03-.15.01.04,0,.03,0,.22.01.09,0-.04-.02-.12,0-.15-.02.15-.02.17,0,.08,0-.03.02-.07.03-.1.01-.04.1-.24.03-.09-.07.14.01-.02.03-.04.06-.1.12-.21.18-.31.05-.08.23-.3.07-.11.09-.1.18-.2.27-.3.17-.17.35-.33.53-.48-.17.13,0,0,.08-.05.11-.08.23-.16.35-.23.43-.27.88-.51,1.34-.73,1.12-.56,2.22-1.12,3.15-1.99.48-.45.49-1.32,0-1.77-.51-.47-1.26-.48-1.77,0h0Z"/><path class="cls-1" d="M270.19,262.98c.34-.26.68-.52,1.05-.73.1-.06.2-.1.3-.16.13-.07-.07.02-.08.03.03-.02.1-.04.14-.05.09-.03.17-.06.26-.08.04-.01.08-.02.12-.03.23-.05-.2,0-.04,0,.08,0,.17,0,.25,0,.03,0,.1.02.13,0,0,0-.26-.05-.13-.02.09.02.19.04.28.07.03,0,.17.06,0,0s0,0,.03.03c.02.01.08.06.1.07-.02,0-.17-.16-.09-.07,0,0,.09.09.09.09,0,0-.13-.2-.06-.08,0,.01.15.27.16.27,0,0-.08-.23-.04-.09.02.06.04.11.06.17.03.09.05.18.07.26.01.05.03.24.02.06s0-.02,0,.02c.01.2,0,.39,0,.59,0,.18.05-.23,0-.06-.01.04-.02.09-.03.13-.02.09-.04.18-.07.26-.01.04-.03.09-.04.13-.04.14.03-.09.04-.09-.02,0-.15.29-.17.32-.02.04-.05.07-.07.11-.07.12.05-.08.06-.08,0,0-.18.17-.18.18,0,0,.19-.15.08-.07-.13.09.23-.05.06-.02-.15.02.11,0,.1,0,0,0-.19,0-.18,0,0-.02.24.06.1,0-.04-.02-.09-.02-.14-.04s-.09-.03-.14-.05c-.14-.04.07.03.07.03-.2-.03-.45-.22-.63-.32-.93-.49-1.84-1.03-2.73-1.59-.55-.35-1.4-.13-1.71.45-.33.62-.14,1.34.45,1.71.96.61,1.95,1.18,2.96,1.71.6.31,1.25.61,1.95.57.83-.04,1.47-.49,1.96-1.14,1.43-1.92.87-5.59-1.82-5.99-.69-.1-1.38-.04-2.03.23s-1.22.65-1.79,1.08c-.27.21-.48.41-.57.75-.08.3-.05.7.13.96.33.51,1.15.87,1.71.45h0Z"/><path class="cls-1" d="M266.41,263.28c-2.34,1.64-3.76,3.8-4.78,6.44s-2.01,5.33-2.35,8.14.12,5.51,1.23,8.03c.44,1,.99,2.22,2.21,2.38,1.09.14,2.43-.66,3.32-1.2,4.62-2.84,6.77-8.13,8.08-13.15.62-2.36,1.04-5.27-.59-7.34-1.54-1.96-4.16-1.96-5.39.28-2.94,5.33-2.16,12.4-6.58,16.97-1.12,1.16.65,2.93,1.77,1.77,2.87-2.97,3.9-6.95,4.82-10.85.52-2.2.98-4.67,2.15-6.63.24-.4.28-.58.73-.45.33.1.61.5.76.78.47.87.45,2.02.32,2.97-.29,2.15-1.05,4.36-1.85,6.37s-1.84,3.82-3.3,5.34c-.61.64-1.28,1.21-2.03,1.69-.39.25-.79.48-1.22.67-.22.1-.44.19-.67.26.27.21.33.23.21.05-.09-.15-.17-.3-.25-.46-1.02-1.99-1.45-4.26-1.32-6.48.14-2.54,1.07-4.99,1.93-7.36s1.9-4.56,4.05-6.07c1.31-.92.06-3.09-1.26-2.16h0Z"/><path class="cls-1" d="M311.36,258.44c-3.39-.52-6.66-.29-9.98.54-3.08.76-6.23.93-9.16,2.2-3.09,1.33-6.25,2.15-9.47,3.1s-6.19,2.42-9.14,4.07c-1.4.78-.15,2.95,1.26,2.16,2.76-1.54,5.5-2.92,8.54-3.81s5.98-1.57,8.84-2.81c1.41-.61,2.77-1.21,4.3-1.45s2.93-.4,4.39-.76c3.27-.8,6.39-1.32,9.76-.81,1.57.24,2.25-2.17.66-2.41h0Z"/><path class="cls-1" d="M275.32,275.46c2.71-2.31,6.17-3.4,9.53-4.38,3.85-1.13,7.72-2.2,11.6-3.22s7.83-2.14,11.81-2.85,7.94-.17,11.9.52c4.58.79,9.11,1.18,13.75,1.32,1.61.05,1.61-2.45,0-2.5-4.34-.13-8.58-.45-12.86-1.19-4.01-.69-8.03-1.33-12.1-.77s-8.21,1.78-12.24,2.82-8.25,2.2-12.34,3.4c-3.88,1.13-7.71,2.43-10.83,5.08-1.23,1.04.55,2.81,1.77,1.77h0Z"/><path class="cls-1" d="M311.57,261.08c12.88-.69,26.13-.52,38.85,1.81,1.57.29,2.25-2.12.66-2.41-12.94-2.37-26.4-2.6-39.51-1.9-1.6.09-1.61,2.59,0,2.5h0Z"/><path class="cls-1" d="M334.56,266.91c3.17-.36,6.34-.66,9.53-.69,1.51-.02,3.02.03,4.52.15.7.06,4.37.08,4.55,1.09l.13-.96c-.42.87-2.37,1.23-3.18,1.67-.98.55-1.94,1.41-2.2,2.55-.7,3.11,4.32,3.73,6.22,4.62.17.08.6.37.82.41l.28.17c.29-.27.28-.28-.04-.05-.64.25-1.25.71-1.87,1-1.2.56-2.55.94-3.28,2.14-.67,1.09-.55,2.42.03,3.52.29.55.7,1.04,1.13,1.49.26.26.82.61.94.97l.16.06c-.25.01-.5-.02-.74-.09-3.53-.61-7.04-1.69-10.52-2.52-1.3-.31-2.82-.96-4.16-.87-1.26.09-2.02,1.24-1.42,2.39s1.91,1.6,3.01,2.01c1.49.55,2.95,1.13,4.36,1.86s2.73,1.54,4.01,2.45c.44.31,1.26,1.28,1.74,1.34,1.1.15.25-.17,0-.21-.53-.08-1.05-.21-1.57-.33-1.78-.42-3.53-.97-5.3-1.46-1.66-.46-3.51-1.07-5.24-1.09-1.5-.02-1.98,1.45-1.35,2.64.79,1.48,2.11,2.82,3.36,3.91s2.99-.71,1.77-1.77c-.61-.53-1.19-1.09-1.72-1.7-.28-.33-.55-.67-.8-1.02l-.23-.33c-.24-.51-.31-.45-.22.18l-1.08.62c1.48-.1,3.21.54,4.63.92,1.55.42,3.08.9,4.63,1.3,1.77.46,6.21,1.7,5.83-1.68-.14-1.26-1.23-2-2.16-2.71-1.19-.91-2.43-1.74-3.73-2.49s-2.58-1.37-3.93-1.94c-1.03-.43-3.4-.83-3.92-1.89l.13.96-.64.52.48.11c.29.18.85.21,1.2.29.64.15,1.27.31,1.91.46,1.43.34,2.87.69,4.3,1.03,1.35.33,2.71.65,4.06.98,1.15.28,2.44.78,3.64.6,2.26-.34,2.55-2.83,1.24-4.37-.57-.68-2.29-1.79-1.66-2.83.48-.8,2.17-1.15,2.96-1.55,1.63-.82,3.89-2.42,2.09-4.37-1.62-1.76-4.34-1.77-6.31-2.89-.55-.31-.57-.42-.08-.82.36-.3.84-.49,1.26-.68.9-.4,1.84-.71,2.62-1.33,2.16-1.69-.08-3.75-1.96-4.22-2.77-.7-5.83-.74-8.67-.71-3.19.04-6.37.34-9.53.69-1.58.18-1.6,2.68,0,2.5h0Z"/><path class="cls-1" d="M273.41,275.95c1.73.92,3.14,2.42,4.64,3.67,1.65,1.36,3.33,2.68,5.02,4,3.32,2.6,6.64,5.21,9.68,8.13,1.16,1.12,2.93-.65,1.77-1.77-3.13-3.01-6.55-5.68-9.96-8.35-1.69-1.32-3.37-2.64-5.01-4.01s-3.05-2.86-4.88-3.83c-1.42-.75-2.68,1.4-1.26,2.16h0Z"/><path class="cls-1" d="M272.23,279.39c3.32.91,5.24,4.05,8.05,5.85,1.49.96,2.84,1.86,4.04,3.18s2.3,2.47,3.73,3.47c3.11,2.18,6.4,4.13,9.65,6.1,1.51.91,3.02,1.89,4.74,2.34,1.52.4,3.12.44,4.42,1.42s2.53-1.2,1.26-2.16-2.77-1.19-4.28-1.51c-1.9-.4-3.45-1.39-5.09-2.39-3.28-1.99-6.69-3.93-9.78-6.22-1.44-1.06-2.47-2.51-3.74-3.74-1.21-1.17-2.65-1.98-4.04-2.9s-2.49-2.2-3.74-3.32c-1.33-1.2-2.81-2.08-4.54-2.55-1.55-.42-2.22,1.99-.66,2.41h0Z"/><path class="cls-1" d="M293.01,292.28c2.64,1.91,5.27,3.83,7.93,5.72,2.44,1.73,4.97,3.32,7.82,4.27,1.53.51,2.19-1.91.66-2.41-2.73-.9-5.13-2.52-7.45-4.18-2.58-1.84-5.14-3.71-7.7-5.56-.55-.4-1.39-.09-1.71.45-.37.63-.1,1.31.45,1.71h0Z"/><path class="cls-1" d="M270.92,278.64c.19,1.49.74,2.78,1.38,4.12s1.2,2.64,1.69,4.01c1.02,2.82,1.79,5.72,2.56,8.62.41,1.55,2.83.89,2.41-.66-.74-2.8-1.49-5.6-2.46-8.33-.48-1.34-1.01-2.67-1.6-3.96-.56-1.21-1.31-2.44-1.48-3.79-.08-.67-.51-1.25-1.25-1.25-.61,0-1.33.58-1.25,1.25h0Z"/><path class="cls-1" d="M270.64,280.03c0,2.28-.3,4.53-.91,6.73-.3,1.07-.66,2.12-1.09,3.15-.46,1.09-.86,2.1-.98,3.29-.07.67.62,1.25,1.25,1.25.73,0,1.18-.58,1.25-1.25.1-1.01.63-1.98,1.01-2.91.44-1.08.81-2.2,1.1-3.33.58-2.26.87-4.59.87-6.92,0-1.61-2.5-1.61-2.5,0h0Z"/><path class="cls-1" d="M271.46,282.13c.26,1.81-.24,3.67-.61,5.43-.39,1.89-.79,3.77-1.18,5.66-.14.66.19,1.35.87,1.54.62.17,1.4-.21,1.54-.87.42-2.04.85-4.07,1.27-6.11s.81-4.16.51-6.31c-.09-.67-.95-1.04-1.54-.87-.72.2-.97.87-.87,1.54h0Z"/><path class="cls-1" d="M295.59,274.05c-3.61.14-7.22.29-10.82.42-1.75.07-3.4-.03-5.13-.3s-3.24-.44-4.9-.15-.91,2.68.66,2.41,3.26.12,4.87.36,3.25.24,4.9.17c3.47-.14,6.95-.27,10.42-.41,1.6-.06,1.61-2.56,0-2.5h0Z"/><path class="cls-1" d="M295.97,276.46c2.56.34,4.97-.25,7.51-.53s4.86-.32,7.29-.3c2.61.02,5.25.04,7.83.42,2.38.35,4.7,1,7,1.67,2.07.61,4.4,1.08,5.76,2.91,1.18,1.59,1.28,3.9-.29,5.29-1.75,1.56-4.03.28-3.65-2.04s2.82-3.17,4.7-2.08c1.39.81,2.65-1.35,1.26-2.16-3.76-2.18-8.73.49-8.49,4.99.11,2.03,1.39,3.97,3.45,4.43s3.99-.56,5.17-2.13c2.67-3.54.7-8.34-3.02-10.17-2.23-1.1-4.83-1.67-7.23-2.28-2.6-.67-5.23-1.08-7.9-1.22-3.06-.16-6.15-.2-9.21-.04-1.49.08-2.97.23-4.45.44-1.67.24-3.37.62-5.06.39-1.57-.21-2.25,2.2-.66,2.41h0Z"/><path class="cls-1" d="M326.89,286.09c-3.02-.11-6.07-1.41-8.94-2.28s-5.42-1.75-7.76-3.47c-1.06-.78-2.05-1.63-3.23-2.22-1.24-.63-2.57-1.02-3.91-1.35-2.51-.61-4.98-.98-7.14.74-1.97,1.56-2.77,4.11-2.47,6.56.31,2.6,1.79,4.77,3.81,6.38,2.16,1.72,4.65,2.85,7.17,3.92s5.28,2.28,8.07,2.94c1.6.38,3.23.46,4.85.72,1.46.23,2.75.79,4.04,1.49,2.76,1.49,5.46,3.1,8.53,3.86,1.56.39,2.23-2.02.66-2.41-4.74-1.17-8.45-4.82-13.34-5.46-2.55-.34-4.95-.73-7.39-1.61s-4.86-1.89-7.18-3.02c-2.09-1.02-4.34-2.29-5.68-4.26s-1.69-5.06.15-6.87,4.72-.8,6.9-.12c2.48.77,4.18,2.56,6.36,3.86,2.33,1.38,4.97,2.16,7.55,2.94,2.91.88,5.88,2.06,8.95,2.18,1.61.06,1.61-2.44,0-2.5h0Z"/><path class="cls-1" d="M338.58,294.35l-.08.71c-.01.11-.02.21-.03.32,0,.1-.01.11,0,.02,0-.14.05-.26.15-.37l.55-.32c.18-.06.18,0-.02-.02-.21-.03-.42-.06-.62-.08-.39-.05-.77-.1-1.16-.16-.75-.1-1.53-.28-2.28-.09s-1.43.75-1.63,1.5c-.23.85.1,1.63.63,2.28.09.11.18.21.27.31,0,.01.21.28.15.18.1.17.1.22.1.49,0,.32,0,.56-.08.79,0,.02-.1.19-.07.16.07-.09-.3.25-.15.13-.89.63-2.52.6-3.69.64-.67.02-1.25.56-1.25,1.25s.57,1.27,1.25,1.25c1.65-.06,3.66-.07,5.07-1.06s1.89-3.31,1.02-4.86c-.2-.36-.51-.63-.76-.95.06.08-.12-.17-.11-.18.12-.1-.06.41-.07.43-.03.13-.23.05-.04.04.21,0,.41.01.62.04.36.04.71.1,1.07.14.93.13,2.19.56,2.97-.15.67-.61.61-1.62.69-2.45.07-.67-.63-1.25-1.25-1.25-.74,0-1.18.58-1.25,1.25h0Z"/><path class="cls-1" d="M350.32,262.94c2.4.56,4.84,1.09,7.19,1.85,1.92.62,4.25,1.77,4.67,3.98.47,2.45-1.56,3.97-2.75,5.77-.62.94-.92,2.06-1.43,3.06s-1.04,1.88-1.5,2.86c-.96,2.03-1.63,4.14-2.14,6.33s-1.08,4.26-2.53,6.05c-2.44,3.03-5.91,5.02-8.48,7.94-1.06,1.2.7,2.98,1.77,1.77,2.26-2.57,5.16-4.43,7.53-6.88,1.14-1.18,2.17-2.51,2.84-4.02.83-1.83,1.13-3.81,1.64-5.74s1.31-3.91,2.3-5.73,1.57-3.74,2.87-5.26c2.35-2.74,3.42-6.41.92-9.45-1.29-1.57-3.16-2.47-5.06-3.09-2.35-.76-4.79-1.29-7.19-1.85-1.57-.36-2.23,2.05-.66,2.41h0Z"/><path class="cls-1" d="M342.77,301.49c-2.17,2.12-4.94,3.65-7.62,5.03-2.86,1.47-6.32,1.78-9.5,1.58-1.66-.11-3.11-.91-4.59-1.6s-2.98-1.39-4.47-2.09c-2.94-1.37-5.92-2.71-8.5-4.7-1.27-.98-2.52,1.19-1.26,2.16,2.89,2.23,6.28,3.66,9.57,5.2,3.05,1.43,6.27,3.5,9.72,3.55s6.83-.23,9.91-1.74,6.11-3.25,8.52-5.61c1.15-1.13-.62-2.89-1.77-1.77h0Z"/><path class="cls-1" d="M309.19,302.4c4.13.96,7.67,3.34,10.78,6.15,1.55,1.4,3.35,2.9,4.2,4.85s.88,4.11.95,6.17c.06,1.6,2.56,1.61,2.5,0-.08-2.31-.18-4.69-1.05-6.86-.93-2.33-2.79-4.06-4.61-5.72-3.47-3.18-7.46-5.93-12.11-7-1.57-.36-2.23,2.05-.66,2.41h0Z"/><path class="cls-1" d="M313.25,304.62c-1.76-.5-3.11.96-3.72,2.44s-.02,3.15.9,4.31,2.76,1.6,4.03.65c1.13-.85,1.83-2.29,1.83-3.7,0-.96-.39-1.75-1.01-2.46-.51-.59-1.17-1.2-1.97-1.32-.35-.05-.65-.06-.96.13-.26.15-.51.45-.57.75-.14.59.18,1.44.87,1.54.06,0,.11.02.17.03.04,0,.16.07.01,0-.21-.11.16.1.16.1-.01,0-.23-.2-.04-.03.03.03.07.06.1.09.09.08.17.17.25.25.07.08.14.15.21.23.03.03.1.1.12.14,0,0-.13-.19-.06-.07.05.09.11.18.17.27.13.23-.03-.04-.02-.04,0,0,.05.16.05.18.07.22.01-.03,0-.06.02.04.01.14.01.19,0,.09,0,.19,0,.28,0,.25.02-.03.01-.05,0,.04-.03.15-.04.19-.03.12-.06.25-.1.37-.02.05-.15.38-.06.19s-.06.11-.08.15c-.05.09-.09.17-.15.25-.02.04-.05.07-.07.1-.12.19.12-.13.02-.02-.07.07-.13.14-.19.21-.03.03-.06.05-.09.08-.11.12.2-.13.07-.05-.03.02-.24.13-.24.14,0-.01.25-.08.12-.05-.06.02-.13.04-.19.06-.14.05-.05-.07.1-.01-.02,0-.1,0-.12,0-.17.02.23.06.07.02-.04-.01-.09-.02-.13-.03-.15-.03-.02-.08.05.03-.01-.02-.1-.05-.12-.06-.05-.03-.1-.07-.15-.09-.14-.07.15.14.04.03-.07-.07-.15-.14-.22-.22-.18-.2.03.03.02.03,0,0-.07-.11-.08-.12-.06-.09-.11-.19-.16-.28-.02-.03-.08-.13-.08-.17,0,.08.07.19.02.04-.08-.21-.15-.43-.21-.64-.02-.06-.03-.13-.05-.2-.05-.2,0,.03,0,.04-.01,0,0-.14,0-.15,0-.03,0-.07,0-.1,0-.1,0-.07-.02.09-.03-.02.09-.35.1-.38l.02-.05c.03-.07.02-.06,0,.01-.04.09-.03.08.02-.03l.05-.09c.06-.11.12-.22.19-.32.03-.05.06-.1.1-.15.11-.16,0,.04-.04.04.04,0,.2-.21.24-.25.18-.17-.05.04-.05.03,0-.03.16-.09.19-.11.13-.08-.1.05-.1.04,0-.02.32-.07.09-.03-.19.03-.03,0,0,0,.29.08-.28-.07,0,0,.63.18,1.39-.22,1.54-.87s-.2-1.35-.87-1.54h0Z"/><path class="cls-1" d="M307.44,344.45c2.89-1.09,5.69-2.42,8.34-4.01,2.43-1.46,4.9-3.11,6.81-5.23s3.01-4.8,3.86-7.56c.48-1.57.91-3.15,1.28-4.75.3-1.29.73-2.6.03-3.83-.8-1.4-2.96-.14-2.16,1.26.23.4-.13,1.26-.23,1.68-.15.65-.31,1.3-.48,1.95-.33,1.29-.7,2.56-1.11,3.83-.8,2.48-1.88,4.67-3.78,6.48-3.64,3.49-8.55,5.98-13.23,7.76-1.49.56-.84,2.98.66,2.41h0Z"/><path class="cls-1" d="M273.55,342.45c10.33,5.63,22.94,3.3,34.02,1.7,1.59-.23.91-2.64-.66-2.41-5.59.81-11.19,1.6-16.84,1.68-5.33.07-10.51-.55-15.25-3.13-1.41-.77-2.68,1.39-1.26,2.16h0Z"/><path class="cls-1" d="M267.52,293.51c-1,2.66-.97,5.55-1.6,8.29-.34,1.49-.53,2.91-.54,4.44s-.27,2.9-.53,4.37c-.53,2.93-.66,5.94-.77,8.91s.02,6.05.8,8.99c.41,1.55,2.83.89,2.41-.66-.75-2.8-.82-5.68-.7-8.56s.27-5.96.84-8.88c.53-2.72.34-5.46.95-8.16s.58-5.48,1.55-8.07c.57-1.51-1.85-2.16-2.41-.66h0Z"/><path class="cls-1" d="M264.7,329.14c.62,2.55,2.27,4.6,3.88,6.6,1.74,2.17,3.4,4.5,5.41,6.44,1.16,1.12,2.93-.65,1.77-1.77-1.89-1.83-3.45-4.01-5.1-6.06-1.43-1.79-2.99-3.61-3.54-5.88-.38-1.56-2.79-.9-2.41.66h0Z"/><path class="cls-1" d="M279.66,323.94l-.88-4.84c-.22-1.23-.3-2.65-.97-3.74-.51-.84-1.55-1.52-2.57-1.16-1.13.4-1.35,1.59-1.26,2.65.12,1.42.46,2.78.41,4.21s-.38,2.97-.53,4.46-.06,3.13-.13,4.69c-.03.71-.11,1.42-.24,2.13-.07.36-.14.72-.22,1.08l-.09.43c-.23.58-.08.6.46.06l.88.37c-.96-.81-1.26-2.54-1.23-3.72.03-1.31-.01-2.54-.24-3.84-.25-1.4-.58-2.75-.62-4.18s.06-2.86-.13-4.3-.51-2.72-.73-4.09-.18-2.77-.12-4.19c.05-1.34-.22-2.54-.5-3.83-.33-1.5-.15-2.88.44-4.29.62-1.48-1.8-2.13-2.41-.66-.87,2.08-.79,4.12-.28,6.27s.03,4.33.34,6.51c.33,2.35.94,4.59.91,6.98-.02,2.23.32,4.26.7,6.44s-.13,4.32.75,6.42c.53,1.25,1.98,3.85,3.6,2.13.55-.58.63-1.54.78-2.28.22-1.06.38-2.13.44-3.2.13-2.42.11-4.76.44-7.17.17-1.2.3-2.39.2-3.6-.05-.62-.16-1.24-.25-1.85-.03-.23-.07-.47-.1-.7-.03-.23-.05-.47-.07-.7l-.71.36c-.09.21.31,1.26.36,1.55.12.64.23,1.29.35,1.94l.79,4.35c.29,1.58,2.7.91,2.41-.66h0Z"/><path class="cls-1" d="M277.36,324.21c.35,4.14,1.22,8.45,3.1,12.19.75,1.49,1.99,3.47,3.84,3.6,1.68.11,2.97-1.4,3.73-2.72.92-1.6,1.22-3.37,1.65-5.14.02-.07.18-.75.19-.75.16-.04.64.68.76.82.66.73,1.44,1.3,2.28,1.8,1.46.86,3.18,1.74,4.77.64s2.18-3.41,2.82-5.11c.87-2.31,1.73-4.63,2.36-7.02.24-.91.82-5.89,2.67-4.67,1.35.89,2.6-1.28,1.26-2.16-1.24-.81-2.8-.59-3.94.3-1.34,1.04-1.69,2.72-2.03,4.29-.44,2.04-1.07,4.03-1.77,5.99-.66,1.86-1.21,4.19-2.36,5.81-.71,1-1.48.38-2.34-.12s-1.51-1.03-2.16-1.75c-.95-1.04-2.3-1.86-3.65-.92-1.28.88-1.33,2.67-1.67,4.04-.23.93-1.21,4.55-2.63,4.1-.85-.27-1.57-2.09-1.9-2.83-.46-1.04-.82-2.14-1.14-3.23-.69-2.33-1.14-4.71-1.34-7.14-.13-1.59-2.63-1.61-2.5,0h0Z"/><path class="cls-1" d="M306.29,318.06c3.01.35,5.85,1.75,8.09,3.78,1.12,1.02,2.2,2.19,2.9,3.54.83,1.6.8,3.38.41,5.1l.87-.87c-.69.18-1.67-.59-2.26-.91-.67-.36-1.33-.75-1.97-1.16-1.37-.87-2.68-1.84-3.91-2.91-2.48-2.16-4.46-4.48-5.84-7.48s-3.88-4.89-5.45-7.63-2.54-6.02-2.04-9.24l-1.84.75c3.41,1.61,3.63,6.78,3.64,10.05,0,1.03-.08,2.06-.39,3.05-.35,1.11-1.24,1.25-2.27,1.41-1.72.28-3.63.2-5.21-.61-1.76-.9-2.9-2.69-4.02-4.25s-2.28-3.28-3.34-4.97-2.06-3.42-3.01-5.18-1.99-3.49-1.79-5.51c.16-1.6-2.34-1.59-2.5,0-.18,1.84.48,3.54,1.29,5.17.92,1.85,1.95,3.65,3.01,5.41,2.01,3.34,4.16,6.97,6.88,9.78,2.51,2.6,6.12,3.17,9.56,2.53,1.75-.33,3.06-.98,3.69-2.72.68-1.88.69-3.98.52-5.95-.33-3.79-.91-8.54-4.78-10.37-.64-.3-1.7-.12-1.84.75-.56,3.64.2,7.18,1.9,10.43.82,1.57,1.84,3.03,2.99,4.39.64.76,1.39,1.44,1.95,2.26.53.78.88,1.66,1.28,2.51,1.53,3.31,4.33,6.02,7.15,8.25,1.39,1.1,2.85,2.11,4.38,2.99s3.16,2.01,4.91,1.57c.41-.1.78-.46.87-.87.47-2.05.54-4.18-.26-6.15-.72-1.78-2.02-3.34-3.41-4.65-2.81-2.66-6.31-4.33-10.15-4.78-1.6-.18-1.58,2.32,0,2.5h0Z"/><path class="cls-1" d="M269.57,293.87c-.07,2.54-.28,5.07-.61,7.58-.09.65.64,1.28,1.25,1.25.75-.03,1.16-.55,1.25-1.25.33-2.52.54-5.05.61-7.58.02-.65-.59-1.28-1.25-1.25s-1.23.55-1.25,1.25h0Z"/><path class="cls-1" d="M260.67,285.23c-1.17,1.99-1.98,4.1-2.52,6.33s-1.75,4.35-2.43,6.63-.84,4.48-1.58,6.64-1.68,4.21-1.95,6.54c-.17,1.51-.5,4.24,1.13,5.15s3.92-1.01,5.11-1.95c1.67-1.31,3.48-2.85,4.41-4.79s1.58-4.34,2.14-6.5c1.37-5.31,1.63-10.99,1.33-16.44-.09-1.6-2.59-1.61-2.5,0,.22,4.1.09,8.25-.54,12.31-.31,1.98-.79,3.9-1.38,5.81s-1.09,3.91-2.53,5.41c-1.27,1.31-2.68,2.57-4.28,3.46l-.19.1c-.38.03-.48.15-.29.36.21-.08-.05.35.03-.07s-.05-.91-.05-1.32c.01-.99.14-1.97.38-2.93.46-1.84,1.34-3.53,1.86-5.35s.75-3.88,1.3-5.77c.6-2.05,1.73-3.85,2.26-5.93.58-2.28,1.23-4.39,2.44-6.43.82-1.39-1.34-2.65-2.16-1.26h0Z"/><path class="cls-1" d="M259.29,282.83c-2.48,2.05-4.49,4.13-5.69,7.17-.62,1.57-1.14,3.2-1.52,4.84s-.33,3.47-.79,5.12-1.63,2.94-2.55,4.25c-.98,1.39-1.91,2.84-2.97,4.17-1.66,2.09-4.38,3.33-5.18,6.03-.46,1.55,1.96,2.21,2.41.66.37-1.25,1.5-2.03,2.46-2.84s1.84-1.76,2.62-2.8c1.02-1.36,1.97-2.78,2.95-4.18.87-1.25,1.83-2.47,2.4-3.89s.53-2.98.77-4.49c.26-1.63.74-3.22,1.27-4.78s1.1-3,2.1-4.25,2.25-2.25,3.47-3.26-.54-2.79-1.77-1.77h0Z"/><path class="cls-1" d="M258.87,280.72c-2.72.57-4.39,3.48-5.84,5.6-1.81,2.64-3.55,5.29-4.72,8.28-.6,1.53-1.08,3.11-1.71,4.62s-1.41,3.08-2.1,4.63c-1.38,3.09-2.66,6.23-3.85,9.4-.56,1.51,1.85,2.16,2.41.66,2.14-5.73,5-11.17,7.03-16.93.98-2.79,2.32-5.28,3.96-7.74.81-1.21,1.61-2.42,2.48-3.58.78-1.04,1.66-2.26,2.99-2.53,1.57-.33.91-2.74-.66-2.41h0Z"/><path class="cls-1" d="M260.2,280.1c-2.25-1.89-4.93-3.05-7.86-3.3-1.52-.13-2.96.19-4.47.28-1.67.1-3.27-.21-4.95.03s-3.21.63-4.85.83-3.28.35-4.87.83c-3.06.92-5.78,2.64-8.45,4.35-1.35.87-.1,3.03,1.26,2.16,2.36-1.51,4.76-3.09,7.44-3.97,2.82-.93,5.92-1.02,8.83-1.57,1.53-.29,2.91-.26,4.45-.16,1.41.09,2.78-.26,4.18-.31,2.73-.09,5.42.84,7.51,2.6,1.22,1.03,3-.73,1.77-1.77h0Z"/><path class="cls-1" d="M255.94,279.05c-2.3,1.92-4.85,3.52-7.58,4.76-2.86,1.31-5.91,2.18-8.8,3.41s-5.75,2.47-8.62,3.74-6.38,1.35-9.5,1.78c-1.59.22-.91,2.63.66,2.41,3.15-.43,6.59-.52,9.54-1.79s6.11-2.67,9.17-3.98,6.08-2.14,9-3.5,5.47-3.06,7.89-5.06c1.24-1.03-.54-2.79-1.77-1.77h0Z"/><path class="cls-1" d="M247.52,286.69c.4.7-.19,1.86-.41,2.56-.26.81-.55,1.62-.85,2.41-.63,1.64-1.36,3.24-2.09,4.84-1.45,3.17-2.9,6.36-4.64,9.39-3.21,5.56-7.7,10.32-10.33,16.23-.65,1.46,1.5,2.73,2.16,1.26,2.88-6.46,7.91-11.64,11.23-17.85,1.75-3.28,3.3-6.69,4.79-10.1.73-1.66,1.43-3.34,2-5.07.53-1.6,1.2-3.35.3-4.93-.8-1.4-2.96-.14-2.16,1.26h0Z"/><path class="cls-1" d="M245.52,285.92c-1.03,3.17-3.44,5.99-5.3,8.71s-3.91,5.59-5.93,8.34-3.95,5.55-5.78,8.44-3.68,5.73-5.96,8.28c-1.07,1.2.69,2.97,1.77,1.77,2.32-2.6,4.24-5.46,6.1-8.39s3.92-5.95,6.03-8.83,4.19-5.78,6.19-8.73,4.22-5.64,5.28-8.92c.5-1.53-1.91-2.19-2.41-.66h0Z"/><path class="cls-1" d="M240.48,313.36c-1.13,3.3-3.66,5.93-6.07,8.46-.47.49-.48,1.28,0,1.77s1.3.49,1.77,0c2.71-2.83,5.42-5.79,6.71-9.56.22-.64-.25-1.37-.87-1.54-.69-.19-1.32.23-1.54.87h0Z"/><path class="cls-1" d="M243.08,312.01c-.12.19-.24.37-.37.55-.04.05-.08.11-.12.16-.1.13.01-.02.05-.07-.07.08-.13.16-.2.25-.29.36-.6.7-.91,1.04-.65.71-1.3,1.41-1.95,2.11-.44.48-.51,1.3,0,1.77.48.44,1.29.51,1.77,0,.67-.72,1.34-1.45,2-2.17s1.35-1.52,1.89-2.38c.35-.55.14-1.4-.45-1.71-.61-.32-1.34-.14-1.71.45h0Z"/><path class="cls-1" d="M234.95,321.76c-2.26.79-3.87,2.65-6.06,3.53-1.17.47-2.45.66-3.7.85-1.54.23-3.08.43-4.63.23-2.55-.32-5.36-.69-7.78-1.59-1.2-.44-2.34-.96-3.58-1.31s-2.44-.63-3.49-1.41c-1.3-.96-2.54,1.21-1.26,2.16,1.05.77,2.27,1.17,3.51,1.51,1.36.37,2.63.88,3.95,1.39,2.59.98,5.58,1.36,8.31,1.72s5.89-.09,8.53-.87,4.36-2.92,6.86-3.79c1.51-.53.86-2.94-.66-2.41h0Z"/><path class="cls-1" d="M233.71,292.52c-.71,3.05-2.82,5.92-4.44,8.57-1.74,2.85-3.99,5.35-5.82,8.15s-3.52,5.66-5.27,8.5c-1.65,2.68-3.68,5.37-3.86,8.62-.09,1.61,2.41,1.6,2.5,0s.84-2.98,1.65-4.32c.86-1.44,1.75-2.85,2.63-4.28,1.73-2.82,3.41-5.68,5.27-8.41s3.9-5.03,5.53-7.8,3.5-5.34,4.21-8.36c.36-1.57-2.05-2.23-2.41-.66h0Z"/><path class="cls-1" d="M222.29,320.28c-.05.08-.11.16-.16.24-.11.16.11-.12-.02.02-.12.13-.22.26-.34.39-.24.25-.5.48-.77.7-.07.06-.12.1-.02.02-.08.06-.16.12-.23.17-.14.1-.29.2-.43.3-.29.19-.59.37-.89.55-1.36.8-2.75,1.52-3.97,2.53-.51.42-.47,1.34,0,1.77.54.49,1.23.45,1.77,0,.02-.02.26-.21.17-.14-.08.06.11-.08.12-.09.15-.11.31-.22.46-.32.33-.22.67-.42,1.02-.62.66-.38,1.34-.75,1.99-1.14,1.35-.81,2.58-1.78,3.46-3.1.37-.54.12-1.41-.45-1.71-.63-.33-1.32-.13-1.71.45h0Z"/><path class="cls-1" d="M228.98,322.22c-.46,1.05-.85,2.12-1.14,3.23-.08.31-.04.68.13.96.15.26.45.51.75.57.66.15,1.36-.2,1.54-.87.25-.93.56-1.84.93-2.72l-.13.3c.03-.07.06-.14.09-.2.09-.14.14-.3.15-.46.04-.17.03-.33-.02-.5-.08-.29-.3-.6-.57-.75-.29-.15-.64-.23-.96-.13-.29.09-.62.28-.75.57h0Z"/><path class="cls-1" d="M234.5,291.58c-2.06.63-3.61,2.01-5.19,3.42-1.82,1.62-3.79,3.05-5.83,4.38-4.37,2.85-8.88,5.51-13.36,8.19-1.01.6-2.02,1.23-3.07,1.75-.86.42-2.82,1.41-3.78.85-.4-.23-.18.04-.23-.42-.02-.18.06-.42.09-.6.11-.52.28-1.04.51-1.53.49-1.04,1.19-1.95,2-2.76,2.79-2.76,7.73-3.97,9.32-7.81.88-2.12-.42-4.02-2.72-3.82-2.75.24-5.59,1.24-8.22,2.05-1.53.47-.88,2.89.66,2.41,2.41-.74,4.92-1.55,7.42-1.93.58-.09.72-.09.47.51-.19.44-.55.84-.88,1.18-.71.71-1.58,1.24-2.44,1.76-3.59,2.17-7.44,4.74-8.51,9.08-.45,1.84-.36,3.79,1.79,4.27s4.42-.37,6.34-1.41c4.56-2.47,8.95-5.33,13.36-8.06,2.27-1.4,4.5-2.86,6.61-4.5,2-1.55,3.82-3.86,6.3-4.62,1.54-.47.88-2.88-.66-2.41h0Z"/><path class="cls-1" d="M224.67,283.1c-1.01.86-1.79,1.98-2.59,3.03-.75.99-1.48,2-2.06,3.09-.62,1.17-1.3,2.56-1.05,3.92s1.69,2.48,3.05,1.94c.63-.25,1.07-.83.87-1.54-.16-.59-.91-1.13-1.54-.87-.19.08-.02.06.11.07.07,0,0,.04-.06-.05.06.09.02.14.02.02,0-.1-.03-.21-.02-.32.03-.22.11-.44.18-.65.31-.87.78-1.68,1.28-2.46s1.09-1.56,1.67-2.32,1.16-1.5,1.88-2.11c.51-.44.45-1.32,0-1.77-.51-.51-1.25-.44-1.77,0h0Z"/><path class="cls-1" d="M193.3,282.09c-1.69,1.19-3.39,2.42-4.63,4.1s-1.81,3.72-2.42,5.7c-.37,1.2-.74,2.39-1.11,3.59-.28.92-.68,1.88-.47,2.85.23,1.08,1.02,2.08,1.58,3.01s1.12,1.98,1.78,2.9c.61.86,1.44,1.42,2.13,2.2.75.85,1.15,1.99,1.61,3.01.98,2.17,1.89,4.4,2.98,6.53,2,3.92,5.56,5.88,9.43,7.62,1.46.65,2.73-1.5,1.26-2.16-3.48-1.56-6.74-3.18-8.54-6.72-.93-1.84-1.73-3.76-2.58-5.64-.78-1.74-1.43-3.55-2.88-4.85-1.57-1.41-2.48-3.21-3.55-5.01-.22-.37-.57-.77-.69-1.17-.15-.53.06-.97.21-1.46.32-1.05.65-2.09.97-3.14.56-1.8.99-3.74,1.99-5.35s2.65-2.76,4.19-3.85c1.3-.92.06-3.09-1.26-2.16h0Z"/><path class="cls-1" d="M225.05,281.79c-7.9,1.29-15.87,2.63-23.25,5.85-3.27,1.43-6.41,3.26-9.02,5.71-1.15,1.08-2.57,2.4-2.97,3.98s.51,2.94,1.88,3.58c1.95.91,4.15-.08,6.04-.68,2.43-.76,4.86-1.51,7.31-2.2,1.55-.44.89-2.85-.66-2.41-2.21.62-4.41,1.29-6.6,1.98-.84.26-5.78,2.33-5.51.21.1-.75,1.32-1.75,1.85-2.27.69-.69,1.43-1.33,2.21-1.92,1.52-1.15,3.18-2.12,4.89-2.96,7.62-3.77,16.2-5.1,24.51-6.46,1.58-.26.91-2.67-.66-2.41h0Z"/><path class="cls-1" d="M262.03,271.87c-4.05-1.98-8.77-1.85-13.18-2.06-5-.24-10.02-.37-15.02-.02-9.59.68-18.84,3.37-27.96,6.29-4.4,1.41-9.09,2.67-12.47,6-1.15,1.13.62,2.9,1.77,1.77,2.83-2.8,6.77-3.88,10.46-5.07,4.31-1.39,8.63-2.74,13.02-3.87s8.75-2.02,13.22-2.45,9.35-.44,14.02-.27c2.52.09,5.04.22,7.56.36s5.03.36,7.31,1.48c1.44.7,2.71-1.45,1.26-2.16h0Z"/><path class="cls-1" d="M261.03,271.18c-2.22-.7-4.14-2.02-6.19-3.08s-4.02-1.81-6.14-2.41c-4.3-1.2-8.83-1.58-13.28-1.36-4.87.25-9.63,1.37-14.45,1.99-2.29.29-4.59.4-6.77,1.21s-4.28,1.89-6.36,2.93c-4.01,2.01-8.51,4.11-10.79,8.2-.78,1.41,1.38,2.67,2.16,1.26,1.91-3.43,5.72-5.18,9.07-6.89,2-1.02,4.02-2.06,6.09-2.9s4.33-1.03,6.6-1.31c4.54-.57,9.01-1.62,13.58-1.94,4.23-.29,8.52-.05,12.65.99,2.28.57,4.49,1.39,6.57,2.48s4.23,2.48,6.59,3.23c1.54.48,2.2-1.93.66-2.41h0Z"/><path class="cls-1" d="M181.8,228.93c-.48,4.08-.58,8.2-.28,12.29.15,2,.46,3.97.69,5.96s-.07,3.99.07,6c.12,1.73.76,3.28,1.48,4.84.81,1.76,1.37,3.46,1.8,5.35.39,1.73.92,3.37,1.83,4.9s2.09,3.02,3.04,4.58c1.07,1.75,1.83,3.64,2.84,5.42.82,1.43,1.92,2.61,3.54,3.06s2.22-1.98.66-2.41c-1.74-.48-2.4-2.59-3.11-4.06-1-2.07-2.2-4-3.52-5.89s-2.26-3.62-2.78-5.85c-.49-2.11-1.06-4.01-1.97-5.98-.42-.92-.86-1.84-1.12-2.82-.33-1.27-.17-2.52-.11-3.81.1-2.4-.39-4.74-.65-7.12-.53-4.81-.49-9.66.08-14.46.19-1.59-2.31-1.58-2.5,0h0Z"/><path class="cls-1" d="M200.66,256.94c-1.36,2.34-2.69,5.09-1.82,7.85.7,2.24,2.98,3.98,5.39,3.4,2.17-.53,4.32-2.89,2.94-5.11-1.13-1.83-4.09-3.16-6.18-2.47-2.34.77-2.74,3.7-1.41,5.52,1.55,2.1,4.29,2.38,6.7,2.17,6.26-.55,12.4-1.93,18.52-3.28,3.42-.76,6.9-.94,10.37-1.22,1.74-.14,3.45-.31,5.18.06s3.31.94,5.03,1.18c1.57.21,2.25-2.2.66-2.41-2.01-.27-3.91-1.03-5.91-1.34-2.13-.33-4.28-.04-6.41.14s-4.13.3-6.18.58-4.2.8-6.28,1.28c-4.36,1-8.78,1.79-13.22,2.33-1.78.22-4,.68-5.65-.26-.62-.35-1.46-1.21-1.02-1.99.48-.87,1.83-.24,2.45.09.35.19,1.02.53,1.18.91.2.47-.23.78-.62,1.05-.95.67-2.07.43-2.76-.5-1.5-2.04.14-4.87,1.19-6.69.81-1.39-1.35-2.65-2.16-1.26h0Z"/><path class="cls-1" d="M210.1,246.75c.27.51.35,1.01.5,1.56-.04-.16.01.16.02.2-.03-.24.2-.15,0-.1-.26.06-.61.4-.85.54-1.02.57-2.17.93-3.33,1.01-1.44.1-5.28.26-5.08-2.08.09-.97.91-1.3,1.76-1.29,1.21.02,2.62-.14,3.77.29,1.58.59,2.15,2.54,1.36,3.94-.65,1.15-1.76,2.02-2.82,2.76-1.23.86-2.51,1.65-3.77,2.47-1.35.87-.09,3.04,1.26,2.16,1.49-.97,3.03-1.89,4.46-2.97,1.31-.99,2.61-2.14,3.29-3.66,1.24-2.8-.25-6.21-3.2-7.14-.84-.27-1.76-.29-2.63-.3-.95,0-1.94-.12-2.88.05-1.55.29-2.78,1.66-3.02,3.2-.25,1.62.54,3.24,1.9,4.14s3.5,1,5.15.95c1.93-.05,3.85-.6,5.48-1.63.9-.57,1.64-1.22,1.64-2.37,0-1.04-.36-2.09-.85-3-.76-1.42-2.92-.16-2.16,1.26h0Z"/><path class="cls-1" d="M261.56,271.06c-2-2.17-4.41-3.98-7.09-5.23-2.97-1.39-6.19-2.07-9.29-3.11-1.53-.51-2.19,1.9-.66,2.41,2.89.96,5.93,1.56,8.69,2.86,2.5,1.17,4.71,2.81,6.58,4.84,1.09,1.19,2.86-.59,1.77-1.77h0Z"/><path class="cls-1" d="M263.6,269.06c-1.94-3.07-4.4-5.74-6.82-8.44s-5.07-5.62-7.71-8.34c-5.17-5.32-10.8-10.14-16.95-14.29-1.34-.9-2.59,1.26-1.26,2.16,5.98,4.04,11.42,8.73,16.45,13.9,2.53,2.6,4.96,5.28,7.38,7.98s4.84,5.27,6.75,8.29c.86,1.36,3.02.1,2.16-1.26h0Z"/><path class="cls-1" d="M217.41,237.08c2.07.49,4.01,1.3,5.79,2.49s3.08,2.92,4.78,4.23,3.68,2.19,5.47,3.36c1.97,1.28,3.85,2.69,5.68,4.17,7.34,5.92,14.37,12.24,21.53,18.37,1.22,1.04,2.99-.72,1.77-1.77-7.39-6.33-14.62-12.91-22.25-18.94-1.77-1.4-3.58-2.75-5.47-3.98s-4.19-2.17-5.88-3.74c-1.55-1.43-2.93-2.93-4.73-4.07s-3.91-2.01-6.03-2.51c-1.56-.37-2.23,2.04-.66,2.41h0Z"/><path class="cls-1" d="M184.2,229.2c.22-1.26.48-2.51.78-3.75.2-.81.33-2.34.88-3.02.68-.84,2.71-.63,3.68-.63,1.14,0,2.28.09,3.41.23,2.4.29,4.84.71,7.19,1.27s4.57,1.58,6.79,2.58c4.43,2,8.89,3.94,13.21,6.15,4.09,2.09,7.75,4.44,10.76,7.96,1.04,1.23,2.81-.55,1.77-1.77-5.32-6.24-13.12-9.38-20.42-12.67-3.79-1.71-7.59-3.78-11.66-4.71s-8.37-1.77-12.5-1.49c-1.88.13-3.79.36-4.6,2.29-.9,2.14-1.3,4.62-1.7,6.89-.28,1.57,2.13,2.25,2.41.66h0Z"/><path class="cls-1" d="M212.64,245.8c-.7-2.53-2.99-3.81-5.27-4.73-2.9-1.16-5.92-2.01-8.93-2.84s-6.32-1.7-9.4-2.8c-.7-.25-1.39-.51-2.07-.8-.34-.14-.96-.55-1.33-.59l-.2-.09c-.32-.22-.34-.06-.06.45.05.05,1.19-.14,1.35-.15.31,0,.63,0,.95,0,.95,0,1.89.02,2.84.06,2.56.1,6.28.92,7.73-1.92,1.38-2.69-1.43-4.83-3.73-5.37-1.57-.37-3.18-.61-4.75-.92-.69-.14-1.48-.23-2.09-.62-.55-.35-1.06-1.09-.23-1.43,1.12-.46,2.82.24,3.9.58,1.61.51,3.17,1.18,4.71,1.87,7.27,3.26,14.44,6.79,21.64,10.2,1.45.68,2.72-1.47,1.26-2.16-6.79-3.21-13.57-6.48-20.39-9.63-3-1.38-6.15-2.92-9.46-3.36-2.49-.33-5.48,1.11-4.42,4.08s5.29,3.05,7.9,3.56c.82.16,4.28.68,3.34,2.23-.73,1.2-3.8.48-4.95.42-2.08-.09-8.09-1.02-8.25,2.34-.07,1.56,1.72,2.09,2.86,2.58,1.6.68,3.23,1.28,4.89,1.81,3.69,1.18,7.46,2.07,11.16,3.19,1.81.55,3.66,1.11,5.4,1.87,1.33.58,2.77,1.36,3.19,2.85s2.84.89,2.41-.66h0Z"/><path class="cls-1" d="M267.02,256.3c-4.78-5.72-9.1-11.82-12.9-18.23-.53-.9-5.27-8.97-4.63-9.24.85-.36.28,2.04.23,2.38-.16,1.2-.09,2.45.92,3.27,1.24,1,3.02-.76,1.77-1.77-.5-.4-.24-1.13-.15-1.7.12-.78.26-1.57.11-2.37-.27-1.46-1.47-2.46-2.97-2.33-1.66.15-2.72,1.52-2.52,3.15.13,1.07.77,2.06,1.25,3.01.52,1,1.05,1.99,1.59,2.97,4.42,8.03,9.64,15.6,15.52,22.63,1.03,1.24,2.79-.54,1.77-1.77h0Z"/><path class="cls-1" d="M383.62,157.52c4.9-.6,8.84-3.72,13.33-5.52,2.05-.82,4.15-1.56,6.09-2.61,1-.54,1.95-1.18,2.82-1.92.76-.64,1.58-1.91,2.65-1.92l-1.25-1.25c.08,1.23-2.66,1.93-3.51,2.29-1.79.76-3.57,1.52-5.36,2.28-3.57,1.52-7.15,3.04-10.72,4.55-1.48.63-.2,2.78,1.26,2.16,4.17-1.77,8.34-3.54,12.51-5.31,1.97-.84,4.06-1.55,5.95-2.55,1.31-.69,2.47-1.82,2.37-3.41-.04-.67-.54-1.25-1.25-1.25-2.3.02-3.51,2.09-5.25,3.28-1.92,1.31-4.1,2.12-6.25,2.97s-4.2,1.81-6.23,2.91c-2.26,1.22-4.58,2.5-7.17,2.81-1.58.19-1.6,2.69,0,2.5h0Z"/><path class="cls-1" d="M383.73,157.58c.72-.72,1.1-1.82.82-2.82s-1.27-1.84-2.36-1.83c-.32,0-.65.14-.88.37-.22.22-.38.57-.37.88s.12.66.37.88.55.37.88.37c.06,0,.12,0,.18.01l-.33-.04c.09.02.18.04.27.08l-.3-.13c.09.04.17.09.24.14l-.25-.2c.09.07.18.16.25.25l-.2-.25c.06.09.12.18.16.28l-.13-.3c.04.1.07.2.09.31l-.04-.33c.02.14.02.28,0,.42l.04-.33c-.02.14-.06.28-.12.41l.13-.3c-.06.14-.14.28-.23.4l.2-.25c-.06.07-.12.14-.18.2-.23.23-.37.56-.37.88s.14.67.37.88.55.38.88.37.65-.13.88-.37h0Z"/><path class="cls-1" d="M381.57,153.21c-.2.14-.41.26-.63.36-.05.03-.11.05-.16.08-.22.1.03-.03.05-.02-.06-.03-.35.13-.43.16-.45.16-.92.29-1.37.46-1,.36-2.02.83-2.71,1.67-.51.62-.87,1.38-.67,2.2.17.7.71,1.18,1.35,1.44,1.14.48,2.74.52,3.64-.46.67-.74.85-1.85.14-2.63-.23-.25-.54-.43-.82-.62s-.59-.39-.88-.58c-.55-.36-1.41-.13-1.71.45-.33.63-.14,1.33.45,1.71.37.24.73.48,1.1.72.02.01.09.07.11.07-.01,0-.18-.17-.1-.07.09.1-.07-.11-.07-.1-.07-.14-.1-.35-.09-.5,0-.16.01-.07,0-.01.01-.03.14-.26.03-.1,0,0,.18-.19.08-.11-.03.03-.16.14,0,.03.16-.12-.05.02-.09.04-.1.07.12-.05.13-.05-.03,0-.08.02-.11.03-.01,0-.13.03-.13.03,0-.03.24,0,.09-.02-.05,0-.32.03-.35-.01,0,0,.24.04.09.01-.05-.01-.1-.02-.15-.03-.08-.02-.16-.03-.24-.05-.06-.02-.15-.06-.21-.07,0,0,.24.12.13.05-.04-.02-.09-.05-.13-.07-.11-.04.1.09.11.09-.04-.04-.09-.11,0,.03.11.17.03.05.02.02,0,0,.1.27.06.13-.04-.13.02.13.02.13,0,.01-.07.25-.02.13,0-.02.04-.1.04-.12.02.06-.12.22-.02.07.03-.04.06-.1.09-.14.02-.03.1-.15,0,0s.06-.06.09-.09c.06-.06.12-.12.18-.17.02-.02.08-.05.09-.08-.03.05-.2.14-.06.05.29-.2.59-.36.91-.51.13-.06-.1.04-.1.04.04,0,.08-.03.12-.05.08-.03.16-.06.24-.09.18-.06.36-.12.54-.18.9-.29,1.84-.58,2.63-1.12.54-.37.83-1.12.45-1.71-.35-.54-1.13-.84-1.71-.45h0Z"/><path class="cls-1" d="M381.24,158.97c.22-.12.47-.22.69-.35-.05.03-.24.09-.09.04.06-.02.12-.04.18-.06.13-.04.27-.07.41-.09l-.33.04c.17-.02.33-.02.5,0l-.33-.04c.12.02.25.07.36.09-.2-.09-.25-.11-.13-.05l.05.03s.07.04.1.07c-.16-.13-.21-.16-.13-.1.03.03.18.21.05.04-.18-.23.09.23-.02-.03-.08-.2,0,.05.02.09.02.08.04.16.05.25l-.04-.33c.02.2.03.41,0,.61l.04-.33c-.02.16-.06.31-.11.46-.01.04-.03.09-.05.13.08-.19.1-.23.04-.11-.04.07-.07.14-.12.21-.02.03-.04.06-.06.09-.08.11-.05.07.07-.09-.05.04-.11.11-.16.16-.07.06-.03.03.13-.1-.03.02-.07.05-.11.07.2-.08.25-.1.12-.06-.04.01-.09.02-.13.02l.33-.04c-.07,0-.14,0-.21,0l.33.04s-.19-.03-.2-.05c.02.03.29.14.07.02-.12-.06-.23-.14-.34-.22s-.21-.16-.32-.24c-.06-.05-.13-.1-.19-.15-.18-.14.15.12.03.02-.46-.36-.91-.73-1.34-1.11-.25-.22-.54-.37-.88-.37-.31,0-.67.14-.88.37-.43.47-.53,1.31,0,1.77.71.62,1.45,1.21,2.21,1.77.46.34.94.57,1.52.63.62.06,1.24-.23,1.68-.66.69-.67,1.08-1.72,1.02-2.68-.04-.6-.19-1.19-.56-1.67-.34-.44-.79-.74-1.33-.9-1.14-.34-2.24.13-3.23.67-.58.31-.81,1.16-.45,1.71.38.58,1.09.78,1.71.45h0Z"/><path class="cls-1" d="M377.84,158.33c-1.88.93-3.21,2.44-4.23,4.24s-2.1,3.72-2.67,5.75-.59,4.4.03,6.5c.25.84.61,1.8,1.55,2.05s2.08-.24,2.91-.6c3.79-1.64,6-5.4,7.54-9.04.8-1.88,1.42-4.31,0-6.06-.51-.63-1.25-1.1-2.08-1.14-1.11-.05-1.82.71-2.4,1.54-2.43,3.46-2.81,8.58-6.33,11.25-.54.41-.81,1.07-.45,1.71.3.53,1.17.86,1.71.45,2.17-1.65,3.44-3.94,4.48-6.42.53-1.27,1.01-2.58,1.63-3.81.29-.58.6-1.15.96-1.69.13-.19.25-.46.45-.58-.29.18-.12-.04.04.21.69,1.08.16,2.47-.29,3.56-.55,1.31-1.2,2.6-1.96,3.79-.71,1.11-1.57,2.16-2.62,2.96-.82.63-2.18,1.52-3.26,1.42l.63.17c.12.22.12.18-.01-.15-.06-.19-.12-.38-.17-.57-.1-.37-.18-.74-.23-1.12-.09-.68-.1-1.38-.04-2.07.12-1.38.6-2.71,1.2-3.95,1.17-2.41,2.37-5,4.88-6.23,1.44-.71.18-2.87-1.26-2.16h0Z"/><path class="cls-1" d="M411.76,159.71c-2.4-.74-4.81-.92-7.3-.7s-4.78-.02-7.12.58c-2.49.64-4.97.9-7.51,1.26s-4.66,1.05-6.94,1.9c-1.49.56-.85,2.97.66,2.41,2.12-.79,4.22-1.51,6.47-1.83,2.37-.34,4.74-.48,7.07-1.08,1.1-.28,2.16-.59,3.31-.61,1.21-.01,2.39.02,3.6-.09,2.45-.22,4.73-.17,7.1.57,1.54.48,2.2-1.94.66-2.41h0Z"/><path class="cls-1" d="M383.4,168.86c3.09-1.88,6.88-2.12,10.39-2.55,3.88-.48,7.76-.88,11.65-1.22,1.91-.16,3.84-.34,5.75-.13s3.63.77,5.38,1.34c3.55,1.16,7.05,2.1,10.73,2.78,1.57.29,2.25-2.12.66-2.41-3.91-.72-7.59-1.79-11.37-2.99-1.76-.56-3.55-1.03-5.4-1.22-2.08-.22-4.16-.01-6.23.17-4.05.35-8.1.78-12.13,1.29-3.66.46-7.46.8-10.68,2.77-1.37.84-.12,3,1.26,2.16h0Z"/><path class="cls-1" d="M411.8,162.36c9.55.95,19.24,2.61,28.33,5.75,1.52.53,2.18-1.89.66-2.41-9.3-3.22-19.23-4.87-29-5.84-1.6-.16-1.59,2.34,0,2.5h0Z"/><path class="cls-1" d="M428.09,169.26c3.09.12,6.19.31,9.22.95.72.15,1.43.32,2.13.53.32.09.64.18.96.29.11.04.83.43.88.41l.25-.83c-.17.08-.34.15-.52.2-.19.06-.39.1-.58.15-.66.17-1.35.33-1.96.67-.96.54-1.82,1.61-1.49,2.78s1.63,1.8,2.59,2.29c.62.32,1.23.62,1.8,1.01l.28.19c.29.35.45.22.48-.38,0,0-.74.29-.67.27-1.15.42-2.6.5-3.53,1.39-.88.84-.99,2.08-.59,3.18.19.52.48.95.8,1.39.07.1.31.52.43.55.23-.32.17-.49-.19-.51-.26-.11-.52-.21-.79-.32-2.88-1.18-5.75-2.43-8.66-3.54-.97-.37-2.32-.39-2.63.87s1.12,2.28,2.08,2.81c1.19.66,2.34,1.33,3.43,2.15.51.38,1.01.8,1.48,1.22.28.25.55.5.82.77.25.25.72.96,1.04,1.08l.16.19.58-.68c0-.05-1.24-.43-1.36-.48-.73-.29-1.45-.62-2.16-.95-1.49-.68-2.98-1.39-4.54-1.9-.68-.22-1.39-.47-2.02-.02-.54.39-.72,1.01-.59,1.64.28,1.39,1.41,2.76,2.3,3.82,1.04,1.23,2.8-.54,1.77-1.77-.36-.43-.68-.87-.98-1.35-.18-.29-.65-.88-.62-1.23l-.37.88.13-.12-.88.37c1.02.09,2.23.79,3.15,1.21,1.05.47,2.09.97,3.15,1.43,1.44.62,4.76,2.02,4.93-.76.06-1.02-.58-1.74-1.25-2.44-.77-.81-1.6-1.57-2.47-2.28s-1.75-1.34-2.69-1.93c-.48-.3-.96-.57-1.46-.84-.32-.17-1.09-.44-1.21-.81l-.13.96.08-.16-.75.57s.96.41,1.13.48c.46.19.92.38,1.38.56,1.05.43,2.1.86,3.15,1.29.98.4,1.97.8,2.95,1.21.88.36,1.79.86,2.77.71,1.76-.27,2.12-2.25,1.27-3.58-.26-.4-1.27-1.35-.91-1.88.15-.21.67-.25.91-.31.52-.14,1.04-.28,1.55-.46.76-.27,1.6-.54,2.04-1.26s.31-1.6-.2-2.27c-1.02-1.33-2.96-2.06-4.38-2.85-.63-.35.15.07-.05.09.11-.01.2-.16.32-.17.35-.05.76-.24,1.1-.33.74-.19,1.6-.37,2.19-.88,1.59-1.37-.05-3.11-1.46-3.68-4.2-1.71-9.12-1.9-13.59-2.08-1.61-.06-1.61,2.44,0,2.5h0Z"/><path class="cls-1" d="M381.82,169.03c1.14.85,2,2.17,2.94,3.23,1.04,1.17,2.11,2.31,3.18,3.45,2.09,2.23,4.21,4.45,6.06,6.88.41.54,1.08.82,1.71.45.53-.31.86-1.17.45-1.71-1.99-2.61-4.21-5-6.45-7.39-1.1-1.17-2.2-2.34-3.26-3.54s-2.05-2.55-3.36-3.53c-.54-.4-1.4-.09-1.71.45-.37.64-.09,1.31.45,1.71h0Z"/><path class="cls-1" d="M380.35,171.31c2.4,1.08,3.48,3.64,5.41,5.32.94.82,1.77,1.61,2.46,2.66s1.42,2.1,2.35,2.99c2.04,1.95,4.24,3.76,6.4,5.57,1,.84,1.99,1.74,3.19,2.29,1.04.48,2.28.67,3.11,1.51,1.14,1.14,2.91-.63,1.77-1.77-.83-.83-1.85-1.25-2.93-1.64-1.32-.48-2.3-1.25-3.37-2.15-2.26-1.89-4.62-3.77-6.7-5.86-.92-.93-1.52-2.07-2.3-3.11s-1.71-1.78-2.64-2.63c-1.96-1.77-2.96-4.2-5.49-5.34-1.46-.66-2.73,1.5-1.26,2.16h0Z"/><path class="cls-1" d="M394.16,183.08c1.74,1.71,3.46,3.43,5.21,5.13,1.6,1.56,3.31,3.06,5.32,4.09.6.31,1.36.16,1.71-.45.33-.56.16-1.4-.45-1.71-1.88-.96-3.43-2.36-4.94-3.82-1.7-1.66-3.39-3.34-5.08-5.01-1.15-1.13-2.92.64-1.77,1.77h0Z"/><path class="cls-1" d="M379.39,170.52c-.03,1.12.28,2.18.6,3.23s.56,2.03.77,3.06c.43,2.13.66,4.29.89,6.44.07.67.52,1.25,1.25,1.25.62,0,1.32-.57,1.25-1.25-.24-2.22-.48-4.44-.89-6.63-.2-1.04-.43-2.07-.72-3.08s-.67-1.97-.65-3.02c.04-1.61-2.46-1.61-2.5,0h0Z"/><path class="cls-1" d="M379.07,171.18c-.25,1.63-.69,3.25-1.36,4.76-.34.75-.72,1.49-1.15,2.19-.47.77-.95,1.53-1.18,2.41-.17.65.21,1.36.87,1.54s1.37-.22,1.54-.87c.2-.76.69-1.41,1.1-2.1s.79-1.45,1.11-2.21c.7-1.62,1.21-3.3,1.48-5.05.1-.67-.17-1.34-.87-1.54-.59-.16-1.43.2-1.54.87h0Z"/><path class="cls-1" d="M379.4,172.9c-.01,1.31-.55,2.64-1.03,3.92-.52,1.4-1.05,2.81-1.57,4.21-.24.63.26,1.37.87,1.54.7.19,1.3-.24,1.54-.87.54-1.45,1.09-2.91,1.63-4.36s1.04-2.88,1.06-4.43c0-.68-.58-1.25-1.25-1.25s-1.24.57-1.25,1.25h0Z"/><path class="cls-1" d="M398.47,171.96c1.59.46,3.2.38,4.83.41,1.77.03,3.53.21,5.27.48,3.54.54,6.93,1.29,10.21,2.77,2.03.92,7.1,2.9,4.92,6.03-.77,1.1-2.79,1.42-2.73-.41.06-1.59,1.96-2.42,3.2-1.45s3.03-.78,1.77-1.77c-2.61-2.04-6.61-1.1-7.36,2.37s3.11,5.98,6.05,3.83,2.38-6.33-.23-8.45c-1.48-1.2-3.44-1.93-5.18-2.68-1.87-.81-3.78-1.48-5.78-1.9-2.34-.5-4.71-.88-7.09-1.13s-4.93.15-7.21-.51c-1.55-.45-2.21,1.97-.66,2.41h0Z"/><path class="cls-1" d="M420.31,181.92c-2.3-.46-4.45-1.76-6.54-2.77s-3.83-2.03-5.41-3.65c-1.48-1.53-3.03-2.51-5-3.3-1.85-.75-3.73-1.13-5.51.05-3.55,2.35-2.85,7.19-.34,10,1.4,1.57,3.21,2.73,4.99,3.83s3.55,2.2,5.49,3c1.1.46,2.23.74,3.36,1.07s2.11.91,3.07,1.63c1.94,1.45,3.76,2.92,6.02,3.87,1.48.62,2.13-1.8.66-2.41-3.25-1.37-5.49-4.39-8.89-5.44-1.8-.55-3.5-1.03-5.17-1.93s-3.17-1.83-4.68-2.83-3.08-2.15-3.94-3.75c-.78-1.46-.83-3.6.54-4.75,1.5-1.26,3.73-.03,5.18.75,1.63.87,2.67,2.38,4.09,3.51,1.6,1.26,3.44,2.13,5.27,3.01,1.98.95,3.98,2.12,6.15,2.55,1.57.31,2.24-2.1.66-2.41h0Z"/><path class="cls-1" d="M427.52,189.42l-.14.53-.07.27c.08-.13.08-.15,0-.03l.45-.45-.08.05.63-.17c.11.03.12.03.02,0-.07-.02-.14-.04-.21-.06-.14-.04-.28-.08-.41-.12-.23-.07-.46-.14-.69-.2-.54-.16-1.11-.36-1.68-.34-.69.03-1.31.37-1.68.95-.42.63-.28,1.45.05,2.08.1.19.24.36.34.55-.1-.18,0,.11,0,0-.02-.19-.03.36-.01.17.02-.14-.04.18-.04.21,0,.02-.06.37-.04.18l-.06.11c.08-.08.07-.07-.03.03.15-.1-.02,0-.09.04-.1.05.11-.02-.09.02-.12.02-.23.06-.36.07.22-.03-.22,0-.22,0-.12,0-.24,0-.37,0-.56,0-1.12-.07-1.68-.13-.65-.08-1.28.63-1.25,1.25.03.74.55,1.17,1.25,1.25,1.29.15,2.71.31,3.93-.29s1.84-2.36,1.44-3.66c-.09-.29-.24-.56-.41-.81-.04-.07-.09-.13-.13-.2-.06-.12-.07-.14-.04-.07.07-.02-.12.58-.28.7-.13.04-.15.05-.06.03.08-.02.07-.02-.05.02-.19-.06.16.04.2.05.32.09.64.19.96.28.73.21,1.58.62,2.31.22s.81-1.17.99-1.86c.17-.63-.21-1.39-.87-1.54s-1.36.2-1.54.87h0Z"/><path class="cls-1" d="M440.06,168.15c1.69.67,3.41,1.32,5.02,2.17,1.37.72,3.05,1.99,2.62,3.77-.37,1.52-1.85,2.2-2.75,3.35-.98,1.25-1.89,2.67-2.78,4-1.82,2.73-2.35,6.32-4.87,8.53-2.14,1.87-4.84,2.97-7.04,4.79-1.24,1.03.54,2.79,1.77,1.77,2.55-2.12,5.85-3.25,8.05-5.81,1.26-1.46,1.83-3.22,2.59-4.97.82-1.9,2.02-3.47,3.2-5.15.57-.81.98-1.63,1.74-2.31.56-.49,1.09-.97,1.53-1.58,1.03-1.42,1.43-3.18.81-4.85-1.33-3.6-6.03-4.84-9.23-6.12-1.49-.6-2.14,1.82-.66,2.41h0Z"/><path class="cls-1" d="M430.01,195.02c-3.82,2.71-8.73,4.05-13.33,2.92-1.13-.28-2.07-1.02-3.02-1.65-1.04-.69-2.07-1.39-3.11-2.08-1.95-1.3-3.9-2.57-5.53-4.27-1.12-1.16-2.88.61-1.77,1.77,1.77,1.85,3.92,3.24,6.04,4.66s4.5,3.57,7.13,4.07c2.47.47,5.16.71,7.61,0s5.13-1.75,7.25-3.26c1.3-.92.06-3.09-1.26-2.16h0Z"/><path class="cls-1" d="M405.28,192.57c2.8,1.12,5.04,3.28,6.93,5.57.95,1.16,2.07,2.42,2.48,3.89.43,1.55.19,3.22,0,4.78-.08.67.63,1.25,1.25,1.25.74,0,1.17-.58,1.25-1.25.22-1.84.41-3.76-.13-5.57s-1.78-3.26-2.92-4.67c-2.23-2.74-4.89-5.09-8.2-6.41-.63-.25-1.37.27-1.54.87-.2.71.24,1.29.87,1.54h0Z"/><path class="cls-1" d="M408.22,194.09c-.36-.17-.73-.29-1.13-.25s-.77.13-1.12.34c-.5.3-.91.76-1.22,1.25-.36.55-.51,1.2-.44,1.85s.2,1.25.52,1.81c.34.59.87,1.04,1.51,1.26s1.34.1,1.93-.2c1.07-.55,1.77-1.81,1.88-2.97.06-.67-.17-1.33-.53-1.88-.41-.62-.89-1.16-1.63-1.38-.63-.19-1.39.23-1.54.87s.2,1.33.87,1.54c.04.01.08.02.12.04l-.3-.13c.05.03.11.06.16.09-.16-.13-.2-.16-.13-.1.02.02.05.04.07.06.04.04.07.08.11.11.17.2-.11-.16-.04-.05.15.21.29.42.4.65l-.13-.3c.05.13.09.26.11.39l-.04-.33c.02.14.02.27,0,.41l.04-.33c-.03.21-.09.41-.17.61l.13-.3c-.06.14-.13.28-.21.41-.04.06-.08.12-.12.18-.12.18.2-.22.04-.05-.08.09-.2.17-.27.27.17-.13.21-.16.1-.08l-.05.03c-.07.04-.14.08-.22.11l.3-.13c-.11.05-.22.08-.34.1l.33-.04c-.1.01-.2,0-.3,0l.33.04c-.1-.02-.2-.05-.3-.09l.3.13s-.22-.12-.22-.12c.02-.01.23.21.11.08-.04-.04-.08-.07-.11-.11-.03-.03-.13-.16,0,0s.03.03,0,0c-.06-.09-.1-.18-.14-.28l.13.3c-.13-.31-.19-.63-.24-.96l.04.33c-.02-.18-.03-.35-.01-.52l-.04.33c.02-.14.06-.27.11-.4l-.13.3c.06-.12.12-.24.2-.36.03-.04.16-.21.03-.04s.02-.02.05-.05c.02-.02.23-.26.26-.25,0,0-.29.19-.04.05.06-.03.11-.06.17-.09l-.3.13c.1-.04.21-.07.32-.08l-.33.04c.09,0,.17,0,.26,0l-.33-.04c.07.01.12.03.19.05l-.3-.13.06.03c.31.14.62.22.96.13.29-.08.6-.3.75-.57.29-.55.19-1.42-.45-1.71h0Z"/><path class="cls-1" d="M399.41,223.29c2.28-.49,4.51-1.18,6.66-2.08,1.98-.83,3.93-1.77,5.61-3.13s2.82-3.33,3.77-5.32c.47-.99.91-2,1.33-3.01s1-2.08.59-3.13c-.57-1.49-2.99-.84-2.41.66.11.29-.19.8-.3,1.08-.17.43-.35.86-.53,1.29-.39.91-.8,1.8-1.25,2.69-.84,1.67-1.82,3.19-3.38,4.28-3.14,2.2-7.05,3.47-10.76,4.26-1.57.33-.91,2.74.66,2.41h0Z"/><path class="cls-1" d="M374.39,218.06c6.94,5.26,16.52,5,24.81,5.07,1.61.01,1.61-2.49,0-2.5-7.88-.07-16.96.27-23.55-4.73-1.28-.97-2.53,1.2-1.26,2.16h0Z"/><path class="cls-1" d="M375.3,180.7c-1.04,1.87-1.38,3.98-2.14,5.97s-.96,3.99-1.65,5.96c-.75,2.15-1.24,4.36-1.68,6.59-.46,2.35-.78,4.73-.53,7.13.16,1.58,2.67,1.6,2.5,0-.45-4.29.7-9.01,2.12-13.05.65-1.84.79-3.77,1.5-5.59s1.05-3.96,2.04-5.74c.78-1.41-1.38-2.67-2.16-1.26h0Z"/><path class="cls-1" d="M369.09,206.78c.19,2.1,1.18,3.88,2.21,5.67s1.94,3.57,3.15,5.18c.41.54,1.08.82,1.71.45.53-.31.86-1.17.45-1.71-1.14-1.51-2.01-3.21-2.96-4.84-.85-1.46-1.91-3.02-2.06-4.75-.06-.67-.53-1.25-1.25-1.25-.63,0-1.31.57-1.25,1.25h0Z"/><path class="cls-1" d="M381.36,204.86l-.1-3.73c-.03-.97.07-2.06-.3-2.97-.65-1.6-2.93-1.99-3.5-.08-.31,1.03-.06,2.18-.17,3.23s-.53,2.15-.83,3.22c-.35,1.23-.49,2.48-.73,3.73-.11.6-.26,1.19-.45,1.78-.05.16-.41,1.31-.36,1.28l.96-.13c.4.09-.07-1.21-.06-1.5,0-.51.16-1.01.24-1.5.15-1,.12-1.97.08-2.98-.07-1.95.43-3.8.46-5.74.01-1.01-.09-2.02-.09-3.03s.22-1.99.4-2.99c.34-1.99-.34-3.83.76-5.67.83-1.38-1.33-2.64-2.16-1.26-.54.9-.91,1.86-1.02,2.91-.11.95.1,1.87.06,2.82-.05,1.17-.46,2.31-.52,3.49-.06,1.09.06,2.17.07,3.26.03,2.24-.51,4.39-.43,6.64s-.65,4.21.12,6.38c.26.73.6,1.41,1.43,1.56.78.15,1.38-.29,1.74-.96,1.09-2.04,1.16-4.36,1.67-6.56.24-1.04.63-2.05.88-3.09.23-.95.59-2.46.31-3.42.16-.68-.22-.83-1.16-.45l.05.3c-.13.47.04,1.23.05,1.72l.1,3.73c.04,1.61,2.54,1.61,2.5,0h0Z"/><path class="cls-1" d="M378.98,204.83c-.21,3.16-.07,6.73,1.08,9.72.47,1.2,1.16,2.54,2.52,2.86s2.6-.75,3.38-1.73c.85-1.07,1.28-2.31,1.79-3.56.04-.09.21-.36.2-.45l.07-.11-.53.05s.39.58.43.64c.42.62.93,1.14,1.52,1.62,1.07.87,2.29,1.75,3.71,1.12,1.28-.57,2.01-2.04,2.66-3.2.88-1.56,1.76-3.13,2.51-4.76.17-.37,1.52-4.27,2.18-3.7,1.21,1.05,2.99-.71,1.77-1.77-1.31-1.13-3.12-.9-4.27.37s-1.52,3.21-2.25,4.71c-.85,1.73-1.76,3.48-2.81,5.09-.14.22-.5.94-.81.99-.18.03-.68-.43-.79-.51-.73-.56-1.18-1.19-1.71-1.91-.94-1.28-2.59-1.52-3.62-.2-.93,1.2-1.04,2.85-2.01,4.05-.1.12-.7.85-.84.84-.28-.03-.61-.93-.69-1.11-.35-.82-.52-1.72-.68-2.59-.39-2.13-.46-4.3-.31-6.46.11-1.61-2.39-1.6-2.5,0h0Z"/><path class="cls-1" d="M401.13,203.71c2.12.59,3.94,1.81,5.37,3.48,1.73,2.03,2.46,4.17,1.46,6.73l1.21-.92c-.88.05-2.21-1.41-2.81-1.94-.83-.73-1.6-1.51-2.33-2.34-1.61-1.84-2.84-3.79-3.52-6.14s-2.33-4.07-3.18-6.31-1.15-4.68-.42-7.04l-1.84.75c1.18.82,1.42,2.35,1.45,3.68s.02,2.7-.22,4c-.11.59-.27,1.58-.67,2.05s-1.01.4-1.59.39c-1.24-.01-2.53-.29-3.53-1.06-1.06-.81-1.64-2.16-2.24-3.32-.66-1.28-1.28-2.57-1.85-3.89s-1.08-2.59-1.55-3.91-1.21-2.92-.86-4.4c.38-1.56-2.03-2.23-2.41-.66-.48,2,.19,3.86.86,5.73s1.38,3.59,2.17,5.34c1.53,3.37,3.06,7.32,6.99,8.36,1.43.38,3.44.61,4.83-.03,1.56-.72,2.1-2.79,2.35-4.35.54-3.43.73-7.88-2.45-10.09-.69-.48-1.62.03-1.84.75-.8,2.61-.62,5.4.28,7.97.45,1.29,1.05,2.54,1.78,3.7.4.64.88,1.24,1.19,1.93s.46,1.52.71,2.27c.84,2.5,2.58,4.75,4.36,6.66.94,1.01,1.96,1.93,3.05,2.78.97.76,2,1.7,3.3,1.62.6-.04.99-.37,1.21-.92,2.31-5.94-3.09-11.76-8.58-13.28-1.55-.43-2.21,1.98-.66,2.41h0Z"/><path class="cls-1" d="M376.72,181.26c-.34,1.86-.78,3.7-1.31,5.52-.18.63.22,1.39.87,1.54s1.34-.2,1.54-.87c.53-1.82.97-3.66,1.31-5.52.12-.64-.18-1.38-.87-1.54-.61-.14-1.41.19-1.54.87h0Z"/><path class="cls-1" d="M371.26,173.78c-1.1,1.35-1.97,2.79-2.64,4.4s-1.74,2.96-2.5,4.53-1.17,3.3-1.98,4.85-1.74,2.93-2.21,4.61c-.36,1.29-.89,3.37.33,4.37s3.13-.13,4.24-.75c1.34-.74,2.79-1.65,3.75-2.86,1.13-1.42,1.87-3.27,2.58-4.93,1.65-3.86,2.48-8.08,2.89-12.24.16-1.6-2.34-1.59-2.5,0-.39,3.9-1.2,7.93-2.79,11.53-.72,1.63-1.48,3.69-2.9,4.84-.62.5-1.31.94-2,1.33-.4.23-.82.46-1.25.64-.4.17-1.34.15-.63.55.3.34.42.32.35-.03.01-.25.04-.49.08-.73.08-.47.2-.94.34-1.39.27-.84.68-1.6,1.12-2.36.92-1.61,1.58-3.24,2.23-4.97s1.88-3.17,2.64-4.88,1.42-3.3,2.6-4.74c1.01-1.24-.75-3.01-1.77-1.77h0Z"/><path class="cls-1" d="M370.59,171.82c-2.05,1.22-3.85,2.53-5.09,4.62-.63,1.06-1.18,2.18-1.65,3.31s-.75,2.41-1.15,3.62-1.47,2.11-2.33,3.01-1.67,1.78-2.54,2.63c-1.48,1.44-3.8,2.11-4.73,4.06-.69,1.44,1.46,2.71,2.16,1.26.42-.87,1.22-1.27,2.02-1.75.9-.54,1.7-1.19,2.45-1.92.87-.86,1.71-1.77,2.56-2.66.79-.83,1.68-1.65,2.26-2.65s.74-2.08,1.06-3.15c.35-1.18.87-2.29,1.44-3.38.54-1.03,1.1-2.03,1.94-2.84s1.87-1.4,2.87-2c1.38-.82.12-2.99-1.26-2.16h0Z"/><path class="cls-1" d="M370.71,170.22c-2.34.17-3.94,2.14-5.44,3.75-1.62,1.73-3.2,3.51-4.37,5.58-2.42,4.29-5.22,8.35-7.63,12.66-.79,1.41,1.37,2.67,2.16,1.26,2.16-3.86,4.82-7.44,6.91-11.33,1.01-1.88,2.12-3.56,3.54-5.15.69-.76,1.39-1.52,2.1-2.26s1.66-1.93,2.73-2.01c1.6-.11,1.61-2.61,0-2.5h0Z"/><path class="cls-1" d="M371.78,169.91c-1.37-1.55-3.16-2.69-5.16-3.22-1.14-.3-2.26-.29-3.43-.37-1.29-.09-2.5-.53-3.8-.56-1.18-.03-2.36.1-3.55.07-1.26-.03-2.51-.12-3.77.04-2.53.32-4.86,1.35-7.17,2.37-1.47.65-.2,2.81,1.26,2.16,2.02-.9,4.14-1.85,6.37-2.08,2.08-.22,4.32-.04,6.42-.06,1.1,0,2.08.27,3.15.45s2.07.06,3.09.23c1.92.31,3.56,1.3,4.83,2.74,1.07,1.21,2.83-.57,1.77-1.77h0Z"/><path class="cls-1" d="M368.55,168.66c-2.03,1.22-4.19,2.16-6.49,2.77s-4.53.91-6.77,1.48-4.33,1.14-6.5,1.71-4.73.27-7.04.23c-1.61-.03-1.61,2.47,0,2.5,2.33.04,4.84.36,7.13-.17s4.71-1.25,7.07-1.85,4.83-.93,7.19-1.6,4.58-1.66,6.66-2.9c1.38-.83.12-2.99-1.26-2.16h0Z"/><path class="cls-1" d="M361.22,173.65c.31.87-.93,2.5-1.37,3.26-.63,1.11-1.32,2.18-2.02,3.25-1.5,2.29-2.98,4.61-4.71,6.73-3.03,3.71-6.81,6.73-9.43,10.77-.88,1.36,1.29,2.61,2.16,1.26,2.88-4.45,7.2-7.74,10.37-11.98,1.69-2.26,3.25-4.64,4.75-7.03.72-1.14,1.4-2.3,1.99-3.52.52-1.07,1.1-2.2.67-3.4-.53-1.51-2.95-.86-2.41.66h0Z"/><path class="cls-1" d="M359.95,172.62c-1.09,2.14-3.03,3.85-4.65,5.59-1.8,1.93-3.65,3.81-5.51,5.68-3.62,3.63-6.73,7.86-10.69,11.13-1.24,1.03.54,2.79,1.77,1.77,2-1.65,3.72-3.55,5.42-5.51,1.79-2.05,3.65-4.01,5.57-5.93s3.7-3.76,5.5-5.69c1.67-1.8,3.63-3.57,4.75-5.78.73-1.43-1.43-2.7-2.16-1.26h0Z"/><path class="cls-1" d="M353.13,192.27c-.16.3-.33.6-.51.88-.09.14-.18.27-.27.4-.05.07-.1.13-.14.2-.19.26.16-.2-.04.05-.42.52-.87,1-1.35,1.47s-.99.91-1.51,1.33c-.25.21-.51.41-.77.62-.14.11-.28.22-.43.33s.23-.18-.02.01c-.08.06-.16.12-.23.18-.27.21-.48.4-.57.75-.08.3-.05.7.13.96.33.51,1.16.87,1.71.45,2.35-1.81,4.78-3.68,6.18-6.37.3-.58.17-1.38-.45-1.71-.58-.3-1.39-.17-1.71.45h0Z"/><path class="cls-1" d="M355.26,191.52c-.44.51-.96.95-1.49,1.38-.57.46-1.14.91-1.71,1.37-.23.19-.37.6-.37.88,0,.31.14.67.37.88s.55.38.88.37l.33-.04c.21-.06.4-.17.55-.32.57-.46,1.14-.91,1.71-1.37.53-.43,1.05-.87,1.49-1.38.22-.25.37-.54.37-.88,0-.31-.14-.67-.37-.88s-.55-.38-.88-.37-.67.12-.88.37h0Z"/><path class="cls-1" d="M348.11,197.81c-1.79.35-3.22,1.6-4.99,1.94-1.86.36-4.2.29-6.01-.26s-3.66-1.05-5.26-1.95c-.8-.45-1.56-.93-2.39-1.32s-1.73-.71-2.4-1.38c-1.14-1.13-2.91.63-1.77,1.77,1.39,1.38,3.46,2.04,5.14,3,1.84,1.05,4,1.68,6.02,2.29s4.37.63,6.45.39,3.8-1.67,5.88-2.07c1.58-.31.91-2.72-.66-2.41h0Z"/><path class="cls-1" d="M350.37,176.45c-.44,1.09-1.23,2-1.96,2.9-.78.96-1.54,1.94-2.35,2.88-1.58,1.82-3.46,3.36-5.06,5.16s-3.25,3.8-4.87,5.71c-1.49,1.76-3.3,3.52-3.8,5.86-.34,1.57,2.07,2.24,2.41.66.5-2.31,2.67-4.18,4.14-5.92,1.65-1.94,3.26-3.93,5.01-5.78,1.62-1.69,3.36-3.21,4.84-5.03s3.14-3.58,4.04-5.78c.61-1.49-1.81-2.14-2.41-.66h0Z"/><path class="cls-1" d="M339,195.26c-.14.15-.36.45-.56.52.08-.03.15-.11.02-.02-.05.04-.1.07-.16.11-.11.07-.22.14-.33.2-.22.13-.45.25-.69.36-.11.05-.24.13-.35.16.09-.02.17-.07.03-.01-.08.03-.15.06-.23.09-1.1.43-2.24.8-3.25,1.41-.56.33-.82,1.14-.45,1.71s1.11.81,1.71.45c.25-.15.5-.28.77-.41.06-.03.12-.06.19-.09.02-.01.23-.1.09-.04s.06-.02.09-.04c.06-.03.13-.05.19-.08.54-.21,1.08-.4,1.61-.62,1.14-.47,2.24-1.02,3.09-1.94.44-.48.51-1.3,0-1.77-.48-.44-1.29-.51-1.77,0h0Z"/><path class="cls-1" d="M343.52,197.7c-.41.65-.77,1.34-1.08,2.04-.09.14-.14.3-.15.46-.04.17-.03.33.02.5.08.29.3.6.57.75.29.15.64.23.96.13.29-.09.62-.28.75-.57.31-.71.67-1.39,1.08-2.04.17-.27.21-.66.13-.96s-.3-.6-.57-.75c-.29-.15-.64-.23-.96-.13s-.57.29-.75.57h0Z"/><path class="cls-1" d="M351.19,175.51c-2.23.35-3.98,1.92-5.9,2.99-2.06,1.15-4.24,2.07-6.42,2.98-2.39,1-4.77,2-7.17,2.97-.94.38-1.89.79-2.87,1.07-.6.17-1.23.32-1.85.26-.79-.08-.47-.37-.18-.95,1.97-3.94,7.31-3.41,9.68-6.77,1.01-1.43.77-3.41-1.16-3.82-1.07-.23-2.3.01-3.37.12-1.22.12-2.43.27-3.64.45-1.59.23-.91,2.64.66,2.41,1.3-.19,2.61-.34,3.93-.44.22-.02,1.63-.26,1.75-.1-.21-.27-.64.43-.91.63-1.55,1.15-3.6,1.56-5.27,2.53-1.77,1.02-3.34,2.47-4.13,4.39s-.33,3.54,1.87,3.98,4.23-.55,6.14-1.33c2.4-.97,4.78-1.97,7.17-2.97,2.09-.88,4.19-1.74,6.21-2.8s3.87-2.82,6.11-3.17c1.58-.25.91-2.66-.66-2.41h0Z"/><path class="cls-1" d="M345.05,168.1c-.87.54-1.61,1.27-2.34,1.98s-1.4,1.42-2.01,2.23-1.24,1.76-1.24,2.79c0,1.36,1.22,2.47,2.58,2.14.64-.15,1.08-.91.87-1.54-.21-.66-.86-1.04-1.54-.87.13-.03.27-.02.39.04.04.02.21.17.14.09-.1-.12.12.25,0,0,.02.04.11.22.06.26.02-.01,0-.19,0-.22-.02.25.03,0,.04-.05.03-.17-.07.13,0-.02.04-.09.09-.17.13-.26.17-.31.37-.61.58-.9.05-.07.1-.14.02-.03.06-.08.12-.16.19-.23.11-.14.23-.27.35-.41.46-.52.96-1.01,1.46-1.49.26-.25.53-.51.8-.75.14-.12.28-.25.42-.36-.11.08-.01.01.04-.03.1-.07.2-.14.31-.2.56-.34.82-1.13.45-1.71s-1.11-.82-1.71-.45h0Z"/><path class="cls-1" d="M321.83,163.92c-1.39.69-2.79,1.43-3.89,2.55-1.17,1.2-1.84,2.77-2.56,4.25-.6,1.24-1.79,2.86-1.79,4.29,0,.86.49,1.71.81,2.49.34.83.64,1.7,1.04,2.51s1.09,1.37,1.48,2.14c.38.73.53,1.62.75,2.4.47,1.69.86,3.43,1.46,5.07,1.12,3.1,3.58,4.95,6.26,6.68,1.35.88,2.61-1.29,1.26-2.16-2.34-1.51-4.45-3.04-5.31-5.81-.44-1.4-.8-2.82-1.19-4.23s-.66-2.77-1.54-3.92c-.96-1.26-1.48-2.58-2.07-4.04-.36-.89-.45-1.18-.02-2.07.31-.63.61-1.26.92-1.89.65-1.34,1.22-2.86,2.27-3.96.93-.97,2.2-1.57,3.38-2.16,1.44-.72.17-2.88-1.26-2.16h0Z"/><path class="cls-1" d="M345.66,167.18c-7.73.07-16.09.06-23.16,3.62-2.07,1.04-7.11,3.95-4.46,6.8,1.26,1.35,3.07,1.06,4.7.81,2.03-.31,4.07-.62,6.11-.87,1.58-.19,1.6-2.7,0-2.5-1.5.18-2.99.39-4.48.61-.53.08-4.53.98-4.52.11,0-.38,1.07-1.02,1.34-1.23.57-.43,1.19-.82,1.81-1.17,1.27-.71,2.61-1.25,3.99-1.69,6.02-1.9,12.41-1.93,18.66-1.99,1.61-.01,1.61-2.51,0-2.5h0Z"/><path class="cls-1" d="M373.98,164.03c-1.69-1.17-3.65-1.74-5.64-2.17-2.14-.47-4.29-.9-6.45-1.3-4.6-.86-9.23-1.46-13.91-1.4s-9.24.64-13.81,1.33c-4.03.61-8.62.88-12.04,3.32-1.3.93-.05,3.1,1.26,2.16,3.16-2.26,7.48-2.47,11.2-3.03,4.43-.67,8.9-1.22,13.39-1.28s8.71.47,13.01,1.26c2.1.39,4.19.82,6.28,1.26,1.93.41,3.8.87,5.45,2.01,1.33.91,2.58-1.25,1.26-2.16h0Z"/><path class="cls-1" d="M373.52,163.53c-1.95-.98-3.51-2.53-5.33-3.72s-3.62-2.01-5.57-2.7c-4.12-1.45-8.47-1.85-12.81-1.82-2.46.02-4.91.05-7.37-.04s-4.43.43-6.65,1.11c-3.69,1.13-8.18,2.2-10.69,5.38-.99,1.25.77,3.03,1.77,1.77,2.39-3.03,6.94-3.96,10.46-5,2.1-.62,3.91-.8,6.1-.71s4.58,0,6.87,0c3.97,0,7.89.42,11.65,1.74,1.88.66,3.68,1.55,5.32,2.68s3.14,2.57,4.98,3.49c1.44.72,2.7-1.44,1.26-2.16h0Z"/><path class="cls-1" d="M319.38,123.46c-1.04,3.78-1.64,7.67-1.76,11.58-.06,1.96-.2,3.76-.54,5.68-.32,1.82.09,3.44.58,5.19.52,1.83.44,3.69.8,5.55.31,1.63,1.12,3.07,1.82,4.55.75,1.59,1.21,3.24,1.78,4.89.47,1.36,1.14,2.65,2.49,3.29,1.45.68,2.72-1.48,1.26-2.16-1.21-.57-1.41-2.05-1.78-3.21-.48-1.53-1.08-3.01-1.78-4.45-.73-1.51-1.35-2.89-1.51-4.59s-.32-3.3-.8-4.97c-.23-.81-.49-1.63-.52-2.48s.22-1.6.37-2.4c.32-1.7.27-3.41.33-5.13.13-3.62.7-7.19,1.66-10.68.43-1.55-1.99-2.22-2.41-.66h0Z"/><path class="cls-1" d="M330.23,146.13c-1.35,1.68-2.68,3.57-2.38,5.85.23,1.76,1.61,3.39,3.47,3.47,1.74.07,4.06-1.36,3.62-3.35-.37-1.69-2.39-3.21-4.11-3.28-1.85-.08-3.22,1.6-2.9,3.4.34,1.94,2.18,3.07,3.99,3.38,2.33.4,4.81.29,7.17.26,2.47-.03,4.93-.19,7.4-.37,2.8-.21,5.55,0,8.34.2,1.35.09,2.68.16,3.96.64s2.41,1.1,3.69,1.48c1.54.46,2.2-1.95.66-2.41-1.68-.5-3.2-1.47-4.92-1.84s-3.62-.38-5.41-.5c-3.89-.27-7.66.12-11.54.25-1.94.07-3.88.08-5.82.04-1.35-.03-3.9.24-4.82-1.03-.73-1.01.22-1.08.92-.65.3.19.91.58.65,1.04-.16.28-.78.29-1.05.2-.97-.33-.95-1.64-.73-2.42.28-.97.94-1.81,1.56-2.58,1-1.24-.76-3.02-1.77-1.77h0Z"/><path class="cls-1" d="M338.16,139.98c.16.44.21.76.21,1.2v.16c0-.11.04-.21.13-.3.02-.07.2-.09-.03-.01-.21.08-.35.18-.53.24-.92.31-1.67.43-2.64.35-.39-.03-.78-.11-1.21-.21s-.95-.22-1.2-.36c-.31-.17-.4-.27-.56-.52-.19-.31.02.09-.04-.1-.03-.1-.06-.2-.07-.3.01.08,0,.17.01-.04.03-.4-.05.23.02-.16.06-.33-.06.08.02-.09.04-.09.09-.18.15-.25-.16.2.27-.21.06-.05-.01,0,.31-.18.16-.11s.19-.06.18-.05c-.07.02-.27,0,.06,0,.05,0,.3.02.3.02.82.12,1.96.24,2.63.55.08.04.15.09.23.13.28.13-.11-.14.11.07.11.1.22.21.31.32-.14-.18,0,.02.04.07.05.08.09.17.14.25.02.04.09.22.01.01.04.11.07.22.1.33.02.07.03.15.05.22-.05-.24,0,0,0,.06,0,.08-.03.55.01.29-.03.18-.07.38-.15.55.03-.07.08-.15-.04.06-.07.12-.14.24-.23.35-.49.63-1.41,1.15-2.27,1.59-1.05.53-2.13.98-3.2,1.46-.62.28-.76,1.17-.45,1.71.37.63,1.09.73,1.71.45,1.21-.54,2.45-1.05,3.62-1.68s2.33-1.45,2.97-2.62c1.22-2.2.16-5.03-2.15-5.96-.56-.23-1.14-.33-1.73-.42-.71-.11-1.45-.34-2.18-.29-1.32.08-2.46,1.02-2.86,2.27s.07,2.72,1.05,3.57,2.35,1.13,3.59,1.31c1.61.24,3.19.06,4.68-.58.77-.33,1.43-.75,1.61-1.64.17-.81.04-1.72-.23-2.49-.23-.64-.85-1.06-1.54-.87-.62.17-1.1.9-.87,1.54h0Z"/><path class="cls-1" d="M374,163.65c-1.3-1.94-2.94-3.6-4.87-4.91s-4.22-2.16-6.33-3.24c-.6-.31-1.36-.16-1.71.45-.33.56-.15,1.4.45,1.71,2,1.03,4.13,1.82,6.03,3.04,1.69,1.09,3.16,2.54,4.28,4.21.38.56,1.1.8,1.71.45.56-.32.83-1.15.45-1.71h0Z"/><path class="cls-1" d="M375.62,162.2c-1.11-2.51-2.65-4.78-4.15-7.07s-3.14-4.77-4.8-7.08c-3.16-4.4-6.68-8.49-10.65-12.17-1.18-1.09-2.95.67-1.77,1.77,3.94,3.64,7.43,7.69,10.54,12.05,1.56,2.2,3.05,4.44,4.52,6.7s3.04,4.56,4.15,7.07c.65,1.47,2.8.2,2.16-1.26h0Z"/><path class="cls-1" d="M345.04,134.05c1.44.58,2.76,1.44,3.87,2.52s1.86,2.46,2.95,3.57c1.14,1.17,2.56,2.08,3.77,3.18s2.41,2.33,3.55,3.57c4.77,5.21,9.26,10.7,13.87,16.06,1.05,1.22,2.81-.55,1.77-1.77-4.8-5.58-9.45-11.36-14.49-16.73-1.2-1.28-2.45-2.51-3.78-3.66s-2.7-2.01-3.7-3.39c-1.9-2.61-4.13-4.54-7.14-5.77-1.49-.61-2.14,1.81-.66,2.41h0Z"/><path class="cls-1" d="M321.76,124.08c.3-.88.62-1.75.97-2.61.21-.52.49-1.68.98-2s1.92.04,2.45.13c.93.15,1.85.39,2.75.66,1.65.48,3.33,1.02,4.92,1.68,1.68.69,3.17,1.72,4.68,2.7,5.58,3.62,12.16,7.02,15.77,12.82.85,1.36,3.01.11,2.16-1.26-2.07-3.33-4.89-5.75-8.06-8-3.35-2.39-6.84-4.62-10.32-6.82s-7.71-3.66-11.7-4.24c-1.58-.23-3.51-.52-4.65.85s-1.78,3.73-2.36,5.45c-.52,1.53,1.89,2.18,2.41.66h0Z"/><path class="cls-1" d="M340.76,139.36c-.49-3.54-5.31-5.21-8.09-6.49-1.87-.86-3.77-1.66-5.63-2.55-.93-.44-1.84-.9-2.74-1.39-.38-.21-.77-.43-1.14-.66-.15-.09-1.18-.84-1.2-.58l-.37.88c.48-.57,2.49.1,3.17.22,1.07.2,2.12.49,3.19.65,1.57.24,3.44-.16,4.03-1.84.52-1.52-.44-3.04-1.73-3.79-.79-.46-1.72-.72-2.57-1.03s-2.17-.55-2.92-1.12c-1.22-.95.53-.54,1.05-.35.9.33,1.75.8,2.58,1.28,1.85,1.08,3.61,2.3,5.38,3.5,3.8,2.57,7.61,5.14,11.41,7.71,1.34.9,2.59-1.26,1.26-2.16-4.74-3.2-9.44-6.45-14.22-9.59-2.05-1.35-4.36-3-6.83-3.45-1.88-.35-3.92.75-3.56,2.91.4,2.43,3.22,3,5.17,3.7.38.13,3.15.91,2.51,1.7-.53.65-3.34-.37-4.09-.51-1.67-.31-5.65-1.39-5.97,1.3-.12,1,.57,1.53,1.32,2.04,1.09.73,2.25,1.37,3.42,1.97,2.62,1.34,5.35,2.45,8.01,3.7,1.33.62,2.65,1.28,3.91,2.03,1.04.62,2.05,1.31,2.23,2.59.22,1.59,2.63.91,2.41-.66h0Z"/><path class="cls-1" d="M379.7,153.39c-2.83-4.69-5.32-9.59-7.38-14.67-.5-1.25-.98-2.5-1.44-3.77-.22-.6-.43-1.2-.63-1.8-.09-.26-.31-1.47-.61-1.6-.16-.07-.17.38-.23.6-.12.42-.29.83-.38,1.26-.19.94-.02,1.74.62,2.46,1.07,1.21,2.83-.57,1.77-1.77.1.12.03-.09.08-.27.09-.3.19-.59.28-.89.15-.51.28-1.04.26-1.58-.06-1.23-.98-2.24-2.23-2.3s-2.29.72-2.51,1.93c-.27,1.53.74,3.42,1.25,4.82,2.38,6.56,5.39,12.87,9,18.84.83,1.38,2.99.12,2.16-1.26h0Z"/></svg>