<?xml version="1.0" encoding="UTF-8"?><svg id="Layer_1" xmlns="http://www.w3.org/2000/svg" width="117.22mm" height="80.39mm" viewBox="0 0 332.29 227.88"><defs><style>.cls-1{fill:#e6eda7;}.cls-1,.cls-2{stroke-width:0px;}.cls-3{font-family:Magilio-Regular, Magilio;font-size:80px;}.cls-3,.cls-2{fill:#454934;}</style></defs><rect class="cls-1" x="-1.76" y="-5.48" width="350.8" height="239.31"/><path class="cls-2" d="M166.54,89.45c.64-1.63.38-3.56-.77-4.89-.51-.59-1.26-1.02-2.01-1.21-.89-.22-1.75-.12-2.57.26-.27.12-.5.47-.57.75-.08.3-.05.7.13.96.4.62,1.07.74,1.71.45-.06.03-.29.11-.1.04.05-.02.1-.03.15-.05.1-.03.2-.05.3-.06l-.33.04c.22-.03.44-.03.67,0l-.33-.04c.14.02.28.05.42.09.07.02.18.04.23.08l-.18-.08s.08.03.11.05c.13.07.25.14.37.22.19.12-.25-.21-.03-.02.05.05.11.1.16.15.04.04.08.09.13.14.14.15-.19-.28,0,0,.09.14.17.28.24.42.11.22-.09-.28-.02-.04.03.09.06.18.08.26.04.16.07.32.09.48l-.04-.33c.04.33.04.65,0,.98l.04-.33c-.05.35-.13.69-.26,1.02-.11.28-.02.71.13.96s.45.51.75.57c.32.07.68.06.96-.13s.45-.43.57-.75h0Z"/><path class="cls-2" d="M160.87,84.24c-2.28,3.63-7,5.42-7.96,9.94-.24,1.14-.19,2.37.6,3.29.67.78,1.74,1.07,2.75,1.01,2.15-.12,4.71-1.04,5.45-3.28.41-1.25.06-2.76-1.2-3.35-.55-.26-1.16-.32-1.76-.43-.72-.12-1.43-.24-2.15-.37-.66-.11-1.35.18-1.54.87-.17.6.2,1.42.87,1.54.6.1,1.2.21,1.81.31.52.09,1.15.1,1.64.3.01,0,.02,0,.03,0-.09-.17-.1-.15-.03.05-.04.12-.04.28-.09.4-.12.28-.35.51-.59.68-.7.51-1.77.75-2.62.77-.73.01-.91-.29-.8-1.03.29-1.92,1.86-3.47,3.23-4.71,1.62-1.48,3.32-2.86,4.5-4.74.86-1.37-1.3-2.62-2.16-1.26h0Z"/><path class="cls-2" d="M162.81,94.33c.76-.98,1.56-2.1,2.7-2.55-.08.03.19-.06.24-.07.11-.03.37-.09.39-.09.2-.02.52,0,.67.05.42.11.77.47,1.03.9.6.99.75,2.16.41,3.24-.05.17-.19.42-.24.48-.09.12-.05.08-.18.15.13-.07-.05.02-.07.03-.08.03-.17.05-.26.06.16-.02-.17,0-.22,0-.19,0-.24,0-.3-.02-.35-.05-.7-.14-1.04-.22-1.7-.39-3.37-.85-5.03-1.37-.64-.2-1.36.24-1.54.87-.18.67.23,1.34.87,1.54,1.8.56,3.61,1.06,5.45,1.47.88.2,1.84.36,2.73.09s1.6-.93,1.99-1.78c.79-1.73.63-3.8-.23-5.48-.41-.8-1.04-1.56-1.83-2.01-.85-.48-1.83-.57-2.78-.42-1.99.32-3.36,1.86-4.53,3.37-.41.53-.52,1.25,0,1.77.43.43,1.35.54,1.77,0h0Z"/><path class="cls-2" d="M158.1,97.47c-2.82,3.32-4.1,7.15-4.57,11.43-.51,4.63-.97,9.4-.27,14.04.62,4.06,2.32,7.9,4.84,11.13,1.03,1.32,2.45,3.32,4.38,2.75,1.61-.48,3.19-2.17,4.28-3.4,5.68-6.38,6.69-15.39,6.56-23.6-.06-3.49-.6-7.72-3.57-10.02-1.2-.93-2.83-1.51-4.35-1.16-1.79.42-2.58,1.91-2.94,3.59-2.08,9.6,1.78,20.4-3.25,29.34-.79,1.4,1.37,2.67,2.16,1.26,3.64-6.46,2.99-13.95,2.87-21.08-.03-1.9-.02-3.8.16-5.69.08-.83.18-1.66.34-2.48.14-.73.21-2.02.95-2.42,1.11-.6,2.61.51,3.26,1.32,1.04,1.31,1.5,3.01,1.71,4.64.46,3.54.21,7.34-.21,10.87s-1.29,6.98-2.99,10.09c-.76,1.39-1.65,2.69-2.73,3.85-.53.57-1.09,1.1-1.69,1.59-.21.17-.71.68-.99.73-.63.11-.93-.45-1.3-.87-2.24-2.55-3.84-5.65-4.66-8.94-1.1-4.4-.67-9.01-.27-13.47s1.15-8.35,4.04-11.74c1.04-1.22-.72-3-1.77-1.77h0Z"/><path class="cls-2" d="M226.07,71.32c-4.18.44-8.22,1.53-12.02,3.33-1.9.9-3.71,2-5.57,2.98s-3.63,1.64-5.46,2.44c-3.74,1.64-6.58,4.59-9.94,6.82-3.47,2.31-7.18,4.2-10.68,6.45-4.01,2.57-7.46,5.77-10.87,9.07-1.16,1.12.61,2.89,1.77,1.77,2.92-2.84,5.86-5.66,9.25-7.95s6.9-4.09,10.3-6.22,6.01-4.77,9.3-6.71c1.7-1,3.58-1.63,5.38-2.42s3.48-1.78,5.19-2.72c4.17-2.29,8.61-3.84,13.36-4.34,1.58-.17,1.6-2.67,0-2.5h0Z"/><path class="cls-2" d="M175.95,111.93c3.33-4.87,8.39-8.1,13.34-11.11,5.78-3.51,11.62-6.93,17.5-10.26,5.63-3.19,11.26-6.55,17.13-9.26s12.38-3.52,18.85-4.1c3.51-.31,7.02-.64,10.51-1.22,3.88-.65,7.71-1.55,11.53-2.45,1.57-.37.9-2.78-.66-2.41-6.79,1.59-13.51,2.88-20.46,3.5-6.47.58-13,1.16-19.06,3.66s-12.02,6.12-17.84,9.4-11.91,6.84-17.79,10.39-11.41,7.03-15.22,12.6c-.91,1.33,1.26,2.58,2.16,1.26h0Z"/><path class="cls-2" d="M227.33,73.83c15.58-5.06,31.57-9.08,47.75-11.7,4.71-.76,9.44-1.36,14.2-1.73,1.59-.12,1.61-2.63,0-2.5-16.57,1.29-33.04,4.96-49.02,9.41-4.56,1.27-9.09,2.64-13.59,4.11-1.52.49-.87,2.91.66,2.41h0Z"/><path class="cls-2" d="M265.87,73.37c5.78-2.26,11.63-4.4,17.67-5.86,3.02-.73,6.1-1.32,9.2-1.57.65-.05,1.35-.11,1.99,0,.26.04.49.12.74.19.57.14.54.08.27.44-.65.88-1.68,1.55-2.54,2.21-1.68,1.3-3.48,2.84-3.77,5.08-.38,2.94,2.6,3.73,4.94,4.01,1.39.16,2.8.16,4.19.29,1.3.12,3.13.2,4.3.87.76.44.03.93-.43,1.39-.41.42-.84.82-1.27,1.21-1.1,1-2.36,1.83-3.44,2.85-1.79,1.69-2.33,4.09-.94,6.22.59.91,1.41,1.65,2.3,2.25.66.45,3.45,1.43,3.07,2.57-.27.82-2.25.6-2.89.62-1.72.04-3.45.09-5.17.13-3.28.08-6.57.16-9.85.24-1.56.04-3.12.08-4.68.12-1.26.03-2.89-.21-4.02.49-.83.51-1.22,1.47-.78,2.38.48.99,1.88,1.5,2.87,1.76,1.31.34,2.7.35,4.04.48,1.56.15,3.11.37,4.64.66,2.99.57,5.94,1.38,8.8,2.44.9.33,1.79.69,2.67,1.07.38.16,1.67.55,1.74,1.01.11.68-1.43.59-1.87.61-.9.06-1.79.09-2.69.1-3.67.06-7.35-.16-11.02-.07-1.79.04-3.58.14-5.35.4-1.16.17-2.11,1-1.73,2.3s1.98,2.26,3,3.03c1.41,1.06,2.9,1.95,4.49,2.72,1.44.7,2.71-1.46,1.26-2.16-1.18-.57-2.33-1.21-3.42-1.95-.52-.35-1.02-.72-1.5-1.11-.42-.34-1.37-.91-1.45-1.5l-.13.96c-.2.35.83.05.94.04.32-.03.65-.06.97-.09.81-.06,1.62-.1,2.44-.13,1.63-.05,3.26-.03,4.89,0,3.18.05,6.37.16,9.55-.06,2.08-.14,4.95-.95,4.07-3.72-.35-1.11-1.34-1.81-2.34-2.28-1.39-.65-2.84-1.22-4.28-1.74-2.72-.98-5.53-1.74-8.37-2.28-1.46-.28-2.93-.49-4.4-.66s-2.9-.12-4.28-.49c-.18-.05-.62-.27-.81-.27l-.35-.19c-.47.66-.52.94-.15.83.43.21,1.56-.06,2.08-.07,1.72-.04,3.45-.09,5.17-.13,3.2-.08,6.4-.16,9.61-.24,1.56-.04,3.12-.08,4.68-.12,1.24-.03,2.58.05,3.78-.32,2.25-.69,2.97-3.11,1.62-5.01s-4.93-2.24-5.44-4.86c-.23-1.19.73-2.02,1.55-2.7,1.08-.89,2.19-1.71,3.21-2.67,1.64-1.53,3.85-3.96,1.38-5.89-1.9-1.48-5.1-1.53-7.4-1.65-1.42-.08-2.87-.07-4.24-.48-.72-.22-1.25-.36-1.02-1.21.14-.51.45-.97.79-1.37,1.43-1.71,3.56-2.66,4.96-4.41,2.17-2.71-.89-4.54-3.42-4.68-3.14-.18-6.56.63-9.61,1.29-6.68,1.44-13.13,3.78-19.48,6.27-1.48.58-.84,3,.66,2.41h0Z"/><path class="cls-2" d="M174.05,113.14c3.26.74,6.26,2.64,9.28,4.02s6.24,2.76,9.38,4.1c6.27,2.68,12.54,5.37,18.5,8.68,1.41.78,2.67-1.38,1.26-2.16-6.1-3.39-12.52-6.13-18.93-8.86-3.14-1.34-6.27-2.68-9.37-4.11s-6.12-3.32-9.46-4.08c-1.57-.36-2.24,2.05-.66,2.41h0Z"/><path class="cls-2" d="M173.44,119.01c2.26,0,4.36.53,6.37,1.56,1.89.96,3.66,2.16,5.59,3.05s4.05,1.43,6.09,2.12,3.83,1.71,5.63,2.89,3.46,2.21,5.4,3c2.1.85,4.29,1.5,6.44,2.19,4.59,1.47,9.21,2.87,13.84,4.21,2.37.68,4.72,1.31,7.21,1.25s4.97-.58,7.33.42c1.48.62,2.13-1.8.66-2.41-2-.84-4.12-.74-6.24-.6-2.32.15-4.43.01-6.68-.6-4.64-1.26-9.24-2.7-13.82-4.15-2.28-.72-4.57-1.41-6.81-2.22s-4-1.87-5.89-3.12c-1.72-1.13-3.44-2.17-5.37-2.89-2.07-.78-4.24-1.24-6.27-2.12-2.24-.97-4.23-2.41-6.43-3.45s-4.57-1.62-7.05-1.61c-1.61,0-1.61,2.51,0,2.5h0Z"/><path class="cls-2" d="M211.63,130.57c4.84,1.85,9.67,3.73,14.53,5.55,4.59,1.72,9.26,3.22,14.19,3.52,1.61.1,1.6-2.4,0-2.5-4.85-.29-9.46-1.89-13.96-3.6s-9.39-3.59-14.09-5.39c-1.5-.58-2.15,1.84-.66,2.41h0Z"/><path class="cls-2" d="M171.8,118.97c.81,2.04,2.11,3.7,3.53,5.35,1.62,1.88,3.15,3.82,4.57,5.86,2.8,4.02,5.24,8.28,7.67,12.53.8,1.4,2.96.14,2.16-1.26-2.36-4.13-4.73-8.26-7.43-12.18-1.31-1.9-2.69-3.74-4.17-5.51s-3.08-3.35-3.92-5.46c-.59-1.48-3.01-.83-2.41.66h0Z"/><path class="cls-2" d="M171.95,121.26c.96,3.63,1.45,7.34,1.41,11.09-.02,1.81-.15,3.62-.39,5.41s-.49,3.57-.2,5.41c.25,1.58,2.66.91,2.41-.66-.29-1.87.19-3.78.4-5.63s.3-3.57.28-5.35c-.04-3.69-.56-7.37-1.5-10.93-.41-1.55-2.82-.9-2.41.66h0Z"/><path class="cls-2" d="M174.03,124.01c1.18,2.77,1.24,5.86,1.41,8.81.18,3.25.36,6.5.54,9.75.09,1.6,2.59,1.61,2.5,0-.19-3.5-.38-7-.58-10.5-.18-3.2-.44-6.35-1.71-9.33-.27-.63-1.18-.75-1.71-.45-.65.37-.71,1.09-.45,1.71h0Z"/><path class="cls-2" d="M208.05,102.39c-5.65,1.75-11.3,3.5-16.96,5.24-2.65.81-5.25,1.35-8.01,1.62s-5.17.6-7.58,1.73c-1.46.68-.19,2.84,1.26,2.16,2.39-1.12,5.05-1.24,7.63-1.52s5.24-.93,7.82-1.72c5.5-1.7,11-3.4,16.5-5.1,1.53-.47.88-2.89-.66-2.41h0Z"/><path class="cls-2" d="M209.48,104.47c3.24-.37,6.09-1.72,9.05-3s6.22-2.39,9.42-3.32c6.47-1.88,13.17-3.65,19.92-4.03,3.51-.2,7.02-.1,10.53,0,3.01.09,6.02.2,8.55,2.04,2.15,1.56,3.59,4.08,3.28,6.79-.28,2.45-2.02,5.01-4.65,5.27-3.43.33-4.96-3.83-4.2-6.58.87-3.16,4.24-4.76,7.3-3.87,1.55.45,2.21-1.96.66-2.41-3.02-.88-6.52-.02-8.62,2.38s-2.64,5.89-1.38,8.8c1.34,3.09,4.67,4.99,7.97,3.83,2.85-1,4.82-3.63,5.31-6.58.52-3.12-.56-6.17-2.77-8.41-2.52-2.55-5.85-3.49-9.34-3.67-4.19-.22-8.44-.31-12.63-.08s-8.16.99-12.17,1.94c-4.49,1.07-8.98,2.22-13.35,3.75-2.07.73-4.1,1.57-6.11,2.46-2.17.96-4.39,1.93-6.76,2.21-1.58.18-1.6,2.68,0,2.5h0Z"/><path class="cls-2" d="M262.22,108.2c-4.41,1.05-9.28.37-13.77.22s-9.14-.23-13.48-1.64c-2.05-.66-3.98-1.65-6.03-2.32s-4.24-.91-6.41-.94c-3.87-.05-8.25-.15-11.19,2.77-2.73,2.71-3.44,6.8-2.4,10.43,1.12,3.89,4,6.91,7.56,8.71,3.92,1.99,8.28,2.82,12.6,3.45,4.66.69,9.36,1.43,14.08,1.41,2.55-.01,5.02-.39,7.54-.75,2.74-.4,5.29-.23,7.98.4,5.06,1.18,10.06,2.7,15.31,2.58,1.61-.04,1.61-2.54,0-2.5-4.3.1-8.45-.95-12.59-1.99-2.08-.52-4.18-1.06-6.32-1.22s-4.16.18-6.22.49c-4.44.68-8.84.5-13.29-.04-4.24-.51-8.55-1.02-12.69-2.12-3.81-1.01-7.82-2.64-10.1-6.04-2.04-3.04-2.67-7.3-.32-10.37s7.13-2.83,10.74-2.71c2.12.07,4.12.45,6.1,1.2s3.7,1.58,5.64,2.15c4.44,1.3,9.14,1.38,13.73,1.53s9.61.77,14.2-.32c1.56-.37.9-2.78-.66-2.41h0Z"/><path class="cls-2" d="M284.59,115.33c.04.26.34,1.52.27,1.63l.45-.45c-.33.21-1.04.15-1.43.2-.62.08-1.24.16-1.86.24-1.08.14-2.3.16-3.27.72-.85.49-1.53,1.36-1.55,2.37-.02,1.07.6,1.92,1.42,2.54s1.43.9,1.72,1.9c.26.92.41,1.88-.28,2.64-1.41,1.54-3.91,2.1-5.83,2.69-1.53.47-.88,2.88.66,2.41,2.36-.72,5.18-1.47,6.93-3.33s1.58-5.01.02-6.92c-.39-.48-.9-.82-1.41-1.16-.16-.1-.76-.45-.76-.65-.02-.67,2.9-.77,3.28-.82.72-.09,1.45-.18,2.17-.27.61-.08,1.23-.12,1.7-.58.97-.95.36-2.66.18-3.81-.1-.67-.94-1.04-1.54-.87-.71.2-.98.87-.87,1.54h0Z"/><path class="cls-2" d="M289.16,60.53c3.24-.11,6.48-.18,9.72-.16,2.82.02,5.81.1,8.39,1.39,2.33,1.16,4.05,3.13,4.25,5.81.23,2.94-1.25,5.23-2.29,7.85-.48,1.21-.62,2.45-.78,3.74-.2,1.65-.64,3.26-1.03,4.87-.7,2.93-1.12,5.93-1.23,8.95s.3,6.22.03,9.32c-.23,2.57-1.1,5.01-2.31,7.28-2.7,5.05-6.68,9.29-9.21,14.43-.71,1.44,1.45,2.71,2.16,1.26,2.45-4.98,6.25-9.1,8.94-13.94,1.27-2.28,2.3-4.73,2.72-7.32.52-3.2.15-6.41.15-9.62s.44-6.66,1.22-9.92c.37-1.56.77-3.1.99-4.69.24-1.8.54-3.24,1.33-4.88,1.23-2.53,2.11-5.2,1.73-8.05-.35-2.66-1.82-4.86-3.99-6.39-2.69-1.9-6.04-2.42-9.26-2.54-3.84-.14-7.69,0-11.53.13-1.6.05-1.61,2.55,0,2.5h0Z"/><path class="cls-2" d="M294.08,125.37c-1.97,3.36-4.7,6.12-7.47,8.83-1.48,1.45-2.96,2.95-4.65,4.16s-3.4,2.01-5.24,2.7c-3.75,1.4-7.78,2.87-11.82,2.26-4.27-.65-8.51-1.51-12.76-2.27-4.68-.84-9.45-1.62-13.86-3.49-1.46-.62-2.74,1.53-1.26,2.16,4.12,1.75,8.44,2.66,12.82,3.45,4.63.84,9.27,1.71,13.91,2.48,2.21.37,4.33.49,6.53,0,2.06-.46,4.1-1.13,6.09-1.81,4.08-1.41,7.45-3.48,10.56-6.46,3.42-3.27,6.89-6.63,9.31-10.74.82-1.39-1.34-2.65-2.16-1.26h0Z"/><path class="cls-2" d="M241.08,139.66c7.31-.25,14.26,2.3,20.64,5.66,3.06,1.62,6.37,3.25,8.43,6.14,1.93,2.71,2.91,5.94,3.86,9.09.47,1.54,2.88.88,2.41-.66-1.03-3.4-2.12-6.94-4.23-9.85-2.24-3.09-5.52-4.9-8.82-6.67-6.87-3.67-14.4-6.48-22.3-6.21-1.6.05-1.61,2.55,0,2.5h0Z"/><path class="cls-2" d="M248.35,143.02c-2.42-.05-3.69,2.36-3.99,4.44-.18,1.27.08,2.42.75,3.51.57.93,1.25,1.77,2.13,2.42,1.81,1.33,4.28,1.1,5.67-.7,1.18-1.53,1.51-3.77,1.07-5.63-.29-1.22-1.03-2.15-2.03-2.88s-2.25-1.45-3.52-1.31c-.67.08-1.25.52-1.25,1.25,0,.62.57,1.33,1.25,1.25s1.2.27,1.83.68c.31.2.48.31.74.57.07.07.14.14.2.22-.02-.03-.07-.1,0,.02.05.07.1.15.14.23.01.02.13.27.07.13.12.28.2.61.24.92-.02-.17,0,.06,0,.08,0,.09.01.18.01.27,0,.18,0,.37-.01.55,0,.09-.01.18-.02.27,0,.04-.04.27,0,.04-.02.14-.05.28-.08.42s-.07.28-.11.42c-.02.08-.05.16-.08.24-.11.36.05-.09-.04.1-.06.13-.12.26-.2.38-.02.04-.28.41-.14.24-.09.11-.18.2-.28.3-.02.02-.21.17-.1.09s-.14.08-.16.1c-.03.02-.21.11-.02.02-.05.02-.11.04-.17.06-.2.06-.14.06-.36.06s-.14.02-.31-.02c-.17-.04-.38-.1-.45-.14-.58-.26-1.06-.76-1.4-1.23-.41-.56-.85-1.15-.92-1.8-.07-.59.17-1.54.39-2.02.17-.39.31-.63.61-.86-.16.13.31-.17.13-.09.08-.03.17-.06.25-.08-.19.05.14,0,.19,0,.68.01,1.25-.58,1.25-1.25s-.57-1.24-1.25-1.25h0Z"/><path class="cls-2" d="M255.51,206.53c3.79-2.71,7.37-5.71,10.64-9.03s6.38-6.79,8.61-10.8c2.35-4.24,2.97-8.83,3.16-13.61.1-2.64.12-5.28.04-7.92-.05-1.88.21-4.36-1.33-5.74-1.19-1.07-2.97.69-1.77,1.77.69.62.52,1.89.56,2.74.05,1.15.07,2.31.08,3.46.02,2.37-.02,4.74-.15,7.1-.24,4.34-1.11,8.33-3.41,12.06-2.16,3.49-4.98,6.59-7.87,9.49-3.04,3.04-6.33,5.83-9.83,8.33-1.3.93-.05,3.1,1.26,2.16h0Z"/><path class="cls-2" d="M202.07,217.48c9.22,2.27,18.4.99,27.41-1.58s17.55-6.24,26.1-9.9c1.47-.63.2-2.78-1.26-2.16-8.21,3.51-16.46,7.02-25.05,9.52-8.72,2.53-17.59,3.92-26.53,1.71-1.56-.38-2.23,2.03-.66,2.41h0Z"/><path class="cls-2" d="M172.72,143.94c-.27,2.47,0,4.92.33,7.37s.56,4.77.65,7.2.62,4.68,1.2,7.04.61,4.95.88,7.45c.49,4.67,1.52,9.33,2.6,13.9s2.44,8.76,4.73,12.69c.81,1.39,2.97.13,2.16-1.26-2.22-3.82-3.53-8.02-4.53-12.31-1.07-4.58-2.16-9.29-2.55-13.97-.19-2.33-.27-4.66-.82-6.94s-1.09-4.44-1.17-6.83c-.16-4.76-1.49-9.56-.97-14.33.17-1.6-2.33-1.59-2.5,0h0Z"/><path class="cls-2" d="M183.08,200.64c1.93,3.55,5.19,5.98,8.39,8.33,3.7,2.73,7.33,5.73,11.35,7.98,1.41.79,2.67-1.37,1.26-2.16-3.8-2.13-7.23-4.95-10.74-7.53-3.04-2.24-6.26-4.49-8.1-7.89-.77-1.41-2.93-.15-2.16,1.26h0Z"/><path class="cls-2" d="M203.05,187.01c-1.64-3.48-3.21-6.99-4.92-10.43-.55-1.11-1.25-2.2-2.39-2.79-1.3-.66-2.94-.3-3.45,1.16-.45,1.31.32,2.79.82,3.97.71,1.68,1.46,3.29,1.87,5.08.81,3.57.88,7.24,1.8,10.8.43,1.65.91,3.3,1.22,4.98.18.98.28,1.97.35,2.96.02.32.04.63.06.95.02.42-.13,1.56.08,1.9v.3c.76-.15.91-.36.43-.65-.12-.3-.63-.68-.85-.93-.48-.55-.94-1.11-1.32-1.73-1.03-1.69-1.13-3.7-1.74-5.55-1.06-3.2-3-6.03-3.95-9.27-.48-1.64-.81-3.32-1.34-4.94s-1.3-3.31-2.08-4.9c-.84-1.72-1.74-3.43-2.36-5.25s-.83-3.68-1.35-5.51-1.53-3.36-2.33-5.05c-.95-1.99-1.28-4.23-.96-6.41.23-1.57-2.17-2.25-2.41-.66-.54,3.62.31,6.72,2.03,9.89s1.86,6.74,3.23,10.03,3.19,6.22,4.14,9.61c.48,1.72.82,3.47,1.43,5.15s1.36,3.15,2.12,4.69c.8,1.63,1.48,3.25,1.89,5.03s.77,3.31,1.75,4.79c.79,1.18,1.87,2.72,3.1,3.45,1.16.69,2.63.23,2.99-1.13.19-.74.06-1.6.02-2.35-.05-.95-.1-1.9-.21-2.85-.2-1.83-.59-3.6-1.06-5.38-.43-1.65-.89-3.29-1.18-4.97-.33-1.94-.47-3.91-.77-5.85s-.82-3.68-1.57-5.45c-.42-.97-.88-1.93-1.23-2.93-.04-.1-.37-.88-.26-1.02-.17.2.71,1.03.82,1.2,1.04,1.58,1.71,3.49,2.51,5.2l2.9,6.16c.69,1.45,2.84.19,2.16-1.26h0Z"/><path class="cls-2" d="M200.97,187.8c2.13,6.01,5.13,11.91,9.21,16.84,1.66,2.01,4.32,4.88,7.21,4.48,2.73-.38,4-3.74,4.47-6.09.28-1.39.38-2.81.38-4.22s-.25-2.89-.16-4.31c.13-2.05,1.47-1.03,2.61-.27,1.31.87,2.74,1.43,4.25,1.86,2.71.76,5.89,1.41,7.5-1.55,1.48-2.73,1.42-6.45,1.71-9.47.37-3.86.69-7.74.6-11.63-.04-1.77-.37-3.65-.03-5.4.29-1.52,1.53-3.25,3.27-2.61,1.51.56,2.16-1.86.66-2.41-2.36-.87-4.85.7-5.85,2.84-1.28,2.75-.54,6.11-.54,9.03,0,3.4-.29,6.79-.62,10.17-.17,1.71-.3,3.43-.57,5.13-.19,1.16-.37,3.28-1.55,3.93s-3.39-.28-4.56-.64c-1.53-.47-2.63-1.27-3.98-2.06-2.22-1.3-4.77-.65-5.29,2.07-.24,1.27-.04,2.58.02,3.85.06,1.53.08,3.1-.18,4.61-.22,1.33-.63,2.7-1.4,3.82-1.17,1.7-2.87.34-4.03-.68-2.53-2.23-4.42-5.21-6.12-8.1-1.84-3.14-3.37-6.45-4.59-9.88-.53-1.51-2.95-.86-2.41.66h0Z"/><path class="cls-2" d="M242.86,165.49c5.28-.8,10.73.38,15.4,2.91,2.29,1.24,4.62,2.78,6.24,4.84,1.73,2.2,2.35,5.01,2.43,7.75l.62-1.08c-.82.52-1.87.18-2.75,0-1.15-.24-2.3-.51-3.43-.83-2.13-.58-4.22-1.3-6.26-2.13-4.09-1.67-8.22-3.85-11.66-6.65-1.69-1.38-2.98-3.05-4.39-4.7s-3.1-2.89-4.94-4.08c-3.26-2.1-6.24-4.62-8.67-7.66-2.69-3.36-4.61-7.39-5.05-11.7l-1.58,1.21c5.12.86,7.28,6.18,8.97,10.46.99,2.51,1.92,5.13,2.13,7.83.09,1.18.29,2.87-.52,3.85-.75.91-2.34,1.48-3.41,1.92-2.2.9-4.6,1.43-6.99,1.24-2.71-.21-4.96-1.55-7.08-3.17-4.2-3.22-8.19-6.73-11.99-10.41-2.14-2.07-4.21-4.2-6.22-6.39-1.86-2.03-3.71-4.14-4.11-6.96-.22-1.59-2.63-.91-2.41.66.39,2.79,2.09,5.07,3.9,7.13,1.99,2.26,4.1,4.42,6.25,6.53,4.44,4.36,9.14,8.63,14.2,12.26,2.35,1.68,4.95,2.76,7.86,2.88s5.58-.61,8.12-1.73c1.14-.5,2.4-1.08,3.34-1.91,1.14-1.01,1.49-2.38,1.58-3.85.19-3.08-.63-6.17-1.68-9.04-2-5.48-4.75-12.62-11.29-13.72-.72-.12-1.67.32-1.58,1.21.66,6.51,4.08,12.24,8.77,16.7,2.48,2.36,5.3,4.07,8.06,6.05,1.49,1.07,2.61,2.52,3.77,3.92s2.5,2.73,4,3.87c5.92,4.52,13.11,7.65,20.34,9.32,1.51.35,3.3.92,4.86.53.66-.16,1.48-.53,1.69-1.24.22-.76-.03-1.83-.13-2.6-.48-3.56-2.05-6.71-4.77-9.09-6.03-5.26-14.38-7.76-22.28-6.57-1.59.24-.91,2.65.66,2.41h0Z"/><path class="cls-2" d="M176.06,143.44c.92,3.9,1.65,7.85,2.17,11.83.09.67.51,1.25,1.25,1.25.61,0,1.34-.58,1.25-1.25-.54-4.2-1.28-8.37-2.25-12.49-.37-1.57-2.78-.9-2.41.66h0Z"/><path class="cls-2" d="M158.47,133.99c-1.01,3.53-1.37,7.12-1.29,10.78.04,1.94.05,3.83-.29,5.74-.32,1.8-.67,3.59-.74,5.42-.14,3.86.57,7.69.28,11.55-.26,3.5-.86,6.87-.38,10.38.29,2.17.86,7.3,3.89,7.44,1.37.06,2.53-1.21,3.42-2.08,1.24-1.22,2.32-2.6,3.31-4.02,1.94-2.79,3.73-5.69,4.15-9.12s.52-7.29.42-10.88c-.23-8.47-2.12-17.02-4.74-25.05-.5-1.52-2.91-.87-2.41.66,2.09,6.41,3.6,13.03,4.32,19.74.36,3.33.4,6.65.26,9.99s-.08,6.49-1.66,9.41c-1.42,2.63-3.14,5.25-5.26,7.36-.23.23-1.32,1.5-1.62,1.45-.38-.06-.62-1.02-.73-1.38-.5-1.54-.84-3.13-.99-4.74-.29-3.32.4-6.55.57-9.84s-.37-6.75-.34-10.14c.03-3.69,1.13-7.22,1.07-10.94s.13-7.39,1.18-11.06c.44-1.55-1.97-2.21-2.41-.66h0Z"/><path class="cls-2" d="M155.22,130.99c-2.23,3.12-4.43,6.33-5.31,10.13s-1.07,8.32-.83,12.36c.12,2.01.55,3.95.78,5.94.25,2.15-.26,4.08-.98,6.09-1.41,3.94-2.67,8.04-4.44,11.83-1.67,3.58-5.2,6.5-5.24,10.69-.02,1.61,2.48,1.61,2.5,0,.02-1.77.95-3.24,1.92-4.65,1.04-1.49,2.1-2.93,2.88-4.58,1.7-3.56,2.88-7.4,4.23-11.1.67-1.83,1.38-3.65,1.62-5.59s-.16-3.8-.46-5.7c-.66-4.11-.49-8.47.06-12.59.6-4.46,2.86-7.99,5.43-11.58.94-1.31-1.23-2.56-2.16-1.26h0Z"/><path class="cls-2" d="M153.39,128.13c-3.12,1.48-4.43,5.26-5.56,8.27-1.43,3.78-2.81,7.64-3.79,11.56s-1.15,7.91-1.56,11.92-1.31,8.1-1.92,12.15c-.71,4.69-1.3,9.41-1.76,14.13-.16,1.6,2.35,1.59,2.5,0,.49-5.07,1.13-10.12,1.93-15.15s1.65-9.6,2.04-14.49,1.55-9.67,3.19-14.41c.76-2.19,1.49-4.41,2.39-6.55.83-1.99,1.76-4.29,3.82-5.27,1.45-.69.19-2.84-1.26-2.16h0Z"/><path class="cls-2" d="M154.45,126.61c-3.42-1.63-7.21-2.41-11-2.09-1.89.16-3.76.55-5.54,1.21-1.94.72-3.76,1.58-5.81,1.93-1.93.34-3.71.81-5.51,1.59s-3.56,1.74-5.38,2.54c-3.67,1.62-7.39,2.8-10.67,5.18-3.57,2.58-6.56,5.82-9.52,9.06-1.08,1.19.68,2.96,1.77,1.77,2.4-2.64,4.82-5.28,7.58-7.56,2.94-2.42,6.21-3.91,9.72-5.3s6.72-3.48,10.34-4.42c1.79-.46,3.6-.6,5.35-1.26s3.43-1.44,5.26-1.86c4.06-.93,8.39-.42,12.14,1.37,1.45.69,2.72-1.47,1.26-2.16h0Z"/><path class="cls-2" d="M148.39,126.45c-2.14,3.03-4.57,5.83-7.26,8.37-2.86,2.69-6.01,4.91-9.26,7.1-6.61,4.48-12.51,9.9-18.91,14.65-1.86,1.38-4.01,2.18-6.13,3.07-2.28.96-4.57,1.91-6.85,2.87-1.46.61-.82,3.03.66,2.41,2.06-.86,4.11-1.72,6.17-2.58,1.93-.81,3.98-1.52,5.8-2.55,1.68-.95,3.14-2.26,4.63-3.47,1.65-1.33,3.32-2.65,4.99-3.96,3.34-2.62,6.63-5.34,10.13-7.76,3.29-2.28,6.6-4.46,9.58-7.15,3.24-2.91,6.1-6.2,8.61-9.76.93-1.32-1.24-2.57-2.16-1.26h0Z"/><path class="cls-2" d="M138.23,141.02c1.28,1.14.72,3.93.63,5.43-.14,2.33-.4,4.66-.74,6.97-.64,4.38-1.41,8.76-2.24,13.11s-1.81,8.66-3.19,12.87-2.91,7.97-4.37,11.96c-1.64,4.46-3.09,9-3.83,13.7-.25,1.57,2.16,2.25,2.41.66,1.39-8.87,5.34-16.98,8.13-25.45,2.9-8.82,4.41-18.23,5.67-27.41.36-2.62.64-5.24.73-7.88.06-1.99.19-4.29-1.43-5.73-1.2-1.07-2.97.69-1.77,1.77h0Z"/><path class="cls-2" d="M135.01,141.22c-.2,4.23-2.01,8.32-3.38,12.27-1.44,4.17-2.91,8.33-4.47,12.46-3.06,8.09-6.17,16.09-8.77,24.34-1.5,4.77-3.14,9.45-5.41,13.92-.73,1.43,1.43,2.7,2.16,1.26,4-7.87,6.03-16.45,9.02-24.72s6.51-16.88,9.48-25.43c1.58-4.55,3.64-9.23,3.87-14.1.07-1.61-2.43-1.6-2.5,0h0Z"/><path class="cls-2" d="M138.57,186.41c-.42,5.86-3.32,11.14-6.1,16.19-.78,1.41,1.38,2.67,2.16,1.26,3-5.47,5.99-11.11,6.44-17.45.11-1.61-2.39-1.6-2.5,0h0Z"/><path class="cls-2" d="M142.05,183.39c-.43,1.37-1.04,2.6-1.71,3.89-.72,1.37-1.44,2.74-2.16,4.1-.31.6-.15,1.36.45,1.71.56.33,1.39.15,1.71-.45.74-1.41,1.49-2.82,2.23-4.24s1.42-2.83,1.89-4.35c.19-.62-.23-1.39-.87-1.54-.68-.15-1.33.2-1.54.87h0Z"/><path class="cls-2" d="M133.01,202.57c-3.22,2.13-4.92,5.75-7.99,8.03-1.74,1.29-3.76,2.17-5.74,3.02s-4.09,1.75-6.28,2.16-4.23.46-6.34.64c-2.33.2-4.68.49-7.01.32-2.16-.15-4.28-.57-6.46-.6s-4.44.08-6.55-.79c-1.49-.61-2.14,1.81-.66,2.41,2.16.89,4.48.85,6.77.87s4.59.45,6.9.61,4.69-.12,7.01-.32c2.19-.19,4.4-.3,6.57-.66s4.38-1.24,6.48-2.13,4.03-1.69,5.86-2.88c1.69-1.11,3.07-2.51,4.35-4.06s2.59-3.3,4.35-4.46c1.34-.88.09-3.05-1.26-2.16h0Z"/><path class="cls-2" d="M119.23,156.53c.17,4.22-1.45,8.43-2.55,12.45s-2.56,7.87-4.18,11.75c-3.17,7.6-5.2,15.68-7.56,23.56-1.28,4.28-3,8.74-2,13.26.35,1.57,2.76.91,2.41-.66-.89-4,.87-8.15,2-11.93,1.19-3.98,2.37-7.96,3.57-11.93s2.36-7.69,3.9-11.4,3.05-7.52,4.14-11.49c1.21-4.39,2.96-8.98,2.77-13.59-.06-1.6-2.56-1.61-2.5,0h0Z"/><path class="cls-2" d="M112.87,205.06c-.72,2.1-2.23,3.8-3.77,5.34-1.74,1.74-3.55,3.39-4.99,5.4-.39.55-.1,1.39.45,1.71.63.37,1.32.1,1.71-.45,1.41-1.98,3.3-3.55,4.99-5.29s3.22-3.71,4.02-6.05c.22-.64-.25-1.37-.87-1.54-.69-.19-1.32.23-1.54.87h0Z"/><path class="cls-2" d="M124.19,205.32c-.27,1.77-.42,3.56-.42,5.35,0,.65.58,1.28,1.25,1.25s1.25-.55,1.25-1.25c0-.82.03-1.65.09-2.47.03-.39.06-.79.11-1.18.02-.2.05-.39.07-.59.02-.14.02-.13,0,.04,0-.05.01-.1.02-.15.02-.11.03-.23.05-.34.05-.35.06-.65-.13-.96-.15-.26-.45-.51-.75-.57-.59-.14-1.43.18-1.54.87h0Z"/><path class="cls-2" d="M119.69,155.37c-2.95,1.77-4.73,4.67-6.58,7.47-2.14,3.24-4.6,6.25-7.2,9.14-5.46,6.09-11.23,11.92-16.91,17.8-2.47,2.55-4.95,5.52-8.16,7.15-.77.39-1.61.69-2.47.79-1.02.13-1.42.04-1.62-1-.36-1.94-.1-3.96.48-5.83,1.14-3.68,3.61-6.75,6.22-9.51,2.31-2.45,4.94-4.79,6.18-8,.57-1.49.94-3.41.11-4.87-.89-1.56-2.71-1.78-4.28-1.22-2.04.73-3.98,1.95-5.86,3-2.09,1.17-4.15,2.39-6.19,3.66-1.36.85-.11,3.02,1.26,2.16,3.5-2.2,7.1-4.36,10.84-6.13.62-.29,1.71-.88,2.12-.07.32.62-.03,1.67-.23,2.27-.53,1.65-1.63,3.06-2.77,4.33-4.83,5.38-10.7,10.71-10.54,18.59.03,1.47.14,3.48,1.35,4.5,1.12.95,2.87.72,4.2.42,3.34-.78,5.99-3.29,8.35-5.64,5.81-5.8,11.46-11.79,17.07-17.78,2.92-3.12,5.75-6.31,8.29-9.75,2.33-3.15,4.13-7.22,7.6-9.31,1.38-.83.12-2.99-1.26-2.16h0Z"/><path class="cls-2" d="M100.99,145.88c-1.2,1.73-1.94,3.74-2.73,5.68s-1.59,4.03-2.04,6.15c-.39,1.81-.83,4.08.12,5.79.83,1.49,2.94,2.35,4.42,1.25.54-.41.81-1.08.45-1.71-.31-.54-1.17-.85-1.71-.45-1.1.82-1.22-1.54-1.19-2.1.1-1.55.5-3.08.97-4.55s1.08-2.98,1.68-4.45,1.25-3,2.18-4.35-1.25-2.58-2.16-1.26h0Z"/><path class="cls-2" d="M51.2,157.57c-1.72,2.06-3.48,4.16-4.7,6.56s-1.69,4.83-1.88,7.44c-.21,2.99-.26,6-.38,9-.05,1.27-.22,2.6-.05,3.86s.81,2.07,1.66,2.92c2.12,2.12,4.22,4.42,6.57,6.29.92.73,1.91,1.23,2.96,1.75,1.23.61,2.16,1.45,3.05,2.48,1.92,2.22,3.73,4.55,5.59,6.83s3.46,4.47,5.57,6.33c4.36,3.84,10.13,4.93,15.69,5.84,1.57.26,2.25-2.15.66-2.41-4.52-.74-9.3-1.49-13.18-4.11-2.09-1.41-3.69-3.4-5.27-5.33-1.76-2.15-3.51-4.3-5.26-6.45-1.5-1.84-2.93-3.87-5.04-5.06-.96-.54-2-.92-2.9-1.57-1.13-.83-2.1-1.9-3.1-2.87s-1.9-1.86-2.85-2.78c-1.02-.99-1.72-1.58-1.69-3.09.06-2.72.22-5.44.32-8.16.12-2.9.11-5.89,1.23-8.63s2.96-4.9,4.78-7.07c1.02-1.23-.73-3-1.77-1.77h0Z"/><path class="cls-2" d="M100.75,143.95c-11.43,5.13-22.97,10.34-32.94,18.03-4.47,3.45-8.6,7.38-11.78,12.07-1.49,2.19-3.37,4.97-3.68,7.67s1.66,4.59,4.21,4.83c3.23.3,6.2-2.28,8.76-3.9,3.31-2.1,6.64-4.17,10.02-6.17,1.38-.82.13-2.98-1.26-2.16-2.67,1.58-5.32,3.21-7.95,4.86-2.34,1.47-4.66,3.31-7.18,4.43-1.04.46-2.31.72-3.34.09-1.39-.84-.62-2.57-.09-3.72,1.04-2.25,2.38-4.38,3.89-6.35,6.54-8.55,16.16-14.54,25.57-19.46,5.57-2.91,11.31-5.49,17.05-8.06,1.47-.66.2-2.81-1.26-2.16h0Z"/><path class="cls-2" d="M154.06,113c-3.86-.79-7.73-.42-11.58.29s-7.67,1.58-11.49,2.42c-7.7,1.7-15.37,3.59-22.81,6.23-14.18,5.03-27.08,12.85-39.69,20.93-6.23,3.99-13.19,7.89-17.01,14.49-.81,1.39,1.35,2.66,2.16,1.26,3.34-5.77,9.31-9.22,14.76-12.73,6.13-3.94,12.29-7.83,18.64-11.4s12.8-6.77,19.56-9.33c7.01-2.65,14.26-4.58,21.55-6.26,4.04-.93,8.1-1.79,12.16-2.64,4.29-.9,8.71-1.75,13.08-.85,1.57.32,2.24-2.09.66-2.41h0Z"/><path class="cls-2" d="M152.38,112.36c-3.87-.15-7.53-1.48-11.29-2.29-3.49-.76-7.07-1.13-10.64-1.16-7.23-.05-14.45,1.28-21.31,3.53s-13.8,5.85-20.73,8.73c-3.37,1.4-6.92,2.45-9.98,4.48s-5.8,4.54-8.54,6.95c-5.54,4.87-12.22,10.19-14.05,17.7-.38,1.56,2.03,2.23,2.41.66,1.59-6.48,7.22-11.07,11.98-15.33,2.71-2.42,5.43-4.91,8.36-7.06,2.94-2.16,6.27-3.29,9.62-4.64,6.68-2.71,13.07-6.11,19.88-8.51s13.84-3.9,21.01-4.02c3.96-.07,7.91.29,11.78,1.16s7.56,2.13,11.51,2.28c1.61.06,1.61-2.44,0-2.5h0Z"/><path class="cls-2" d="M11.12,78.19c.91,6.37,2.4,12.65,4.48,18.75,1.07,3.13,2.35,6.15,3.6,9.21.59,1.45,1.15,2.92,1.55,4.44s.61,3.18,1.05,4.74c.75,2.68,2.34,4.88,4.09,7,1.85,2.24,3.52,4.42,4.87,7s2.68,5.1,4.7,7.22,4.46,3.91,6.64,5.92c2.43,2.25,4.51,4.75,6.71,7.21,1.87,2.08,4.13,3.93,7.06,3.9,1.61-.02,1.61-2.52,0-2.5-2.55.02-4.38-2.08-5.91-3.88-1.79-2.09-3.6-4.15-5.6-6.05-2.11-2-4.45-3.73-6.52-5.77s-3.39-4.41-4.72-6.94c-1.25-2.4-2.69-4.56-4.42-6.64s-3.54-4.1-4.35-6.69c-.44-1.4-.64-2.85-.96-4.27-.34-1.53-.85-3.01-1.42-4.47-1.15-2.93-2.43-5.79-3.49-8.75-2.32-6.51-3.96-13.24-4.94-20.08-.23-1.59-2.64-.91-2.41.66h0Z"/><path class="cls-2" d="M52.43,114.67c-1.09,3.99-2.02,8.51.22,12.29,1.85,3.12,6.07,4.88,9.33,2.77,1.5-.97,2.96-2.83,3.18-4.64s-.94-3.19-2.43-4c-2.6-1.42-6.93-2.13-9.25.18-2.87,2.86-.64,7.14,2.57,8.47,4.21,1.74,8.79-.42,12.69-2.01,4.37-1.78,8.68-3.7,12.93-5.76s8.32-4.37,12.54-6.45c4.79-2.36,9.96-3.95,14.98-5.74,2.64-.94,5.2-1.78,8.02-1.89s5.4.12,8.08-.24c1.57-.21,1.59-2.71,0-2.5-3.74.5-7.52-.09-11.25.56s-7.45,2.34-11.06,3.63-6.94,2.48-10.25,4.12-6.62,3.51-9.98,5.19-6.87,3.32-10.37,4.84-6.75,3.09-10.27,4c-1.77.45-3.74.64-5.43-.19-1.3-.64-2.54-2.2-1.82-3.72,1.1-2.3,5.67-1.21,7.2.05s-.4,3.48-1.68,4.15c-1.63.86-3.65.18-4.85-1.1-2.86-3.05-1.67-7.79-.7-11.35.42-1.55-1.99-2.22-2.41-.66h0Z"/><path class="cls-2" d="M62.78,93.97c.63.67,1.17,1.43,1.52,2.29.24.58.25.83-.12,1.35-.29.41-.7.78-1.05,1.12-1.36,1.31-3,2.36-4.77,3.02-2.82,1.04-8.79,2.79-10.04-1.29-.48-1.54.38-3.21,1.87-3.76.83-.31,1.74-.43,2.61-.65,1.15-.29,2.3-.66,3.49-.74,3.62-.25,6.41,3.14,5.48,6.64-.58,2.2-2.06,4.15-3.51,5.87-1.56,1.85-3.22,3.61-4.84,5.4-1.08,1.19.68,2.96,1.77,1.77,1.96-2.16,4-4.27,5.8-6.57,1.64-2.11,3.18-4.51,3.45-7.23.49-4.9-3.97-8.88-8.73-8.32-1.35.16-2.64.55-3.95.87s-2.67.52-3.79,1.33c-1.78,1.28-2.62,3.64-2.13,5.76s2.4,3.98,4.57,4.49c2.59.61,5.81-.19,8.27-1.04,2.64-.9,5.06-2.45,6.94-4.52,1.06-1.17,1.73-2.25,1.22-3.85-.45-1.4-1.29-2.65-2.28-3.71-1.1-1.18-2.87.59-1.77,1.77h0Z"/><path class="cls-2" d="M152.79,111.85c-4.05-2.57-8.59-4.38-13.32-5.21-5.12-.89-10.34-.61-15.51-.93-1.61-.1-1.6,2.4,0,2.5,4.94.3,9.95-.01,14.84.84,4.54.79,8.84,2.49,12.73,4.96,1.36.86,2.62-1.3,1.26-2.16h0Z"/><path class="cls-2" d="M155,107.73c-3.25-3.03-6.9-5.56-10.61-8-3.97-2.62-7.95-5.22-11.97-7.76-8-5.07-16.19-9.85-24.82-13.78-4.8-2.19-9.7-4.14-14.68-5.86-1.52-.53-2.18,1.89-.66,2.41,8.7,3,17.11,6.75,25.16,11.19,8.17,4.5,15.99,9.61,23.8,14.72,4.17,2.73,8.34,5.45,12,8.85,1.18,1.09,2.95-.67,1.77-1.77h0Z"/><path class="cls-2" d="M69.69,75.51c5.56-.18,10.94,1.22,15.72,4.05,2.46,1.45,4.8,2.57,7.57,3.28s5.32,1.44,7.93,2.36c11.04,3.86,21.48,9.48,32,14.54,6.22,2.99,12.44,5.98,18.66,8.97,1.44.69,2.71-1.46,1.26-2.16-11.06-5.32-22.13-10.64-33.19-15.96-5.29-2.54-10.6-5.04-16.1-7.09-2.69-1-5.42-1.9-8.19-2.63-1.34-.35-2.69-.65-4.01-1.09-1.39-.46-2.65-1.16-3.9-1.91-5.45-3.25-11.38-5.07-17.76-4.86-1.6.05-1.61,2.55,0,2.5h0Z"/><path class="cls-2" d="M13.46,77.79c-.28-3.2-.41-6.41-.34-9.62.03-1.2-.03-2.38,1.09-3.09,1.24-.79,2.83-1.21,4.23-1.62,5.75-1.67,12.04-2.12,18.01-2.35,6.27-.23,12.52,1.26,18.68,2.27s12.79,2.11,19.11,3.55,12.68,3.72,18.25,7.6c1.32.92,2.57-1.24,1.26-2.16-10.94-7.62-24.63-9.21-37.47-11.33-6.69-1.1-13.5-2.74-20.31-2.42-6.24.29-12.84.73-18.83,2.61-2.89.9-6.06,1.92-6.43,5.35-.4,3.66-.06,7.54.26,11.2.14,1.59,2.64,1.61,2.5,0h0Z"/><path class="cls-2" d="M65.16,92.37c-2.03-3.6-6.29-4.47-10.07-4.89-5.49-.62-11.03-.64-16.55-.68-5.43-.03-10.88-.07-16.29-.67-1.4-.16-2.79-.35-4.17-.6-.61-.11-.89.05-.5-.5.29-.42,1.18-.66,1.63-.82,2.48-.82,5.07-1.39,7.61-1.94,3.63-.79,10.58-1.39,10.09-6.71s-6.95-4.76-10.63-4.5c-2.49.18-5.29.74-7.77.34-2.25-.37-3.88-2.87-1.21-3.99,2.19-.92,5.03-.66,7.34-.49,2.77.2,5.53.63,8.27,1.09,12.44,2.1,24.83,4.52,37.24,6.8,1.57.29,2.25-2.12.66-2.41-11.63-2.13-23.26-4.32-34.9-6.39-5.52-.98-11.37-2.2-16.99-1.53-1.86.22-3.99.87-5.03,2.56-1.16,1.89-.42,4.18,1.21,5.52,1.9,1.57,4.46,1.47,6.77,1.3,2.72-.19,5.48-.54,8.21-.54,1.81,0,5.64,1.15,3.99,3.71-1.34,2.09-4.81,2.15-6.99,2.61-2.68.56-5.36,1.19-7.99,1.97-1.84.55-4.46,1.65-4.38,3.99.09,2.57,3.72,2.52,5.53,2.76,2.8.38,5.62.61,8.44.73,6.4.28,12.81.1,19.22.35,3.06.12,6.2.24,9.22.81,2.28.44,4.67,1.22,5.88,3.36.79,1.4,2.95.14,2.16-1.26h0Z"/><text class="cls-3" transform="translate(110.96 65.89)"><tspan x="0" y="0">C S</tspan></text></svg>