<?xml version="1.0" encoding="UTF-8"?><svg id="Layer_1" xmlns="http://www.w3.org/2000/svg" width="145.68mm" height="63.73mm" viewBox="0 0 412.96 180.64"><defs><style>.cls-1{fill:#454934;stroke-width:0px;}</style></defs><path class="cls-1" d="M45.14,97.88c0-.44.2-.8.6-1.08.4-.28.84-.64,1.32-1.08.48-.44.93-1.07,1.35-1.89.42-.82.65-1.97.69-3.45v-25.08c-.04-1.52-.27-2.68-.69-3.48s-.87-1.42-1.35-1.86c-.48-.44-.92-.8-1.32-1.08-.4-.28-.6-.64-.6-1.08,0-.16.06-.32.18-.48.16-.32.5-.48,1.02-.48h4.74c1.68,0,3.2.51,4.56,1.53,1.36,1.02,2.58,2.36,3.66,4.02,1.08,1.66,2.03,3.57,2.85,5.73.82,2.16,1.54,4.39,2.16,6.69.62,2.3,1.15,4.57,1.59,6.81.44,2.24.81,4.28,1.11,6.12s.55,3.39.75,4.65c.2,1.26.36,2.05.48,2.37l5.88-36.54c0-.24.08-.48.24-.72.08-.16.23-.31.45-.45.22-.14.55-.21.99-.21h7.98c1.12,0,1.68.46,1.68,1.38,0,.36-.09.73-.27,1.11-.18.38-.37.85-.57,1.41-.2.56-.39,1.25-.57,2.07-.18.82-.27,1.85-.27,3.09v23.88c0,1.24.09,2.27.27,3.09.18.82.37,1.51.57,2.07.2.56.39,1.03.57,1.41.18.38.27.75.27,1.11,0,.24-.06.46-.18.66s-.29.37-.51.51c-.22.14-.55.21-.99.21h-7.98c-1.12,0-1.68-.46-1.68-1.38,0-.36.09-.73.27-1.11.18-.38.37-.85.57-1.41.2-.56.39-1.25.57-2.07.18-.82.27-1.85.27-3.09v-23.88c0-.68-.03-1.3-.09-1.86-.06-.56-.13-1.06-.21-1.5l-5.7,35.04c-.08.44-.28.76-.6.96-.32.2-.7.3-1.14.3h-6.72c-.52,0-.92-.25-1.2-.75-.28-.5-.52-1.29-.72-2.37-.16-.84-.37-2.17-.63-3.99-.26-1.82-.56-3.84-.9-6.06-.34-2.22-.74-4.51-1.2-6.87-.46-2.36-.98-4.51-1.56-6.45-.58-1.94-1.2-3.54-1.86-4.8-.66-1.26-1.39-1.89-2.19-1.89v24.72c.08,1.48.33,2.63.75,3.45.42.82.87,1.45,1.35,1.89.48.44.91.8,1.29,1.08.38.28.57.64.57,1.08,0,.16-.04.32-.12.48-.08.12-.2.23-.36.33-.16.1-.4.15-.72.15h-7.5c-.8,0-1.2-.32-1.2-.96Z"/><path class="cls-1" d="M89.54,73.28l4.02-3.3c.32-.28.69-.54,1.11-.78.42-.24.85-.36,1.29-.36s.81.2,1.11.6c.3.4.45,1.14.45,2.22v18.12c0,1.24.09,2.27.27,3.09.18.82.37,1.51.57,2.07.2.56.39,1.03.57,1.41.18.38.27.75.27,1.11,0,.24-.06.46-.18.66s-.29.37-.51.51c-.22.14-.55.21-.99.21h-7.98c-.32,0-.6-.06-.84-.18-.2-.08-.39-.22-.57-.42-.18-.2-.27-.46-.27-.78,0-.36.09-.73.27-1.11.18-.38.37-.85.57-1.41.2-.56.39-1.25.57-2.07.18-.82.27-1.85.27-3.09v-11.58c-.92-.96-1.44-1.79-1.56-2.49-.12-.7.4-1.51,1.56-2.43ZM93.56,53.84c1.52,0,2.8.54,3.84,1.62,1.04,1.08,1.56,2.38,1.56,3.9,0,.76-.14,1.47-.42,2.13-.28.66-.66,1.24-1.14,1.74-.48.5-1.05.89-1.71,1.17-.66.28-1.37.42-2.13.42-1.52,0-2.81-.53-3.87-1.59-1.06-1.06-1.59-2.35-1.59-3.87,0-.76.14-1.47.42-2.13.28-.66.67-1.24,1.17-1.74.5-.5,1.08-.9,1.74-1.2.66-.3,1.37-.45,2.13-.45Z"/><path class="cls-1" d="M102.02,68.84h4.2v-2.88c-.92-.96-1.44-1.79-1.56-2.49-.12-.7.4-1.51,1.56-2.43l4.02-3.3c.28-.24.62-.45,1.02-.63.4-.18.8-.27,1.2-.27.48,0,.89.18,1.23.54.34.36.51,1.04.51,2.04v9.42h4.2c.36,0,.62.1.78.3.16.2.24.43.24.69s-.08.49-.24.69c-.16.2-.42.3-.78.3h-4.2v15.18c0,.64,0,1.56.03,2.76.02,1.2.09,2.39.21,3.57.12,1.18.3,2.21.54,3.09.24.88.58,1.32,1.02,1.32.8,0,1.3-.49,1.5-1.47.2-.98.36-2.17.48-3.57.08-.8.37-1.4.87-1.8.5-.4,1.05-.6,1.65-.6.68,0,1.29.25,1.83.75.54.5.77,1.21.69,2.13-.04.64-.24,1.34-.6,2.1-.36.76-.88,1.48-1.56,2.16-.68.68-1.55,1.25-2.61,1.71-1.06.46-2.33.69-3.81.69s-2.77-.22-3.75-.66c-.98-.44-1.78-1.02-2.4-1.74-.62-.72-1.07-1.54-1.35-2.46-.28-.92-.48-1.86-.6-2.82-.12-.96-.17-1.89-.15-2.79.02-.9.03-1.69.03-2.37v-15.18h-4.2c-.36,0-.62-.1-.78-.3-.16-.2-.24-.43-.24-.69s.08-.49.24-.69c.16-.2.42-.3.78-.3Z"/><path class="cls-1" d="M142.76,73.1l4.02-3.3c.32-.24.69-.46,1.11-.66.42-.2.83-.3,1.23-.3.44,0,.82.16,1.14.48.32.32.48.92.48,1.8.96-.92,2-1.63,3.12-2.13,1.12-.5,2.32-.75,3.6-.75,1.64,0,3.18.43,4.62,1.29s2.7,2.01,3.78,3.45c1.08,1.44,1.93,3.1,2.55,4.98.62,1.88.93,3.86.93,5.94s-.31,4-.93,5.88c-.62,1.88-1.47,3.54-2.55,4.98-1.08,1.44-2.34,2.58-3.78,3.42s-2.98,1.26-4.62,1.26c-1.28,0-2.48-.25-3.6-.75-1.12-.5-2.16-1.19-3.12-2.07v8.16c0,1.24.09,2.27.27,3.09.18.82.37,1.51.57,2.07.2.56.39,1.03.57,1.41.18.38.27.75.27,1.11,0,.92-.56,1.38-1.68,1.38h-7.98c-.32,0-.6-.06-.84-.18-.2-.08-.39-.21-.57-.39-.18-.18-.27-.45-.27-.81s.09-.73.27-1.11c.18-.38.37-.85.57-1.41.2-.56.39-1.25.57-2.07.18-.82.27-1.85.27-3.09v-26.76c-.92-.96-1.44-1.79-1.56-2.49s.4-1.51,1.56-2.43ZM155.06,96.08c1.08,0,1.97-.39,2.67-1.17.7-.78,1.26-1.76,1.68-2.94.42-1.18.71-2.49.87-3.93.16-1.44.24-2.82.24-4.14s-.08-2.71-.24-4.17c-.16-1.46-.45-2.79-.87-3.99-.42-1.2-.98-2.19-1.68-2.97-.7-.78-1.59-1.17-2.67-1.17-.8,0-1.57.23-2.31.69-.74.46-1.41,1.09-2.01,1.89v19.38c.6.76,1.27,1.37,2.01,1.83.74.46,1.51.69,2.31.69Z"/><path class="cls-1" d="M185.96,68.24c2.32,0,4.36.37,6.12,1.11,1.76.74,3.24,1.8,4.44,3.18,1.2,1.38,2.11,3.02,2.73,4.92.62,1.9.93,4.03.93,6.39s-.31,4.44-.93,6.36c-.62,1.92-1.53,3.57-2.73,4.95-1.2,1.38-2.68,2.44-4.44,3.18-1.76.74-3.8,1.11-6.12,1.11s-4.36-.37-6.12-1.11c-1.76-.74-3.24-1.8-4.44-3.18-1.2-1.38-2.11-3.03-2.73-4.95-.62-1.92-.93-4.04-.93-6.36s.31-4.49.93-6.39c.62-1.9,1.53-3.54,2.73-4.92,1.2-1.38,2.68-2.44,4.44-3.18,1.76-.74,3.8-1.11,6.12-1.11ZM180.56,83.84c0,2.32.16,4.34.48,6.06.32,1.72.74,3.14,1.26,4.26.52,1.12,1.1,1.95,1.74,2.49.64.54,1.28.81,1.92.81s1.28-.27,1.92-.81c.64-.54,1.22-1.37,1.74-2.49.52-1.12.94-2.54,1.26-4.26.32-1.72.48-3.74.48-6.06s-.16-4.39-.48-6.09c-.32-1.7-.74-3.11-1.26-4.23-.52-1.12-1.1-1.95-1.74-2.49-.64-.54-1.28-.81-1.92-.81s-1.28.27-1.92.81c-.64.54-1.22,1.37-1.74,2.49-.52,1.12-.94,2.53-1.26,4.23-.32,1.7-.48,3.73-.48,6.09Z"/><path class="cls-1" d="M204.26,73.04l4.02-3.3c.28-.24.62-.45,1.02-.63.4-.18.8-.27,1.2-.27.48,0,.89.18,1.23.54.34.36.51,1.04.51,2.04v.3c1.04-1.04,2.17-1.88,3.39-2.52,1.22-.64,2.59-.96,4.11-.96.92,0,1.9.14,2.94.42,1.04.28,2,.69,2.88,1.23.88.54,1.6,1.21,2.16,2.01.56.8.84,1.7.84,2.7,0,.76-.32,1.49-.96,2.19-.64.7-1.54,1.05-2.7,1.05-1.08,0-1.91-.33-2.49-.99-.58-.66-1.07-1.39-1.47-2.19-.4-.8-.77-1.53-1.11-2.19-.34-.66-.85-.99-1.53-.99-.84,0-1.8.33-2.88.99-1.08.66-2.14,1.53-3.18,2.61v14.7c0,1.24.09,2.27.27,3.09.18.82.37,1.51.57,2.07.2.56.39,1.03.57,1.41.18.38.27.75.27,1.11,0,.24-.06.46-.18.66s-.29.37-.51.51c-.22.14-.55.21-.99.21h-7.98c-1.12,0-1.68-.46-1.68-1.38,0-.36.09-.73.27-1.11.18-.38.37-.85.57-1.41.2-.56.39-1.25.57-2.07.18-.82.27-1.85.27-3.09v-11.82c0-.68-.11-1.23-.33-1.65-.22-.42-.4-.8-.54-1.14-.14-.34-.17-.66-.09-.96.08-.3.4-.69.96-1.17Z"/><path class="cls-1" d="M231.98,68.84h4.2v-2.88c-.92-.96-1.44-1.79-1.56-2.49-.12-.7.4-1.51,1.56-2.43l4.02-3.3c.28-.24.62-.45,1.02-.63.4-.18.8-.27,1.2-.27.48,0,.89.18,1.23.54.34.36.51,1.04.51,2.04v9.42h4.2c.36,0,.62.1.78.3.16.2.24.43.24.69s-.08.49-.24.69c-.16.2-.42.3-.78.3h-4.2v15.18c0,.64,0,1.56.03,2.76.02,1.2.09,2.39.21,3.57.12,1.18.3,2.21.54,3.09.24.88.58,1.32,1.02,1.32.8,0,1.3-.49,1.5-1.47.2-.98.36-2.17.48-3.57.08-.8.37-1.4.87-1.8.5-.4,1.05-.6,1.65-.6.68,0,1.29.25,1.83.75.54.5.77,1.21.69,2.13-.04.64-.24,1.34-.6,2.1-.36.76-.88,1.48-1.56,2.16-.68.68-1.55,1.25-2.61,1.71-1.06.46-2.33.69-3.81.69s-2.77-.22-3.75-.66c-.98-.44-1.78-1.02-2.4-1.74-.62-.72-1.07-1.54-1.35-2.46-.28-.92-.48-1.86-.6-2.82-.12-.96-.17-1.89-.15-2.79.02-.9.03-1.69.03-2.37v-15.18h-4.2c-.36,0-.62-.1-.78-.3-.16-.2-.24-.43-.24-.69s.08-.49.24-.69c.16-.2.42-.3.78-.3Z"/><path class="cls-1" d="M254.06,68.84h4.2v-3.18c0-2.04.35-3.83,1.05-5.37.7-1.54,1.65-2.84,2.85-3.9,1.2-1.06,2.62-1.85,4.26-2.37,1.64-.52,3.38-.78,5.22-.78,1.4,0,2.74.11,4.02.33,1.28.22,2.41.57,3.39,1.05.98.48,1.77,1.08,2.37,1.8.6.72.9,1.58.9,2.58,0,.76-.32,1.49-.96,2.19-.64.7-1.54,1.05-2.7,1.05-.72,0-1.31-.17-1.77-.51-.46-.34-.85-.77-1.17-1.29-.32-.52-.59-1.09-.81-1.71-.22-.62-.47-1.19-.75-1.71-.28-.52-.61-.95-.99-1.29-.38-.34-.89-.51-1.53-.51-.72,0-1.4.16-2.04.48-.64.32-1.21.88-1.71,1.68-.5.8-.9,1.87-1.2,3.21-.3,1.34-.45,3.03-.45,5.07v3.18h4.2c.36,0,.62.1.78.3.16.2.24.43.24.69s-.08.49-.24.69c-.16.2-.42.3-.78.3h-4.2v18.96c0,1.24.09,2.27.27,3.09.18.82.37,1.51.57,2.07.2.56.39,1.03.57,1.41.18.38.27.75.27,1.11,0,.24-.06.46-.18.66s-.29.37-.51.51c-.22.14-.55.21-.99.21h-7.98c-.32,0-.6-.06-.84-.18-.2-.08-.39-.22-.57-.42s-.27-.46-.27-.78c0-.36.09-.73.27-1.11.18-.38.37-.85.57-1.41.2-.56.39-1.25.57-2.07.18-.82.27-1.85.27-3.09v-18.96h-4.2c-.36,0-.62-.1-.78-.3-.16-.2-.24-.43-.24-.69s.08-.49.24-.69c.16-.2.42-.3.78-.3Z"/><path class="cls-1" d="M285.74,68.24c2.32,0,4.36.37,6.12,1.11,1.76.74,3.24,1.8,4.44,3.18,1.2,1.38,2.11,3.02,2.73,4.92.62,1.9.93,4.03.93,6.39s-.31,4.44-.93,6.36c-.62,1.92-1.53,3.57-2.73,4.95-1.2,1.38-2.68,2.44-4.44,3.18-1.76.74-3.8,1.11-6.12,1.11s-4.36-.37-6.12-1.11c-1.76-.74-3.24-1.8-4.44-3.18-1.2-1.38-2.11-3.03-2.73-4.95-.62-1.92-.93-4.04-.93-6.36s.31-4.49.93-6.39c.62-1.9,1.53-3.54,2.73-4.92,1.2-1.38,2.68-2.44,4.44-3.18,1.76-.74,3.8-1.11,6.12-1.11ZM280.34,83.84c0,2.32.16,4.34.48,6.06.32,1.72.74,3.14,1.26,4.26.52,1.12,1.1,1.95,1.74,2.49.64.54,1.28.81,1.92.81s1.28-.27,1.92-.81c.64-.54,1.22-1.37,1.74-2.49.52-1.12.94-2.54,1.26-4.26.32-1.72.48-3.74.48-6.06s-.16-4.39-.48-6.09c-.32-1.7-.74-3.11-1.26-4.23-.52-1.12-1.1-1.95-1.74-2.49-.64-.54-1.28-.81-1.92-.81s-1.28.27-1.92.81c-.64.54-1.22,1.37-1.74,2.49-.52,1.12-.94,2.53-1.26,4.23-.32,1.7-.48,3.73-.48,6.09Z"/><path class="cls-1" d="M304.04,58.04l4.02-3.3c.28-.24.62-.45,1.02-.63.4-.18.8-.27,1.2-.27.48,0,.89.18,1.23.54.34.36.51,1.04.51,2.04v33.36c0,1.24.09,2.27.27,3.09.18.82.37,1.51.57,2.07.2.56.39,1.03.57,1.41.18.38.27.75.27,1.11,0,.24-.06.46-.18.66s-.29.37-.51.51c-.22.14-.55.21-.99.21h-7.98c-.32,0-.6-.06-.84-.18-.2-.08-.39-.22-.57-.42s-.27-.46-.27-.78c0-.36.09-.73.27-1.11.18-.38.37-.85.57-1.41.2-.56.39-1.25.57-2.07.18-.82.27-1.85.27-3.09v-26.82c0-.68-.11-1.23-.33-1.65-.22-.42-.4-.8-.54-1.14-.14-.34-.17-.66-.09-.96.08-.3.4-.69.96-1.17Z"/><path class="cls-1" d="M317.78,73.28l4.02-3.3c.32-.28.69-.54,1.11-.78.42-.24.85-.36,1.29-.36s.81.2,1.11.6c.3.4.45,1.14.45,2.22v18.12c0,1.24.09,2.27.27,3.09.18.82.37,1.51.57,2.07.2.56.39,1.03.57,1.41.18.38.27.75.27,1.11,0,.24-.06.46-.18.66s-.29.37-.51.51c-.22.14-.55.21-.99.21h-7.98c-.32,0-.6-.06-.84-.18-.2-.08-.39-.22-.57-.42s-.27-.46-.27-.78c0-.36.09-.73.27-1.11.18-.38.37-.85.57-1.41.2-.56.39-1.25.57-2.07.18-.82.27-1.85.27-3.09v-11.58c-.92-.96-1.44-1.79-1.56-2.49-.12-.7.4-1.51,1.56-2.43ZM321.8,53.84c1.52,0,2.8.54,3.84,1.62s1.56,2.38,1.56,3.9c0,.76-.14,1.47-.42,2.13-.28.66-.66,1.24-1.14,1.74-.48.5-1.05.89-1.71,1.17-.66.28-1.37.42-2.13.42-1.52,0-2.81-.53-3.87-1.59-1.06-1.06-1.59-2.35-1.59-3.87,0-.76.14-1.47.42-2.13.28-.66.67-1.24,1.17-1.74s1.08-.9,1.74-1.2,1.37-.45,2.13-.45Z"/><path class="cls-1" d="M344.06,68.24c2.32,0,4.36.37,6.12,1.11,1.76.74,3.24,1.8,4.44,3.18,1.2,1.38,2.11,3.02,2.73,4.92.62,1.9.93,4.03.93,6.39s-.31,4.44-.93,6.36c-.62,1.92-1.53,3.57-2.73,4.95-1.2,1.38-2.68,2.44-4.44,3.18-1.76.74-3.8,1.11-6.12,1.11s-4.36-.37-6.12-1.11c-1.76-.74-3.24-1.8-4.44-3.18-1.2-1.38-2.11-3.03-2.73-4.95-.62-1.92-.93-4.04-.93-6.36s.31-4.49.93-6.39c.62-1.9,1.53-3.54,2.73-4.92,1.2-1.38,2.68-2.44,4.44-3.18,1.76-.74,3.8-1.11,6.12-1.11ZM338.66,83.84c0,2.32.16,4.34.48,6.06.32,1.72.74,3.14,1.26,4.26s1.1,1.95,1.74,2.49,1.28.81,1.92.81,1.28-.27,1.92-.81,1.22-1.37,1.74-2.49.94-2.54,1.26-4.26c.32-1.72.48-3.74.48-6.06s-.16-4.39-.48-6.09-.74-3.11-1.26-4.23c-.52-1.12-1.1-1.95-1.74-2.49s-1.28-.81-1.92-.81-1.28.27-1.92.81-1.22,1.37-1.74,2.49c-.52,1.12-.94,2.53-1.26,4.23s-.48,3.73-.48,6.09Z"/></svg>